<svg width="25" height="26" viewBox="0 0 25 26" fill="none" xmlns="http://www.w3.org/2000/svg">
<circle cx="10.2988" cy="15.7011" r="10.2988" fill="#009369"/>
<path d="M7.966 22.3879L7.9662 22.3882C8.54474 23.1517 9.44541 23.5976 10.3984 23.5976C10.4423 23.5976 10.4857 23.5967 10.5293 23.5951L10.5293 23.5951L10.5373 23.5948C11.5409 23.5493 12.4576 23.0126 12.9886 22.1596C12.9887 22.1595 12.9887 22.1594 12.9888 22.1593L23.2627 5.66391C24.1536 4.23387 23.7173 2.35145 22.2862 1.46071L22.2853 1.46019C20.8547 0.571709 18.9742 1.00787 18.0831 2.43753L18.0829 2.43782L10.1541 15.1686L7.57363 11.7612L7.57334 11.7608C6.55638 10.4193 4.64484 10.1522 3.29936 11.1702L3.2989 11.1706C1.9561 12.1879 1.69078 14.1007 2.70829 15.4444C2.70829 15.4445 2.7083 15.4445 2.7083 15.4445L7.966 22.3879Z" fill="white" stroke="#009369" stroke-width="2"/>
</svg>
