<svg width="20" height="23" viewBox="0 0 20 23" fill="none" xmlns="http://www.w3.org/2000/svg">
<circle cx="10" cy="12" r="10" fill="#2D4E47"/>
<path d="M7.16481 1.96256L7.15801 1.9696L7.15134 1.97677C6.55929 2.61391 6.27295 3.40227 6.27295 4.27589C6.27295 5.14951 6.55929 5.93787 7.15134 6.57501L7.15801 6.58218L7.16481 6.58922C7.2571 6.68472 7.35339 6.77277 7.45338 6.85352C7.39168 6.86414 7.33503 6.87429 7.28355 6.88398L6.46845 7.03733V7.86673V18.1588C6.46845 18.647 6.52366 19.1189 6.67491 19.5363L6.68787 19.5721L6.7035 19.6067C6.8764 19.9901 7.12693 20.3291 7.4663 20.5925C7.80515 20.8555 8.19548 21.0143 8.60846 21.0897L8.60846 21.0897L8.61815 21.0914C8.97752 21.1534 9.36135 21.1818 9.76562 21.1818C10.1776 21.1818 10.5834 21.1439 10.9821 21.0672C11.3318 21.0176 11.6102 20.9742 11.8078 20.937L12.6229 20.7836V19.9542V9.66216C12.6229 9.17925 12.5615 8.69829 12.3792 8.27536C12.2265 7.87062 11.9822 7.50565 11.6251 7.22846C11.5386 7.16137 11.4487 7.10136 11.3559 7.04794C11.5537 6.91898 11.7387 6.76417 11.9088 6.58225C12.518 5.94838 12.8184 5.15795 12.8184 4.27589C12.8184 3.39383 12.518 2.6034 11.9088 1.96953C11.2852 1.3026 10.4607 1 9.54568 1C8.62677 1 7.80077 1.30449 7.16481 1.96256Z" fill="white" stroke="#2D4E47" stroke-width="2"/>
</svg>
