<svg width="850" height="44" viewBox="0 0 850 44" fill="none" xmlns="http://www.w3.org/2000/svg">
<line x1="1" y1="21" x2="849" y2="20.9999" stroke="#FF9780" stroke-width="2" stroke-linecap="round"/>
<rect x="400" width="49" height="44" fill="white"/>
<path d="M444.07 22.9893C443.44 20.8892 444.371 20.8073 443.495 14.7796C441.279 -0.0853083 429.186 1.44209 427.654 2.86039C426.806 3.65136 426.56 7.08801 425.657 8.28811C425.465 8.53359 425.246 8.69724 425 8.69724H424.973C424.726 8.69724 424.508 8.53359 424.316 8.28811C423.44 7.08801 423.167 3.65136 422.319 2.86039C420.787 1.44209 408.694 -0.0853083 406.477 14.7796C405.602 20.8073 406.532 20.8892 405.903 22.9893C405.766 23.4803 405 24.4349 405 24.6804C405 24.844 405.246 24.9804 405.711 25.0077C406.778 25.0622 410.8 23.5894 412.551 22.1165L412.661 22.0347C412.633 22.062 412.606 22.0893 412.579 22.1165L414.713 20.0709L414.74 20.0982C414.22 21.1619 413.235 24.3258 413.235 25.8532C412.989 29.399 414.193 33.6539 417.394 35.6722C419.747 37.1723 420.841 38.7543 420.869 38.7816C421.088 39.0816 421.279 39.4634 421.471 39.818C422.127 41.1272 423.468 41.9727 424.918 42C424.945 42 424.945 42 424.973 42H425C425 42 425 42 425.027 42C425.055 42 425.055 42 425.082 42C426.532 41.9454 427.873 41.1272 428.529 39.818C428.721 39.4634 428.912 39.0816 429.131 38.7816C429.159 38.7543 430.253 37.1723 432.606 35.6722C435.807 33.6539 437.011 29.399 436.765 25.8532C436.792 24.2985 435.78 21.1619 435.26 20.0982C435.26 20.0982 435.287 20.0982 435.287 20.0709L437.421 22.1165C437.394 22.0893 437.367 22.062 437.339 22.0347L437.449 22.1165C439.2 23.5894 443.222 25.0622 444.289 25.0077C444.754 24.9804 445 24.8168 445 24.6804C444.973 24.4349 444.207 23.4803 444.07 22.9893ZM415.725 20.2073C415.725 20.18 415.725 20.18 415.725 20.2073V20.2073ZM434.275 20.18C434.275 20.2073 434.275 20.2073 434.275 20.18V20.18ZM435.233 20.0982C435.068 19.9891 434.412 19.2799 434.138 19.1981C434.083 19.1981 434.056 19.1708 434.001 19.1708C433.29 19.0345 432.825 19.3345 432.579 19.6618C432.579 19.6618 432.579 19.6618 432.551 19.6891C432.497 19.7436 432.469 19.7982 432.442 19.8527C432.36 19.9891 432.305 20.0982 432.305 20.1527C432.25 20.2073 432.196 20.2891 432.168 20.3709C432.141 20.3982 432.141 20.4255 432.114 20.4528C432.086 20.48 432.086 20.5346 432.059 20.5619C431.84 21.3528 431.977 22.4711 432.798 23.7803C433.098 24.2713 433.317 25.0077 433.399 25.8259C433.536 27.1624 433.372 28.7716 432.825 30.1627C432.798 30.2172 432.77 30.299 432.743 30.3536C432.743 30.3809 432.715 30.4081 432.688 30.4627C432.387 31.1446 431.977 31.7719 431.457 32.2901L431.43 32.3174C431.238 32.5083 431.047 32.6447 430.828 32.8083C429.514 33.6539 428.502 34.4994 427.763 35.2358C427.709 35.2904 427.654 35.3449 427.599 35.3995C426.86 36.1359 426.477 36.7087 426.341 36.8723C426.04 37.3087 425.793 37.7451 425.575 38.127C425.547 38.1815 425.52 38.2361 425.492 38.2906C425.465 38.3179 425.465 38.3452 425.438 38.3724C425.438 38.3997 425.41 38.427 425.383 38.4543C425.356 38.4815 425.328 38.5088 425.301 38.5361C425.192 38.6179 425.082 38.6452 424.973 38.6452C424.863 38.6452 424.726 38.5906 424.644 38.5361C424.617 38.5088 424.59 38.4815 424.562 38.4543C424.535 38.427 424.508 38.3997 424.508 38.3724C424.48 38.3452 424.48 38.3179 424.453 38.2906C424.425 38.2361 424.398 38.1815 424.371 38.127C424.152 37.7451 423.933 37.3087 423.605 36.8723C423.495 36.7087 423.085 36.1359 422.346 35.3995C422.291 35.3449 422.237 35.2904 422.209 35.2358C421.471 34.4994 420.486 33.6539 419.145 32.8083C418.926 32.672 418.735 32.5083 418.543 32.3174L418.516 32.2901C417.996 31.7992 417.585 31.1446 417.285 30.4627C417.285 30.4354 417.257 30.4081 417.257 30.3536C417.23 30.299 417.202 30.2172 417.175 30.1627C416.628 28.7716 416.464 27.1624 416.601 25.8259C416.683 25.0077 416.874 24.2713 417.202 23.7803C418.023 22.4711 418.16 21.3256 417.941 20.5619C417.941 20.5346 417.914 20.48 417.886 20.4528C417.886 20.4255 417.859 20.3982 417.832 20.3709C417.777 20.2891 417.75 20.2073 417.695 20.1527C417.668 20.0709 417.613 19.9618 417.558 19.8527C417.531 19.7982 417.476 19.7436 417.421 19.6891C417.421 19.6891 417.421 19.6618 417.394 19.6618C417.148 19.3345 416.71 19.0345 415.971 19.1708C415.917 19.1708 415.889 19.1981 415.834 19.1981C415.561 19.2799 414.904 19.9891 414.74 20.0982L414.713 20.0709C414.74 19.9073 415.068 19.3072 415.315 19.1163C415.752 18.7617 416.245 18.5981 416.737 18.5981C417.312 18.5981 417.859 18.8163 418.269 19.2254C418.461 19.4163 418.653 19.6345 418.762 19.9073C418.789 19.9618 418.817 20.0436 418.844 20.0709C418.844 20.0982 418.871 20.1255 418.871 20.1255C419.391 21.3801 419.145 23.0166 418.133 24.6258C417.339 25.8805 417.476 29.5899 419.063 31.4719L419.118 31.5264C419.309 31.7446 419.555 31.9628 419.802 32.0992C420.869 32.7811 421.854 33.5448 422.702 34.3357C422.756 34.3903 422.839 34.4448 422.893 34.5267L422.975 34.6085C423.003 34.6358 423.03 34.663 423.057 34.6903L423.112 34.7449C423.988 35.6177 424.425 36.245 424.508 36.4086C424.562 36.4905 424.617 36.5723 424.672 36.6541C424.699 36.7087 424.754 36.7632 424.836 36.7905C424.863 36.8178 424.891 36.8178 424.918 36.8178C424.945 36.8178 424.973 36.8178 425 36.7905C425.055 36.7632 425.109 36.7087 425.137 36.6541C425.192 36.5723 425.246 36.4905 425.301 36.4086C425.41 36.245 425.821 35.6449 426.724 34.7449L426.778 34.6903C426.806 34.663 426.833 34.6358 426.86 34.6085L426.943 34.5267C426.997 34.4721 427.052 34.4176 427.134 34.3357C428.01 33.5175 428.995 32.7538 430.034 32.0992C430.28 31.9355 430.499 31.7446 430.718 31.5264L430.773 31.4719C432.36 29.5899 432.469 25.8805 431.703 24.6258C430.718 23.0166 430.445 21.3801 430.964 20.1255C430.964 20.0982 430.992 20.0709 430.992 20.0709C431.019 20.0436 431.047 19.9618 431.074 19.9073C431.211 19.6345 431.375 19.4163 431.566 19.2254C431.977 18.8163 432.524 18.5981 433.098 18.5981C433.618 18.5981 434.111 18.789 434.521 19.1163C434.767 19.3345 435.096 19.9073 435.123 20.0709L435.233 20.0982Z" fill="#FF9780"/>
</svg>
