<svg width="249" height="95" viewBox="0 0 249 95" fill="none" xmlns="http://www.w3.org/2000/svg">
<rect width="249" height="95" rx="47.5" fill="#FFFAF6"/>
<path d="M76.286 36C76.094 36 75.956 35.958 75.872 35.874C75.788 35.79 75.746 35.652 75.746 35.46V23.94C75.746 23.748 75.788 23.61 75.872 23.526C75.956 23.442 76.094 23.4 76.286 23.4H82.568C82.7 23.4 82.79 23.442 82.838 23.526C82.898 23.61 82.928 23.748 82.928 23.94V24.228C82.928 24.42 82.898 24.558 82.838 24.642C82.79 24.726 82.7 24.768 82.568 24.768H77.33V28.872H82.028C82.16 28.872 82.25 28.914 82.298 28.998C82.358 29.082 82.388 29.22 82.388 29.412V29.7C82.388 29.892 82.358 30.03 82.298 30.114C82.25 30.198 82.16 30.24 82.028 30.24H77.33V34.632H82.586C82.718 34.632 82.808 34.674 82.856 34.758C82.916 34.842 82.946 34.98 82.946 35.172V35.46C82.946 35.652 82.916 35.79 82.856 35.874C82.808 35.958 82.718 36 82.586 36H76.286ZM78.986 22.284C78.71 22.284 78.572 22.224 78.572 22.104C78.572 22.02 78.656 21.816 78.824 21.492C79.004 21.168 79.268 20.706 79.616 20.106C79.712 19.938 79.85 19.818 80.03 19.746C80.21 19.674 80.444 19.638 80.732 19.638C81.032 19.638 81.248 19.656 81.38 19.692C81.524 19.728 81.596 19.788 81.596 19.872C81.596 19.968 81.506 20.13 81.326 20.358C81.146 20.574 80.672 21.108 79.904 21.96C79.712 22.176 79.406 22.284 78.986 22.284ZM88.7222 36.036C88.2422 36.036 88.0022 35.904 88.0022 35.64V24.768H84.5462C84.4262 24.768 84.3362 24.726 84.2762 24.642C84.2162 24.558 84.1862 24.42 84.1862 24.228V23.94C84.1862 23.748 84.2162 23.61 84.2762 23.526C84.3362 23.442 84.4262 23.4 84.5462 23.4H92.9882C93.1202 23.4 93.2102 23.442 93.2582 23.526C93.3182 23.61 93.3482 23.748 93.3482 23.94V24.228C93.3482 24.42 93.3182 24.558 93.2582 24.642C93.2102 24.726 93.1202 24.768 92.9882 24.768H89.5862V35.64C89.5862 35.904 89.3462 36.036 88.8662 36.036H88.7222ZM93.9744 36.036C93.4584 36.036 93.2004 35.934 93.2004 35.73C93.2004 35.67 93.2184 35.586 93.2544 35.478L97.5204 23.652C97.5924 23.46 97.8324 23.364 98.2404 23.364H98.7624C99.1944 23.364 99.4344 23.46 99.4824 23.652L103.748 35.496C103.784 35.58 103.802 35.658 103.802 35.73C103.802 35.934 103.544 36.036 103.028 36.036H102.884C102.464 36.036 102.224 35.94 102.164 35.748L101.102 32.796H95.8104L94.7844 35.748C94.7244 35.94 94.4844 36.036 94.0644 36.036H93.9744ZM100.616 31.428L98.7264 26.064C98.6664 25.872 98.5944 25.524 98.5104 25.02H98.4744C98.3784 25.5 98.2884 25.848 98.2044 26.064L96.3144 31.428H100.616ZM106.363 36.036C105.883 36.036 105.643 35.904 105.643 35.64V23.76C105.643 23.496 105.883 23.364 106.363 23.364H106.741C106.933 23.364 107.083 23.388 107.191 23.436C107.311 23.484 107.413 23.574 107.497 23.706L113.149 32.238C113.353 32.538 113.551 32.898 113.743 33.318L113.815 33.3C113.791 33.024 113.779 32.616 113.779 32.076V23.76C113.779 23.496 114.019 23.364 114.499 23.364H114.625C115.105 23.364 115.345 23.496 115.345 23.76V35.64C115.345 35.904 115.105 36.036 114.625 36.036H114.265C113.953 36.036 113.743 35.952 113.635 35.784L107.839 27.036C107.635 26.736 107.437 26.376 107.245 25.956L107.173 25.974C107.197 26.25 107.209 26.658 107.209 27.198V35.64C107.209 35.904 106.969 36.036 106.489 36.036H106.363ZM123.783 36.108C121.803 36.108 120.339 35.592 119.391 34.56C118.455 33.516 117.987 31.896 117.987 29.7C117.987 25.428 119.931 23.292 123.819 23.292C124.407 23.292 124.971 23.358 125.511 23.49C126.063 23.61 126.501 23.76 126.825 23.94C127.113 24.108 127.257 24.264 127.257 24.408C127.257 24.576 127.179 24.792 127.023 25.056C126.879 25.32 126.753 25.452 126.645 25.452C126.609 25.452 126.453 25.38 126.177 25.236C125.913 25.08 125.583 24.948 125.187 24.84C124.803 24.72 124.359 24.66 123.855 24.66C122.403 24.66 121.335 25.062 120.651 25.866C119.967 26.67 119.625 27.954 119.625 29.718C119.625 31.446 119.961 32.718 120.633 33.534C121.317 34.338 122.367 34.74 123.783 34.74C124.371 34.74 124.875 34.674 125.295 34.542C125.715 34.398 126.129 34.218 126.537 34.002C126.705 33.894 126.819 33.84 126.879 33.84C126.987 33.84 127.119 33.972 127.275 34.236C127.431 34.5 127.509 34.692 127.509 34.812C127.509 34.992 127.317 35.19 126.933 35.406C126.573 35.61 126.117 35.778 125.565 35.91C125.013 36.042 124.419 36.108 123.783 36.108ZM130.571 36.036C130.091 36.036 129.851 35.904 129.851 35.64V23.76C129.851 23.496 130.091 23.364 130.571 23.364H130.715C131.195 23.364 131.435 23.496 131.435 23.76V28.854H137.951V23.76C137.951 23.496 138.191 23.364 138.671 23.364H138.815C139.295 23.364 139.535 23.496 139.535 23.76V35.64C139.535 35.904 139.295 36.036 138.815 36.036H138.671C138.191 36.036 137.951 35.904 137.951 35.64V30.222H131.435V35.64C131.435 35.904 131.195 36.036 130.715 36.036H130.571ZM143.593 36C143.401 36 143.263 35.958 143.179 35.874C143.095 35.79 143.053 35.652 143.053 35.46V23.94C143.053 23.748 143.095 23.61 143.179 23.526C143.263 23.442 143.401 23.4 143.593 23.4H149.875C150.007 23.4 150.097 23.442 150.145 23.526C150.205 23.61 150.235 23.748 150.235 23.94V24.228C150.235 24.42 150.205 24.558 150.145 24.642C150.097 24.726 150.007 24.768 149.875 24.768H144.637V28.872H149.335C149.467 28.872 149.557 28.914 149.605 28.998C149.665 29.082 149.695 29.22 149.695 29.412V29.7C149.695 29.892 149.665 30.03 149.605 30.114C149.557 30.198 149.467 30.24 149.335 30.24H144.637V34.632H149.893C150.025 34.632 150.115 34.674 150.163 34.758C150.223 34.842 150.253 34.98 150.253 35.172V35.46C150.253 35.652 150.223 35.79 150.163 35.874C150.115 35.958 150.025 36 149.893 36H143.593ZM146.293 22.284C146.017 22.284 145.879 22.224 145.879 22.104C145.879 22.02 145.963 21.816 146.131 21.492C146.311 21.168 146.575 20.706 146.923 20.106C147.019 19.938 147.157 19.818 147.337 19.746C147.517 19.674 147.751 19.638 148.039 19.638C148.339 19.638 148.555 19.656 148.687 19.692C148.831 19.728 148.903 19.788 148.903 19.872C148.903 19.968 148.813 20.13 148.633 20.358C148.453 20.574 147.979 21.108 147.211 21.96C147.019 22.176 146.713 22.284 146.293 22.284ZM153.599 36.036C153.119 36.036 152.879 35.904 152.879 35.64V23.76C152.879 23.496 153.119 23.364 153.599 23.364H153.743C154.223 23.364 154.463 23.496 154.463 23.76V35.64C154.463 35.904 154.223 36.036 153.743 36.036H153.599ZM161.126 36.036C160.646 36.036 160.406 35.904 160.406 35.64V24.768H156.95C156.83 24.768 156.74 24.726 156.68 24.642C156.62 24.558 156.59 24.42 156.59 24.228V23.94C156.59 23.748 156.62 23.61 156.68 23.526C156.74 23.442 156.83 23.4 156.95 23.4H165.392C165.524 23.4 165.614 23.442 165.662 23.526C165.722 23.61 165.752 23.748 165.752 23.94V24.228C165.752 24.42 165.722 24.558 165.662 24.642C165.614 24.726 165.524 24.768 165.392 24.768H161.99V35.64C161.99 35.904 161.75 36.036 161.27 36.036H161.126ZM168.395 36C168.203 36 168.065 35.958 167.981 35.874C167.897 35.79 167.855 35.652 167.855 35.46V23.94C167.855 23.748 167.897 23.61 167.981 23.526C168.065 23.442 168.203 23.4 168.395 23.4H174.677C174.809 23.4 174.899 23.442 174.947 23.526C175.007 23.61 175.037 23.748 175.037 23.94V24.228C175.037 24.42 175.007 24.558 174.947 24.642C174.899 24.726 174.809 24.768 174.677 24.768H169.439V28.872H174.137C174.269 28.872 174.359 28.914 174.407 28.998C174.467 29.082 174.497 29.22 174.497 29.412V29.7C174.497 29.892 174.467 30.03 174.407 30.114C174.359 30.198 174.269 30.24 174.137 30.24H169.439V34.632H174.695C174.827 34.632 174.917 34.674 174.965 34.758C175.025 34.842 175.055 34.98 175.055 35.172V35.46C175.055 35.652 175.025 35.79 174.965 35.874C174.917 35.958 174.827 36 174.695 36H168.395ZM171.095 22.284C170.819 22.284 170.681 22.224 170.681 22.104C170.681 22.02 170.765 21.816 170.933 21.492C171.113 21.168 171.377 20.706 171.725 20.106C171.821 19.938 171.959 19.818 172.139 19.746C172.319 19.674 172.553 19.638 172.841 19.638C173.141 19.638 173.357 19.656 173.489 19.692C173.633 19.728 173.705 19.788 173.705 19.872C173.705 19.968 173.615 20.13 173.435 20.358C173.255 20.574 172.781 21.108 172.013 21.96C171.821 22.176 171.515 22.284 171.095 22.284Z" fill="black"/>
<path fill-rule="evenodd" clip-rule="evenodd" d="M61.0788 63.7765L67.6668 52.2847C67.8844 51.9051 68.4318 51.9051 68.6494 52.2847L75.2374 63.7764C77.4793 67.687 76.1271 72.6749 72.2173 74.9172C68.3075 77.1595 63.3206 75.8071 61.0788 71.8965C59.5874 69.2952 59.6944 66.206 61.0788 63.7765ZM62.9994 68.08C62.9994 67.8812 62.8383 67.72 62.6395 67.72C62.4407 67.72 62.2796 67.8812 62.2796 68.08C62.2796 68.8522 62.4316 69.6168 62.7271 70.3302C63.0225 71.0436 63.4555 71.6918 64.0014 72.2378C64.5473 72.7838 65.1954 73.2169 65.9087 73.5124C66.6219 73.8079 67.3864 73.96 68.1584 73.96C68.3572 73.96 68.5183 73.7988 68.5183 73.6C68.5183 73.4012 68.3572 73.24 68.1584 73.24C67.4809 73.24 66.8101 73.1065 66.1841 72.8472C65.5582 72.5879 64.9895 72.2078 64.5104 71.7287C64.0314 71.2495 63.6514 70.6807 63.3921 70.0546C63.1328 69.4286 62.9994 68.7576 62.9994 68.08Z" fill="black"/>
<path fill-rule="evenodd" clip-rule="evenodd" d="M89.3986 63.7765L95.9866 52.2847C96.2042 51.9051 96.7516 51.9051 96.9692 52.2847L103.557 63.7764C105.799 67.687 104.447 72.6749 100.537 74.9172C96.6274 77.1595 91.6405 75.8071 89.3986 71.8965C87.9073 69.2952 88.0142 66.206 89.3986 63.7765ZM91.3192 68.08C91.3192 67.8812 91.1581 67.72 90.9593 67.72C90.7605 67.72 90.5994 67.8812 90.5994 68.08C90.5994 68.8522 90.7514 69.6168 91.0469 70.3302C91.3423 71.0436 91.7753 71.6918 92.3212 72.2378C92.8671 72.7838 93.5152 73.2169 94.2285 73.5124C94.9417 73.8079 95.7062 73.96 96.4782 73.96C96.677 73.96 96.8381 73.7988 96.8381 73.6C96.8381 73.4012 96.677 73.24 96.4782 73.24C95.8007 73.24 95.1299 73.1065 94.504 72.8472C93.878 72.5879 93.3093 72.2078 92.8303 71.7287C92.3512 71.2495 91.9712 70.6807 91.7119 70.0546C91.4527 69.4286 91.3192 68.7576 91.3192 68.08Z" fill="black"/>
<path fill-rule="evenodd" clip-rule="evenodd" d="M117.718 63.7765L124.306 52.2847C124.524 51.9051 125.071 51.9051 125.289 52.2847L131.877 63.7764C134.119 67.687 132.767 72.6749 128.857 74.9172C124.947 77.1595 119.96 75.8071 117.718 71.8965C116.227 69.2952 116.334 66.206 117.718 63.7765ZM119.639 68.08C119.639 67.8812 119.478 67.72 119.279 67.72C119.08 67.72 118.919 67.8812 118.919 68.08C118.919 68.8522 119.071 69.6168 119.367 70.3302C119.662 71.0436 120.095 71.6918 120.641 72.2378C121.187 72.7838 121.835 73.2169 122.548 73.5124C123.262 73.8079 124.026 73.96 124.798 73.96C124.997 73.96 125.158 73.7988 125.158 73.6C125.158 73.4012 124.997 73.24 124.798 73.24C124.121 73.24 123.45 73.1065 122.824 72.8472C122.198 72.5879 121.629 72.2078 121.15 71.7287C120.671 71.2495 120.291 70.6807 120.032 70.0546C119.772 69.4286 119.639 68.7576 119.639 68.08Z" fill="black"/>
<path fill-rule="evenodd" clip-rule="evenodd" d="M146.038 63.7765L152.626 52.2847C152.844 51.9051 153.391 51.9051 153.609 52.2847L160.197 63.7764C162.439 67.687 161.087 72.6749 157.177 74.9172C153.267 77.1595 148.28 75.8071 146.038 71.8965C144.547 69.2952 144.654 66.206 146.038 63.7765ZM147.959 68.08C147.959 67.8812 147.798 67.72 147.599 67.72C147.4 67.72 147.239 67.8812 147.239 68.08C147.239 68.8522 147.391 69.6168 147.687 70.3302C147.982 71.0436 148.415 71.6918 148.961 72.2378C149.507 72.7838 150.155 73.2169 150.868 73.5124C151.581 73.8079 152.346 73.96 153.118 73.96C153.317 73.96 153.478 73.7988 153.478 73.6C153.478 73.4012 153.317 73.24 153.118 73.24C152.44 73.24 151.77 73.1065 151.144 72.8472C150.518 72.5879 149.949 72.2078 149.47 71.7287C148.991 71.2495 148.611 70.6807 148.352 70.0546C148.092 69.4286 147.959 68.7576 147.959 68.08Z" fill="black"/>
<path d="M176.519 68.08C176.519 67.8812 176.358 67.72 176.159 67.72C175.96 67.72 175.799 67.8812 175.799 68.08C175.799 68.8522 175.951 69.6168 176.247 70.3302C176.542 71.0436 176.976 71.6918 177.522 72.2378C178.068 72.7838 178.716 73.2169 179.429 73.5124C180.143 73.8079 180.907 73.96 181.679 73.96C181.878 73.96 182.039 73.7988 182.039 73.6C182.039 73.4012 181.878 73.24 181.679 73.24C181.002 73.24 180.331 73.1065 179.705 72.8472C179.079 72.5879 178.51 72.2078 178.031 71.7287C177.551 71.2495 177.171 70.6807 176.912 70.0546C176.653 69.4286 176.519 68.7576 176.519 68.08Z" fill="black"/>
<path fill-rule="evenodd" clip-rule="evenodd" d="M180.948 52.2847L174.358 63.7765C172.974 66.206 172.867 69.2952 174.358 71.8965C176.601 75.8071 181.588 77.1595 185.499 74.9172C189.41 72.6749 190.762 67.687 188.52 63.7764L181.93 52.2847C181.713 51.9051 181.165 51.9051 180.948 52.2847ZM174.983 64.1337L174.984 64.133L181.439 52.8752L187.895 64.1346C189.94 67.7002 188.707 72.2481 185.141 74.2926C181.575 76.3371 177.027 75.104 174.983 71.5384C173.624 69.1688 173.719 66.3521 174.983 64.1337Z" fill="black"/>
</svg>
