<svg width="30" height="30" viewBox="0 0 30 30" fill="none" xmlns="http://www.w3.org/2000/svg">
<path d="M29.2382 1.34726C28.7044 1.12629 28.2488 1.21714 27.871 1.62082L25.332 4.14062C23.9388 2.82545 22.347 1.80662 20.5567 1.08395C18.7663 0.361339 16.914 0 14.9999 0C12.9688 0 11.0287 0.397322 9.17976 1.19149C7.33069 1.98572 5.73562 3.05325 4.39454 4.39442C3.0534 5.73572 1.98562 7.33062 1.1914 9.17959C0.397246 11.0287 0 12.9685 0 15C0 17.0309 0.397246 18.9712 1.19147 20.8202C1.98589 22.6694 3.0534 24.2644 4.39461 25.6056C5.73568 26.9463 7.33076 28.0141 9.17983 28.8084C11.0288 29.6027 12.9688 30 15 30C17.2394 30 19.3689 29.528 21.3868 28.5839C23.4048 27.6402 25.1236 26.3086 26.5432 24.5898C26.6472 24.4596 26.696 24.3131 26.6893 24.1503C26.6832 23.9876 26.621 23.8542 26.5039 23.75L23.8286 21.0547C23.6848 20.9377 23.5226 20.8792 23.3402 20.8792C23.1319 20.9052 22.9823 20.9836 22.891 21.1138C21.9405 22.351 20.7752 23.3078 19.3949 23.9854C18.0149 24.6622 16.5501 25.0005 15.0005 25.0005C13.6466 25.0005 12.3542 24.7369 11.1238 24.2094C9.89319 23.6823 8.82862 22.9694 7.93036 22.0709C7.03216 21.1723 6.31927 20.1081 5.79185 18.8774C5.26456 17.6469 5.00084 16.3548 5.00084 15.0005C5.00084 13.6464 5.26476 12.3537 5.79185 11.1235C6.31907 9.89317 7.03188 8.82858 7.93036 7.9303C8.8289 7.03181 9.89319 6.31891 11.1238 5.79147C12.354 5.26424 13.6466 5.00046 15.0005 5.00046C17.6178 5.00046 19.89 5.89245 21.8171 7.67636L19.1213 10.3713C18.7174 10.762 18.6266 11.2113 18.8475 11.719C19.0693 12.2399 19.4534 12.5002 20.0005 12.5002H28.7503C29.0889 12.5002 29.3817 12.3766 29.6292 12.1292C29.8764 11.8818 30 11.5889 30 11.2503V2.50016C29.9999 1.95343 29.7466 1.56931 29.2382 1.34726Z" fill="#1A509F"/>
</svg>
