<svg width="68" height="68" viewBox="0 0 68 68" fill="none" xmlns="http://www.w3.org/2000/svg">
<g clip-path="url(#clip0)">
<path d="M58.8372 0H9.16411C4.10355 0 0.000976562 4.10241 0.000976562 9.16314V58.8365C0.000976562 63.8973 4.10339 67.9997 9.16411 67.9997H33.6626L33.7044 43.7003H27.3914C26.571 43.7003 25.9051 43.0369 25.902 42.2165L25.8717 34.3838C25.8685 33.5589 26.5364 32.8885 27.3613 32.8885H33.6628V25.3201C33.6628 16.5371 39.0269 11.7546 46.862 11.7546H53.2912C54.1138 11.7546 54.7808 12.4215 54.7808 13.2443V19.8488C54.7808 20.6712 54.1143 21.338 53.292 21.3385L49.3465 21.3403C45.0856 21.3403 44.2605 23.365 44.2605 26.3365V32.8886H53.6232C54.5154 32.8886 55.2075 33.6676 55.1024 34.5536L54.174 42.3863C54.0852 43.1359 53.4496 43.7006 52.6949 43.7006H44.3022L44.2605 68H58.8375C63.8981 68 68.0005 63.8976 68.0005 58.837V9.16314C68.0003 4.10241 63.8979 0 58.8372 0Z" fill="#475993"/>
</g>
<defs>
<clipPath id="clip0">
<rect width="68" height="68" fill="white"/>
</clipPath>
</defs>
</svg>
