<svg width="65" height="64" viewBox="0 0 65 64" fill="none" xmlns="http://www.w3.org/2000/svg">
<rect width="65" height="64" rx="4" fill="#00664A"/>
<g clip-path="url(#clip0)">
<path d="M20.1946 36.7982L18.5934 42.7757L12.741 42.8995C10.9921 39.6555 10 35.944 10 31.9998C10 28.1859 10.9275 24.5893 12.5717 21.4224H12.5729L17.7832 22.3776L20.0656 27.5565C19.5879 28.9492 19.3275 30.4442 19.3275 31.9998C19.3277 33.6882 19.6335 35.3058 20.1946 36.7982Z" fill="white"/>
<path d="M55.5979 27.7031C55.862 29.0944 55.9997 30.5313 55.9997 31.9998C55.9997 33.6465 55.8266 35.2527 55.4968 36.8021C54.3772 42.0744 51.4516 46.6781 47.3988 49.936L47.3976 49.9348L40.835 49.5999L39.9062 43.8019C42.5954 42.2248 44.697 39.7567 45.8041 36.8021H33.5054V27.7031H45.9835H55.5979Z" fill="white"/>
<path d="M47.3979 49.9348L47.3992 49.9361C43.4576 53.1043 38.4506 54.9999 33.0002 54.9999C24.2412 54.9999 16.626 50.1042 12.7412 42.8996L20.1947 36.7983C22.1371 41.9821 27.1377 45.6723 33.0002 45.6723C35.52 45.6723 37.8808 44.9911 39.9065 43.8019L47.3979 49.9348Z" fill="white"/>
<path d="M47.6809 14.295L40.2299 20.3951C38.1334 19.0846 35.6552 18.3276 33.0001 18.3276C27.0049 18.3276 21.9108 22.187 20.0657 27.5567L12.573 21.4225H12.5718C16.3997 14.0423 24.111 9 33.0001 9C38.5807 9 43.6976 10.9879 47.6809 14.295Z" fill="white"/>
</g>
<defs>
<clipPath id="clip0">
<rect width="46" height="46" fill="white" transform="translate(10 9)"/>
</clipPath>
</defs>
</svg>
