<?xml version="1.0" encoding="utf-8"?>
<!-- Generator: Adobe Illustrator 23.0.2, SVG Export Plug-In . SVG Version: 6.00 Build 0)  -->
<svg version="1.1" id="Calque_1" xmlns="http://www.w3.org/2000/svg" xmlns:xlink="http://www.w3.org/1999/xlink" x="0px" y="0px"
	 viewBox="0 0 164 104" style="enable-background:new 0 0 164 104;" xml:space="preserve">
<style type="text/css">
	.st0{fill:#FF9780;}
	.st1{fill:#00664A;}
</style>
<title>Fichier 3</title>
<g>
	<g id="Calque_1-2">
		<path class="st0" d="M38.3,78.9c-0.2-0.7-0.4-1.6-0.6-2.3c-0.2-0.4-0.6-0.7-1.1-0.5c-0.2,0.1-0.4,0.2-0.5,0.4
			c-0.3,0.8-0.7,1.5-1.1,2.1c-0.5,0.6-1,1.1-1.6,1.6c-0.5,0.4-1.1,0.8-1.8,1.1c-0.9,0.5-1.9,0.8-2.9,1.1c-1.2,0.4-2.5,0.4-3.7,0.2
			c-0.2-0.1-0.4-0.1-0.6-0.1c-0.7-0.1-1.4-0.3-2.1-0.6c-0.8-0.3-1.5-0.8-2.1-1.3c-0.7-0.6-1.3-1.4-1.7-2.3c-0.6-1.3,0-2.9,1.3-3.5
			c0.3-0.1,0.5-0.2,0.8-0.2c2.4-0.1,4.8-0.5,7.1-1.3c2.4-0.8,4.5-2.1,6.3-3.8c1.5-1.5,2.9-4.9,3.3-5.8c0.1-0.1-0.1-0.2-0.1-0.2
			c-1.1,0.3-2.1,0.4-3.2,0.4h-0.5c-3.7-0.1-5.4-2.4-5.4-4.6c0-1.5,0.7-2.5,1.6-3.9c0.2-0.3,0.4-0.7,0.6-1c0.1-0.3,0.2-0.5,0.4-0.7
			c0.3-1.3,0.4-2.6,0.2-3.9c-0.1-1.3-1.1-2.4-2.4-2.6c-1-0.1-2-0.2-3-0.2c-2.1,0-6.3,1.1-6.2,0.5L19,46.2c-0.3-1-0.7-2-1.2-3
			c-0.3-0.6-0.7-1.1-1.1-1.6c-0.7-0.7-1.6-1.3-2.5-1.6c-0.9-0.5-2.1-0.3-2.8,0.5c-0.4,0.5-0.7,1.1-0.6,1.8c-0.1,1,0.2,1.9,0.8,2.7
			c0.6,0.8,1.3,1.5,2.1,2.1c0.9,0.6,1.8,1.1,2.9,1.3c0.7,0.1-0.2,0.6-0.6,0.7c-3.1,1.3-5.9,3.3-8.2,5.8c-2.5,2.7-4.5,5.9-5.7,9.4
			c-1.4,4.1-2.1,8.4-2,12.8c-0.1,3.8,0.5,7.7,1.6,11.3c1,2.8,2.5,5.4,4.5,7.6c1.8,1.9,4,3.4,6.5,4.3c2.4,0.9,5,1.3,7.5,1.3
			c2.5,0,5-0.4,7.4-1.3c2.2-0.9,4.2-2.1,5.9-3.7c1.6-1.6,3-3.5,3.9-5.6c1-2.3,1.5-4.7,1.4-7.2C38.8,82,38.7,80.4,38.3,78.9z
			 M17.8,66.1c0.1-0.5,0.2-1.1,0.4-1.6c0.3-1,0.8-2,1.4-2.8c0.5-0.9,1.2-1.6,2.1-2.2c0.8-0.6,1.7-0.9,2.7-0.9c0.6,0,1.3,0.2,1.8,0.6
			c0.7,0.7,1,1.8,0.5,2.8c-0.3,1-0.8,1.8-1.6,2.5c-0.5,0.4-1.1,0.8-1.6,1.1c-0.9,0.5-2,1-3,1.3l-1.3,0.4c-0.5,0.2-1.1-0.1-1.3-0.6
			C17.8,66.5,17.8,66.3,17.8,66.1z"/>
		<path class="st0" d="M163.4,76.9c-0.1-0.7-0.4-1.6-0.6-2.3c-0.2-0.5-0.7-0.7-1.1-0.5c-0.2,0.1-0.4,0.2-0.5,0.4
			c-0.3,0.8-0.7,1.5-1.1,2.1c-0.5,0.6-1,1.1-1.6,1.6c-0.6,0.4-1.2,0.8-1.8,1.1c-0.9,0.5-1.8,0.8-2.8,1.1c-1.2,0.4-2.5,0.4-3.7,0.2
			c-0.1,0-0.4-0.1-0.5-0.1c-0.7-0.1-1.4-0.3-2.1-0.6c-0.8-0.3-1.5-0.7-2.1-1.3c-0.7-0.6-1.3-1.4-1.7-2.3c-0.6-1.3-0.1-2.8,1.2-3.5
			c0.3-0.1,0.6-0.2,0.9-0.2c2.4-0.1,4.8-0.6,7.1-1.3c2.4-0.8,4.5-2.1,6.3-3.8c1.5-1.5,2.7-3.4,3.3-5.5c0.6-2.1,1-4.2,0.9-6.3
			c0.1-1.7-0.3-3.5-1.1-5.1c-0.6-1.3-1.6-2.5-2.8-3.3c-1.2-0.9-2.6-1.5-4.1-1.8c-1.6-0.4-3.2-0.6-4.9-0.6c-3.3,0-6.6,0.6-9.7,1.9
			c-1.6,0.7-3.2,1.5-4.6,2.6c-0.7,0.5-1.1,1.4-1.1,2.3v0.1c0.1,1,0.4,2.1,1,2.9c0.1,0.1,0.1,0.1,0.1,0.2c0.9,1.4,1.6,2.5,1.6,3.9
			c0,2.2-1.6,4.4-5.4,4.6h-0.5c-1.6,0-3.3-0.3-4.8-0.7c-0.2-0.1-0.5,0.1-0.6,0.3c0,0,0,0,0,0C125.6,67,125,71,125.1,75
			c-0.1,3.8,0.5,7.7,1.6,11.3c1,2.8,2.5,5.4,4.5,7.6c1.8,1.9,4,3.4,6.5,4.3c2.4,0.9,5,1.3,7.6,1.3c2.6,0,5.1-0.4,7.5-1.3
			c2.2-0.8,4.2-2.1,5.9-3.7c1.6-1.6,3-3.5,3.9-5.6c1-2.3,1.5-4.7,1.4-7.2C163.8,80.1,163.6,78.5,163.4,76.9z M142.8,64.2
			c0.1-0.5,0.2-1.1,0.4-1.6c0.3-1,0.8-2,1.4-2.8c0.5-0.9,1.2-1.6,2.1-2.2c0.8-0.6,1.7-0.9,2.7-0.9c0.6,0,1.3,0.2,1.8,0.6
			c0.8,0.7,1,1.8,0.5,2.8c-0.3,1-0.9,1.8-1.6,2.6c-0.5,0.4-1.1,0.8-1.6,1.1c-0.9,0.5-2,1-3,1.3l-1.3,0.4c-0.6,0.2-1.2-0.1-1.4-0.7
			C142.7,64.5,142.7,64.4,142.8,64.2z"/>
		<path class="st1" d="M134.7,59.3c0,0.4-0.6,0.8-1.9,0.8c-3.4,0.2-11.5-2.1-24.4-12.5c-0.7-0.6-1.4-1.1-2.1-1.7
			c-1.1-1-2.9-1-3.9,0.1c-0.3,0.3-0.6,0.7-0.8,1.1c-0.1,0.1-0.1,0.1-0.2,0.2c-0.9,2-0.8,5.3,1.6,9.3c2.7,4.3,2.3,15.5-2.8,21.4
			l-0.1,0.1c-0.7,0.8-1.5,1.4-2.3,2c-2.6,1.6-5,3.5-7.2,5.6l-0.6,0.6l-0.4,0.4c-1.2,1.2-2.4,2.5-3.3,3.9c-0.7,1-1.3,2-1.8,3
			c-0.1,0.1-0.1,0.1-0.1,0.3s-0.1,0.2-0.1,0.3s-0.1,0.1-0.2,0.3c-0.1,0.1-0.2,0.2-0.2,0.3l-0.3,0.3l-0.1,0.1h-0.1
			c-0.2,0.1-0.4,0.2-0.6,0.2h-0.1c-0.6,0-1.2-0.4-1.4-0.9c-0.6-1.1-1.3-2.4-2.1-3.7c-0.1-0.2-0.5-0.6-1-1.3
			c-0.1-0.1-0.2-0.2-0.2-0.3c-0.7-0.9-1.5-1.8-2.3-2.6l-0.1-0.1c-2.4-2.4-5.1-4.4-7.9-6.2c-3.8-2.4-5.9-7.3-6.6-12.2v-0.1
			C61,67.8,61,67.6,61,67.3c0-0.3-0.1-0.6-0.1-0.8c-0.1-1.2-0.1-2.3,0-3.5v-0.7c0-0.2,0-0.3,0.1-0.5c0.1-0.5,0.1-1.1,0.2-1.5
			c0.2-1.1,0.7-2.2,1.2-3.3c0.9-1.5,1.6-3.1,2-4.8c0-0.1,0.1-0.2,0.1-0.3c0.4-2.8-0.4-4.9-1.8-5.8c-1.1-0.7-2.5-0.6-3.4,0.3
			c-0.6,0.5-1.1,0.9-1.7,1.4C44.2,58.4,36,60.6,32.6,60.5c-0.5,0-1.6-0.1-1.9-0.7c-0.1-0.4,0.2-0.8,0.4-1.1c0.8-1,1.5-2.2,2-3.4
			c1.6-5.5-0.8-5.7,1.5-21.5c5.5-39.2,37-35.2,41-31.5c2.3,2.3,2.9,12.7,5.8,14.8c0.3,0.2,0.7,0.4,1.1,0.4h0.1
			c0.7-0.1,1.3-0.5,1.7-1.1c2.3-3.1,3-12.1,5.2-14.2c4-3.7,35.5-7.7,41.3,31.1c2.3,15.8-0.1,16,1.5,21.5
			C132.6,56.1,134.7,58.6,134.7,59.3z"/>
		<path class="st0" d="M102.6,87.5c-3.5,2.1-6.5,4.9-9,8.1c-0.6,0.9-1.1,1.8-1.6,2.7c-2.6,5.2-9,7.2-14.1,4.5c-2-1-3.5-2.6-4.5-4.5
			c-0.5-0.9-1-1.8-1.6-2.7c-2.5-3.2-5.5-6-9-8.1c-8.4-5.3-11.5-16.4-10.9-25.6c0,0,1.1-10.3,5.8-15c0.4-0.4,0.8-0.7,1.3-1
			c0.4-0.2,0.7-0.4,0.9-0.6h0.1c3.2-1.2,6.8,3.8,2.2,11.3c-2.8,4.5-2.3,16.6,3.5,22.1c0.2,0.2,0.5,0.5,0.8,0.7l0.8,0.6
			c2.9,1.8,5.6,3.9,8,6.3c1.4,1.3,2.6,2.7,3.6,4.3c0.8,1.2,1.5,2.4,2.1,3.7c0.1,0.2,0.2,0.3,0.3,0.4c0.7,0.6,1.7,0.6,2.4,0
			c0.1-0.1,0.1-0.1,0.1-0.2s0.1-0.2,0.1-0.2l0.2-0.4c0.6-1,1.1-2.1,1.9-3.3c1.1-1.5,2.3-2.9,3.6-4.3c2.4-2.4,5.1-4.5,8-6.3
			c0.6-0.4,1.2-0.8,1.7-1.4c1.6-1.6,2.8-3.5,3.5-5.6c1.4-3.6,1.9-7.5,1.5-11.3c-0.1-1.9-0.6-3.7-1.6-5.3c-5.1-8.2-0.1-13.5,3.2-10.7
			c0.4,0.3,0.7,0.5,1,0.8c0,0,0.1,0,0.1,0.1c4,4,6.2,9.5,6,15.1C114.1,71.1,111,82.2,102.6,87.5z"/>
	</g>
</g>
</svg>
