<svg xmlns="http://www.w3.org/2000/svg" viewBox="0 0 359.2 152.6"><defs><style>.cls-1{fill:#fff;}</style></defs><title>Fichier 1</title><g id="Calque_2" data-name="Calque 2"><g id="Calque_1-2" data-name="Calque 1"><path class="cls-1" d="M252.11,80.07c-2.37-8,1.18-8.36-2.17-31.31-8.39-56.7-54.42-50.9-60.23-45.48-3.18,3-4.2,16.08-7.56,20.66a3.31,3.31,0,0,1-2.5,1.59h-.1a3.31,3.31,0,0,1-2.5-1.59c-3.36-4.58-4.38-17.65-7.56-20.66-5.82-5.42-51.84-11.22-60.23,45.48-3.35,22.95.2,23.34-2.17,31.31-.49,1.87-3.44,5.51-3.44,6.5,0,.59.88,1.19,2.66,1.28,4.06.23,19.33-5.41,26-11h0l.39-.33-.33.27,8.1-7.77a.16.16,0,0,0,.15,0c-1.94,4.07-5.78,16.08-5.67,22-1,13.49,3.64,29.74,15.77,37.42A49.78,49.78,0,0,1,164,140.27a35.3,35.3,0,0,1,2.26,3.94,15.22,15.22,0,0,0,13.08,8.35h.29a.22.22,0,0,0,.08,0h.21A15.22,15.22,0,0,0,193,144.21a35.3,35.3,0,0,1,2.26-3.94,49.78,49.78,0,0,1,13.21-11.81c12.13-7.68,16.76-23.93,15.77-37.42.11-5.9-3.73-17.91-5.67-22a.16.16,0,0,0,.15,0l8.1,7.77-.33-.27.39.33h0c6.69,5.6,22,11.24,26,11,1.78-.09,2.66-.69,2.66-1.28C255.55,85.58,252.6,81.94,252.11,80.07ZM144.28,69.48a.08.08,0,0,1,.08-.07Zm70.56-.07a.08.08,0,0,1,.08.07Zm3.67-.38c-.62-.41-3.1-3.12-4.19-3.41h0l-.51-.11a5.29,5.29,0,0,0-5.4,1.85l-.07.08a7.57,7.57,0,0,0-.47.67,0,0,0,0,1,0,0,6.31,6.31,0,0,0-.57,1.18h0a5.27,5.27,0,0,0-.52.87,2.7,2.7,0,0,0-.17.34c-.06.14-.11.27-.16.41s0,0,0,0c-.8,3-.27,7.25,2.84,12.29A18.13,18.13,0,0,1,211.5,91a37.34,37.34,0,0,1-2.17,16.54c-.1.26-.2.51-.31.76s-.11.25-.16.37a21,21,0,0,1-4.66,7l-.14.13a15.54,15.54,0,0,1-2.31,1.84,69.22,69.22,0,0,0-11.62,9.25h0c-.2.19-.39.38-.58.58a45.5,45.5,0,0,0-4.74,5.62,41.73,41.73,0,0,0-2.86,4.82l-.3.58c-.1.11-.1.2-.2.31s-.09.19-.2.29a2.88,2.88,0,0,1-.33.28,2.35,2.35,0,0,1-1.3.45,2.32,2.32,0,0,1-1.3-.45,2.88,2.88,0,0,1-.33-.28c-.11-.1-.2-.2-.2-.29s-.1-.2-.2-.31l-.3-.58a41.73,41.73,0,0,0-2.86-4.82,45.5,45.5,0,0,0-4.74-5.62c-.19-.2-.38-.39-.58-.58h0a69.22,69.22,0,0,0-11.62-9.25,15.54,15.54,0,0,1-2.31-1.84l-.14-.13a21,21,0,0,1-4.66-7c-.05-.12-.11-.24-.16-.37s-.21-.5-.31-.76A37.34,37.34,0,0,1,147.7,91,18.13,18.13,0,0,1,150,83.27c3.11-5,3.64-9.32,2.84-12.29,0,0,0,0,0,0s-.1-.27-.16-.41a2.7,2.7,0,0,0-.17-.34,5.27,5.27,0,0,0-.52-.87h0a6.31,6.31,0,0,0-.57-1.18,0,0,0,0,1,0,0,7.57,7.57,0,0,0-.47-.67l-.07-.08a5.29,5.29,0,0,0-5.4-1.85l-.51.11h0c-1.09.29-3.57,3-4.19,3.41l-.13-.11a10.93,10.93,0,0,1,2.32-3.69l0,0,0,0a8.61,8.61,0,0,1,5.45-2,8.34,8.34,0,0,1,5.82,2.41,9.7,9.7,0,0,1,1.92,2.6c.15.26.25.49.32.63s.07.18.1.26c2,4.77,1,11-2.8,17.18-3,4.82-2.54,18.95,3.53,26.12l.23.26a12.46,12.46,0,0,0,2.54,2.2,77.92,77.92,0,0,1,11.07,8.58l.71.69.3.29,0,0,0,0c.12.12.22.23.34.34l.23.24a42.13,42.13,0,0,1,5.36,6.33c.23.32.44.63.65,1a1.37,1.37,0,0,0,.57.5.47.47,0,0,0,.58,0,1.37,1.37,0,0,0,.57-.5c.21-.33.42-.64.65-1a42.13,42.13,0,0,1,5.36-6.33l.23-.24c.12-.11.22-.22.34-.34l0,0,0,0,.3-.29.71-.69a77.92,77.92,0,0,1,11.07-8.58,12.46,12.46,0,0,0,2.54-2.2l.23-.26c6.07-7.17,6.5-21.3,3.53-26.12-3.8-6.17-4.82-12.41-2.8-17.18,0-.08.06-.17.1-.26s.17-.37.32-.63a9.7,9.7,0,0,1,1.92-2.6,8.34,8.34,0,0,1,5.82-2.41,8.61,8.61,0,0,1,5.45,2l0,0,0,0a10.93,10.93,0,0,1,2.32,3.69Z"/><path class="cls-1" d="M224.21,91.07c.11-5.9-3.73-17.91-5.66-22,0,0,.11,0,.14,0h-.15l0,0,0,0c-.66-.47-3.09-3.1-4.16-3.39h0l-.51-.12a5.32,5.32,0,0,0-5.4,1.86l-.07.08a7.57,7.57,0,0,0-.47.67,0,0,0,0,1,0,0,7.65,7.65,0,0,0-.46.88l-.11.3h0a6.06,6.06,0,0,0-.52.87,3.59,3.59,0,0,0-.17.34c-.06.13-.11.27-.16.4s0,0,0,.05c-.8,3-.27,7.25,2.84,12.29a18.27,18.27,0,0,1,2.26,7.77,37.36,37.36,0,0,1-2.17,16.54c-.09.26-.2.51-.31.76s-.11.25-.16.37a21.13,21.13,0,0,1-4.66,7l-.13.13a16.88,16.88,0,0,1-2.32,1.84,70.16,70.16,0,0,0-11.62,9.24l0,0c-.2.19-.39.38-.57.58a46.07,46.07,0,0,0-4.75,5.61,43.29,43.29,0,0,0-2.86,4.83l-.3.58c-.09.11-.09.2-.2.3s-.09.2-.2.3a3,3,0,0,1-.33.28,2.31,2.31,0,0,1-1.3.44,2.33,2.33,0,0,1-1.3-.44c-.11-.09-.23-.18-.33-.28s-.2-.2-.2-.3-.1-.19-.2-.3-.19-.38-.3-.58a41.8,41.8,0,0,0-2.86-4.83,45.55,45.55,0,0,0-4.74-5.61l-.57-.58,0,0a70.59,70.59,0,0,0-11.62-9.24,16.3,16.3,0,0,1-2.32-1.84,1.66,1.66,0,0,0-.14-.13,21.45,21.45,0,0,1-4.66-7c-.05-.12-.11-.25-.15-.37s-.22-.5-.32-.76a37.36,37.36,0,0,1-2.17-16.54A18.13,18.13,0,0,1,150,83.3c3.11-5,3.64-9.32,2.84-12.29,0,0,0,0,0-.05s-.11-.27-.17-.4a1.54,1.54,0,0,0-.17-.34,5.27,5.27,0,0,0-.52-.87h0l-.11-.3a7.65,7.65,0,0,0-.46-.88,0,0,0,0,1,0,0,5.93,5.93,0,0,0-.47-.67l-.07-.08a5.31,5.31,0,0,0-5.4-1.86l-.51.12h0c-1.07.29-3.49,2.92-4.16,3.39l0,0,0,0h-.16a.17.17,0,0,0,.15,0c-1.94,4.07-5.78,16.08-5.67,22-1,13.49,3.64,29.74,15.77,37.42A49.78,49.78,0,0,1,164,140.3a37.82,37.82,0,0,1,2.27,3.93,15.19,15.19,0,0,0,13.07,8.36h.29a.22.22,0,0,0,.08,0h.21A15.2,15.2,0,0,0,193,144.23a34.54,34.54,0,0,1,2.27-3.93,49.37,49.37,0,0,1,13.21-11.81C220.57,120.81,225.2,104.56,224.21,91.07ZM144.28,69.51a.08.08,0,0,1,.08-.07Zm70.56-.07s.09,0,.09.07A.31.31,0,0,1,214.84,69.44Z"/><path class="cls-1" d="M358.23,39.87A54.7,54.7,0,0,1,355.9,55.7a32.79,32.79,0,0,1-8.19,13.65q-5.85,6-15.76,9.54t-25.2,3.58A24,24,0,0,0,309,91.35a18.21,18.21,0,0,0,4.28,5.75,17.58,17.58,0,0,0,5.31,3.25,28.44,28.44,0,0,0,5.2,1.52,31.31,31.31,0,0,0,5.64.43,34.58,34.58,0,0,0,12-3.47A24.16,24.16,0,0,0,345.87,96a22,22,0,0,0,4-4,21,21,0,0,0,2.92-5.31,23.1,23.1,0,0,0,1.36-6.88A70.61,70.61,0,0,1,358.06,93a62.76,62.76,0,0,1,1.14,11.44,44.89,44.89,0,0,1-3.52,17.94,42.68,42.68,0,0,1-24.39,23.4,50.47,50.47,0,0,1-18.47,3.31A53.48,53.48,0,0,1,294,145.76a42.33,42.33,0,0,1-16-10.67q-7-7.32-11.16-19T262.67,87.7q0-18.09,5.2-32.08a70,70,0,0,1,14-23.46,59.2,59.2,0,0,1,20.32-14.42,61.07,61.07,0,0,1,24.22-4.93,51.29,51.29,0,0,1,12.09,1.41,28.28,28.28,0,0,1,10.19,4.66,23.52,23.52,0,0,1,7,8.4A28,28,0,0,1,358.23,39.87ZM306.31,64.58a29.62,29.62,0,0,0,7.05-1.24,33.68,33.68,0,0,0,7.64-3.2,21.29,21.29,0,0,0,6-5.1,10.75,10.75,0,0,0,2.44-6.94,5.08,5.08,0,0,0-1.74-4,6.53,6.53,0,0,0-4.44-1.52,11.27,11.27,0,0,0-6.77,2.17,20.4,20.4,0,0,0-5.1,5.42A31.1,31.1,0,0,0,308,57.32,33,33,0,0,0,306.31,64.58Z"/><path class="cls-1" d="M95.43,93a70.59,70.59,0,0,0-4-13.16,22.78,22.78,0,0,1-1.35,6.88A20.87,20.87,0,0,1,87.19,92a22,22,0,0,1-4,4,23.76,23.76,0,0,1-4.45,2.76,34.52,34.52,0,0,1-12,3.47,31.2,31.2,0,0,1-5.63-.43,28.77,28.77,0,0,1-5.21-1.52,17.7,17.7,0,0,1-5.31-3.25,18.36,18.36,0,0,1-4.28-5.75,24.16,24.16,0,0,1-2.22-8.88q15.28,0,25.2-3.58t15.77-9.54a32.66,32.66,0,0,0,8.18-13.65,54.37,54.37,0,0,0,2.33-15.83A27.76,27.76,0,0,0,93,27.25a23.41,23.41,0,0,0-7-8.4,28,28,0,0,0-10.19-4.66,51.21,51.21,0,0,0-12.08-1.41,61.85,61.85,0,0,0-17.26,2.45,20.83,20.83,0,0,1-4.12-2.49,37.38,37.38,0,0,1-5.71-5.1c-1.76-2-3.73-4.48-6.36-4.18-2.32.27-3.8,2.72-4.14,5a7.7,7.7,0,0,0,.26,3.6,7.52,7.52,0,0,0,3.71,4,15.31,15.31,0,0,0,5.39,1.45,31.43,31.43,0,0,0,3.88.21,59.17,59.17,0,0,0-20.2,14.36,70.12,70.12,0,0,0-14,23.46Q0,69.58,0,87.67,0,104.38,4.17,116t11.17,19a42.33,42.33,0,0,0,16,10.67,53.36,53.36,0,0,0,18.8,3.36,50.31,50.31,0,0,0,18.48-3.31A42.83,42.83,0,0,0,93,122.41a44.9,44.9,0,0,0,3.53-17.94A63.59,63.59,0,0,0,95.43,93ZM45.3,57.32a31.13,31.13,0,0,1,3.42-7.15,20.36,20.36,0,0,1,5.09-5.42,11.34,11.34,0,0,1,6.77-2.17A6.59,6.59,0,0,1,65,44.1a5.1,5.1,0,0,1,1.73,4A10.74,10.74,0,0,1,64.32,55a21,21,0,0,1-6,5.09,33.77,33.77,0,0,1-7.59,3.2,29.81,29.81,0,0,1-7,1.24A33.26,33.26,0,0,1,45.3,57.32Z"/></g></g></svg>