<svg width="507" height="218" viewBox="0 0 507 218" fill="none" xmlns="http://www.w3.org/2000/svg">
<g clip-path="url(#clip0)">
<path d="M356.043 114.363C352.649 102.953 357.741 102.41 352.92 69.6082C340.97 -11.3438 275.246 -3.05842 266.962 4.68363C262.413 8.96214 260.987 27.6382 256.166 34.2257C255.148 35.5839 253.994 36.4668 252.568 36.4668H252.432C251.074 36.3989 249.92 35.5839 248.834 34.2257C244.013 27.7061 242.587 9.03005 238.038 4.68363C229.754 -3.05842 164.03 -11.3438 152.012 69.6762C147.259 102.478 152.283 103.021 148.889 114.431C148.21 117.079 144 122.241 144 123.667C144 124.482 145.29 125.365 147.802 125.5C153.574 125.84 175.436 117.758 184.942 109.745L185.485 109.269C185.349 109.405 185.146 109.541 185.01 109.677L196.553 98.607C196.62 98.6749 196.688 98.7428 196.756 98.6749C193.972 104.515 188.541 121.629 188.676 130.051C187.251 149.338 193.905 172.564 211.218 183.498C224.051 191.648 229.958 200.205 230.094 200.408C231.248 202.106 232.334 204.076 233.353 206.045C236.884 213.176 244.149 217.726 252.025 217.998C252.093 217.998 252.228 217.998 252.296 217.998H252.432C252.5 217.998 252.5 217.998 252.568 217.998C252.704 217.998 252.772 217.998 252.839 217.998C260.716 217.726 267.981 213.176 271.511 206.045C272.462 204.076 273.616 202.106 274.77 200.408C274.906 200.272 280.813 191.715 293.646 183.498C310.96 172.564 317.614 149.338 316.188 130.051C316.324 121.629 310.824 104.448 308.108 98.6749C308.176 98.6749 308.244 98.6749 308.312 98.607L319.854 109.677C319.718 109.541 319.515 109.405 319.379 109.269L319.922 109.745C329.496 117.758 351.291 125.772 357.062 125.5C359.574 125.365 360.864 124.55 360.864 123.667C361 122.241 356.79 117.079 356.043 114.363ZM202.052 99.2861C202.052 99.2182 202.12 99.1503 202.188 99.1503C202.12 99.2182 202.052 99.2182 202.052 99.2861ZM302.812 99.1503C302.88 99.1503 302.948 99.1503 302.948 99.2861C302.88 99.2182 302.88 99.2182 302.812 99.1503ZM308.04 98.607C307.157 97.9958 303.627 94.1248 302.065 93.7173C301.793 93.6494 301.59 93.5815 301.318 93.5815C297.38 92.9023 295.004 94.5322 293.578 96.23C293.51 96.298 293.51 96.298 293.442 96.3659C293.171 96.7054 292.967 97.045 292.763 97.3167C292.356 97.9958 292.084 98.607 291.948 99.0145C291.677 99.354 291.405 99.8294 291.201 100.237C291.066 100.373 291.066 100.576 290.93 100.712C290.862 100.916 290.794 101.12 290.658 101.324V101.391C289.504 105.67 290.251 111.782 294.732 118.981C296.43 121.629 297.516 125.568 297.991 130.051C298.67 137.385 297.855 146.078 294.868 153.684C294.732 154.024 294.596 154.431 294.393 154.771C294.325 154.975 294.257 155.11 294.189 155.314C292.559 159.049 290.387 162.513 287.535 165.229C287.467 165.297 287.399 165.365 287.331 165.433C286.245 166.452 285.227 167.267 284.004 168.082C276.807 172.7 271.375 177.318 267.437 181.325C267.166 181.596 266.894 181.868 266.623 182.14C262.617 186.214 260.512 189.271 259.833 190.153C258.135 192.53 256.845 194.907 255.759 197.081C255.623 197.352 255.487 197.624 255.352 197.895C255.216 198.031 255.216 198.167 255.08 198.303C255.08 198.439 254.944 198.575 254.809 198.71C254.673 198.846 254.469 198.982 254.333 199.118C253.79 199.525 253.111 199.729 252.5 199.729C251.821 199.729 251.21 199.457 250.667 199.118C250.531 198.982 250.327 198.846 250.191 198.71C250.056 198.575 249.92 198.439 249.92 198.303C249.784 198.167 249.784 198.031 249.648 197.895C249.513 197.624 249.377 197.352 249.241 197.081C248.155 194.975 246.865 192.598 245.167 190.153C244.488 189.203 242.383 186.214 238.377 182.14C238.106 181.868 237.834 181.596 237.563 181.325C233.625 177.386 228.125 172.768 220.996 168.082C219.773 167.267 218.755 166.452 217.669 165.433C217.601 165.365 217.533 165.297 217.465 165.229C214.613 162.513 212.441 159.049 210.811 155.314C210.743 155.11 210.675 154.975 210.607 154.771C210.472 154.431 210.268 154.024 210.132 153.684C207.145 146.078 206.33 137.385 207.009 130.051C207.416 125.568 208.57 121.629 210.268 118.981C214.681 111.782 215.496 105.67 214.342 101.391V101.324C214.274 101.12 214.206 100.916 214.07 100.712C214.002 100.576 213.934 100.373 213.798 100.237C213.595 99.7615 213.323 99.354 213.052 99.0145C212.916 98.607 212.644 97.9958 212.237 97.3167C212.033 97.045 211.829 96.7054 211.558 96.3659C211.558 96.298 211.49 96.298 211.422 96.23C210.064 94.5322 207.62 92.9023 203.682 93.5815C203.41 93.6494 203.207 93.7173 202.935 93.7173C201.373 94.1248 197.843 97.9958 196.96 98.607L196.756 98.4712C196.96 97.5883 198.793 94.3285 200.083 93.174C202.392 91.2724 205.108 90.3216 207.891 90.3216C210.947 90.3216 213.934 91.5441 216.175 93.7852C217.261 94.8039 218.212 96.0942 218.891 97.5204C219.094 97.86 219.23 98.1995 219.366 98.4033C219.434 98.5391 219.502 98.6749 219.502 98.7428C222.354 105.534 220.928 114.499 215.496 123.259C211.218 130.186 211.897 150.357 220.52 160.543L220.86 160.883C221.946 162.105 223.168 163.192 224.526 164.007C230.298 167.742 235.594 171.885 240.346 176.299C240.686 176.639 241.025 176.978 241.365 177.25L241.772 177.657V177.725H241.84C241.976 177.861 242.18 178.065 242.315 178.201L242.655 178.54C247.408 183.362 249.716 186.69 250.327 187.573C250.667 188.048 250.938 188.456 251.278 188.931C251.482 189.271 251.753 189.542 252.093 189.678C252.228 189.746 252.364 189.814 252.5 189.814C252.636 189.814 252.772 189.746 252.907 189.678C253.247 189.542 253.518 189.271 253.722 188.931C253.994 188.456 254.333 188.048 254.673 187.573C255.284 186.69 257.524 183.362 262.345 178.54L262.685 178.201C262.82 178.065 263.024 177.861 263.16 177.725H263.228V177.657L263.635 177.25C263.975 176.91 264.314 176.639 264.654 176.299C269.406 171.885 274.702 167.742 280.474 164.007C281.764 163.192 282.986 162.105 284.14 160.883L284.48 160.543C293.171 150.289 293.782 130.119 289.504 123.259C284.072 114.431 282.646 105.534 285.498 98.7428C285.566 98.607 285.566 98.4712 285.634 98.4033C285.702 98.1995 285.906 97.86 286.109 97.5204C286.856 96.0942 287.807 94.8718 288.825 93.7852C291.066 91.5441 294.053 90.3216 297.109 90.3216C299.892 90.3216 302.608 91.3403 304.917 93.174C306.207 94.2606 308.04 97.5883 308.244 98.4712L308.04 98.607Z" fill="#FFF1E7"/>
<path d="M316.188 130.121C316.324 121.699 310.824 104.517 308.108 98.7449C308.176 98.7449 308.244 98.7449 308.312 98.677H308.108C308.108 98.677 308.108 98.677 308.04 98.677C307.09 97.9979 303.627 94.2627 302.065 93.8552C301.794 93.7873 301.59 93.7194 301.318 93.7194C297.38 93.0402 295.004 94.6701 293.578 96.3679C293.51 96.4359 293.51 96.4359 293.442 96.5038C293.171 96.8433 292.967 97.1829 292.763 97.4546C292.492 97.9299 292.288 98.3374 292.084 98.7449C292.016 98.8807 291.949 99.0845 291.949 99.1524C291.677 99.4919 291.405 99.9673 291.202 100.375C291.066 100.511 291.066 100.714 290.93 100.85C290.862 101.054 290.794 101.258 290.659 101.461V101.529C289.504 105.808 290.251 111.92 294.732 119.119C296.43 121.767 297.516 125.706 297.991 130.189C298.67 137.523 297.856 146.216 294.868 153.822C294.732 154.162 294.597 154.569 294.393 154.909C294.325 155.113 294.257 155.248 294.189 155.452C292.56 159.187 290.387 162.651 287.535 165.367C287.467 165.435 287.399 165.503 287.332 165.571C286.245 166.59 285.227 167.405 284.005 168.22C276.807 172.838 271.376 177.456 267.438 181.463C267.166 181.734 266.894 182.006 266.623 182.278C262.617 186.352 260.512 189.408 259.833 190.291C258.136 192.668 256.846 195.045 255.759 197.218C255.623 197.49 255.488 197.762 255.352 198.033C255.216 198.169 255.216 198.305 255.08 198.441C255.08 198.577 254.944 198.713 254.809 198.848C254.673 198.984 254.469 199.12 254.333 199.256C253.79 199.663 253.111 199.867 252.5 199.867C251.821 199.867 251.21 199.595 250.667 199.256C250.531 199.12 250.327 198.984 250.192 198.848C250.056 198.713 249.92 198.577 249.92 198.441C249.784 198.305 249.784 198.169 249.649 198.033C249.513 197.762 249.377 197.49 249.241 197.218C248.155 195.113 246.865 192.736 245.167 190.291C244.488 189.341 242.383 186.352 238.378 182.278C238.106 182.006 237.834 181.734 237.563 181.463C233.625 177.524 228.125 172.906 220.996 168.22C219.774 167.405 218.755 166.59 217.669 165.571C217.601 165.503 217.533 165.435 217.465 165.367C214.613 162.651 212.441 159.187 210.811 155.452C210.743 155.248 210.675 155.113 210.608 154.909C210.472 154.569 210.268 154.162 210.132 153.822C207.145 146.216 206.33 137.523 207.009 130.189C207.416 125.706 208.571 121.767 210.268 119.119C214.681 111.92 215.496 105.808 214.342 101.529V101.461C214.274 101.258 214.206 101.054 214.07 100.85C214.002 100.714 213.934 100.511 213.799 100.375C213.595 99.8994 213.323 99.4919 213.052 99.1524C212.984 99.0165 212.916 98.8807 212.916 98.7449C212.78 98.4053 212.577 97.9299 212.237 97.4546C212.033 97.1829 211.83 96.8433 211.558 96.5038C211.558 96.4359 211.49 96.4359 211.422 96.3679C210.064 94.6701 207.62 93.0402 203.682 93.7194C203.41 93.7873 203.207 93.8552 202.935 93.8552C201.373 94.2627 197.911 97.9979 196.96 98.677C196.96 98.677 196.96 98.677 196.892 98.677H196.689C196.756 98.7449 196.824 98.8128 196.892 98.7449C194.108 104.585 188.677 121.699 188.812 130.121C187.387 149.408 194.041 172.634 211.354 183.568C224.187 191.717 230.094 200.275 230.23 200.478C231.384 202.176 232.47 204.146 233.489 206.115C237.02 213.246 244.285 217.796 252.161 218.068C252.229 218.068 252.364 218.068 252.432 218.068H252.568C252.636 218.068 252.636 218.068 252.704 218.068C252.84 218.068 252.908 218.068 252.975 218.068C260.852 217.796 268.117 213.246 271.647 206.115C272.598 204.146 273.752 202.176 274.906 200.478C275.042 200.342 280.949 191.785 293.782 183.568C311.028 172.566 317.614 149.408 316.188 130.121ZM202.052 99.2882C202.052 99.2203 202.12 99.1524 202.188 99.1524C202.12 99.2203 202.052 99.2882 202.052 99.2882ZM302.812 99.2203C302.88 99.2203 302.948 99.2203 302.948 99.3561C302.88 99.2882 302.88 99.2203 302.812 99.2203Z" fill="#FFF1E7"/>
</g>
<path d="M134.311 139.026C133.184 133.255 131.354 127.061 128.679 120.444C128.538 124.104 127.834 127.342 126.708 130.158C125.582 132.973 124.315 135.507 122.625 137.619C120.936 139.871 119.106 141.701 116.994 143.25C115.023 144.798 112.911 146.065 110.799 147.191C105.872 149.725 100.099 151.414 93.9048 152.118C90.8074 152.118 88.2733 151.978 86.0207 151.555C83.7681 151.133 81.3747 150.429 78.6998 149.444C76.0248 148.458 73.6315 146.91 71.2381 144.798C68.8447 142.827 66.8737 140.012 65.1843 136.774C63.4948 133.396 62.5093 129.313 62.087 124.245C76.4472 124.245 88.2733 122.556 97.5652 119.177C106.857 115.799 114.319 111.294 119.81 105.804C125.3 100.173 129.101 93.8383 131.354 86.5181C133.607 79.3387 134.592 71.8778 134.592 64.276C134.592 57.2374 133.325 51.3249 130.932 46.5386C128.538 41.7524 125.159 37.8107 121.077 34.7137C116.994 31.6167 112.207 29.5051 106.716 28.0974C101.226 26.8304 95.5942 26.1266 89.6812 26.1266C81.3747 26.1266 73.2091 27.2527 65.3251 29.6459C63.2133 28.8012 61.2422 27.3935 59.5528 26.1266C56.5963 24.015 53.9213 21.6218 51.528 18.9471C48.9938 16.1317 46.3188 12.6124 42.5176 13.0347C39.2795 13.457 37.1677 16.8356 36.7453 20.0733C36.6046 21.7626 36.6046 23.4519 37.1677 25.0004C38.0124 27.5343 40.1242 29.5051 42.3768 30.6313C44.7702 31.8983 47.3043 32.3206 49.9793 32.7429C51.8095 32.8837 53.6398 33.0244 55.47 33.0244C44.7702 37.6699 35.1967 44.427 27.0311 53.2957C18.7246 62.1644 12.2484 73.1447 7.32091 86.3774C2.39337 99.4692 0 114.532 0 131.425C0 147.05 1.97101 160.424 5.91304 171.404C9.85507 182.384 15.0642 191.253 21.6812 198.151C28.2981 205.049 35.7598 209.976 44.207 213.214C52.6542 216.311 61.5238 218 70.6749 218C79.9669 218 88.6956 216.452 96.7205 213.354C104.745 210.257 111.644 205.894 117.416 200.263C123.188 194.632 127.834 188.015 131.072 180.414C134.311 172.671 136 164.366 136 155.215C136 150.147 135.437 144.798 134.311 139.026ZM63.7764 88.7705C65.0435 85.1104 66.5921 81.7319 68.5631 78.6349C70.5342 75.5379 72.9275 73.0039 75.7433 71.0331C78.559 69.0623 81.6563 67.9361 85.3168 67.9361C87.8509 67.9361 89.9627 68.64 91.5114 70.0477C93.2008 71.4554 93.9048 73.2855 93.9048 75.6786C93.9048 79.3387 92.7785 82.5765 90.5259 85.392C88.2733 88.2074 85.4576 90.6005 82.0787 92.5714C78.6998 94.5422 75.1801 95.9499 71.3789 97.0761C67.5776 98.2023 64.3395 98.7654 61.5238 98.7654C61.8054 95.8092 62.5093 92.4306 63.7764 88.7705Z" fill="#FFF1E7"/>
<path d="M505.714 61.2287C505.714 68.9883 504.571 76.6041 502.429 83.9326C500.143 91.261 496.286 97.871 490.714 103.619C485.143 109.367 477.571 113.965 468.143 117.27C458.714 120.575 446.714 122.443 432.143 122.443C432.571 127.472 433.571 131.783 435.286 135.232C437 138.68 439 141.411 441.429 143.422C443.857 145.434 446.286 147.015 449 148.164C451.714 149.17 454.143 149.889 456.429 150.32C458.714 150.751 461.429 150.894 464.429 150.894C470.857 150.176 476.571 148.452 481.571 145.865C483.714 144.859 485.857 143.566 487.857 141.842C489.857 140.261 491.857 138.249 493.571 136.094C495.286 133.795 496.714 131.352 497.714 128.478C498.857 125.604 499.429 122.299 499.714 118.563C502.429 125.317 504.286 131.639 505.429 137.531C506.571 143.422 507 148.883 507 153.912C507 163.252 505.286 171.874 502 179.633C498.714 187.537 494 194.29 488.143 199.894C482.286 205.642 475.286 210.097 467.143 213.258C459 216.419 450.286 218 440.714 218C431.429 218 422.429 216.419 413.857 213.114C405.286 209.953 397.571 204.78 391 197.739C384.286 190.698 379 181.645 375 170.437C371 159.229 369 145.578 369 129.628C369 112.24 371.429 96.8651 376.429 83.5015C381.429 70.1378 388 58.9296 396.429 49.7331C404.857 40.6804 414.429 33.783 425.429 29.0411C436.429 24.2991 448 22 460 22C466 22 471.714 22.7185 477.286 24.0117C482.857 25.305 487.714 27.6041 491.857 30.7654C496 33.9267 499.429 37.9501 501.857 42.8358C504.571 48.0088 505.714 54.1877 505.714 61.2287ZM431.571 96.7214C434.429 96.5777 437.857 96.0029 441.571 94.9971C445.429 93.8475 449 92.4106 452.429 90.3988C455.857 88.3871 458.714 85.9443 461 83.0704C463.286 80.1965 464.429 76.8915 464.429 73.1554C464.429 70.7126 463.571 68.8446 462 67.4076C460.286 65.9707 458.286 65.2522 455.714 65.2522C452.143 65.2522 448.857 66.2581 446 68.4135C443.143 70.4252 440.714 73.1554 438.714 76.173C436.714 79.1906 435.143 82.783 433.857 86.5191C432.571 90.2551 431.857 93.5601 431.571 96.7214Z" fill="#FFF1E7"/>
<defs>
<clipPath id="clip0">
<rect width="217" height="218" fill="white" transform="translate(144)"/>
</clipPath>
</defs>
</svg>
