<svg xmlns="http://www.w3.org/2000/svg" viewBox="0 0 359.2 154.4"><defs><style>.cls-1{fill:#00664a;}.cls-2{fill:#1d1d1b;}.cls-3{fill:#ff9780;}</style></defs><title>Fichier 2</title><g id="Calque_2" data-name="Calque 2"><g id="Calque_4" data-name="Calque 4"><path class="cls-1" d="M256.64,87.89c0,.62-.86,1.2-2.74,1.29-5.28.26-18.27-3.37-39.34-21-5-4.15-12.17,3.72-4.72,15.89,4.48,7.32,3.23,27.82-7.7,34.77S185.87,133.22,185,134.52a48.68,48.68,0,0,0-3.21,5.51,2.43,2.43,0,0,1-2.13,1.36h-.1a2.42,2.42,0,0,1-2.12-1.36,50.24,50.24,0,0,0-3.21-5.51c-.88-1.3-6.23-8.7-17.15-15.65s-12.18-27.45-7.7-34.77c7.45-12.17.25-20-4.72-15.89-21.07,17.6-34.06,21.23-39.35,21-1.87-.09-2.73-.67-2.73-1.29,0-1,3-4.66,3.51-6.53,2.42-8.09-1.26-8.54,2.17-31.83,8.51-57.64,55.22-51.67,61.1-46.2,3.93,3.66,4.57,22.33,10.21,22.53h.09c5.64-.2,6.28-18.87,10.21-22.53,5.87-5.47,52.59-11.44,61.1,46.2,3.43,23.29-.25,23.74,2.16,31.83C253.68,83.23,256.64,86.86,256.64,87.89Z"/><path class="cls-2" d="M142.68,69.74a12.19,12.19,0,0,1,1.86-1.53C143.91,68.73,143.29,69.25,142.68,69.74Z"/><path class="cls-2" d="M177.33,140a2.67,2.67,0,0,0,.42.6,2.42,2.42,0,0,1-.43-.6,48.68,48.68,0,0,0-3.21-5.51,46.68,46.68,0,0,0-5.35-6.26,45.63,45.63,0,0,1,5.36,6.26A48.68,48.68,0,0,1,177.33,140Z"/><path class="cls-3" d="M209.11,129.84c-9.13,5.81-13.31,11.9-13.36,12a37,37,0,0,0-2.35,4.05,15.49,15.49,0,0,1-27.69,0,35.11,35.11,0,0,0-2.34-4c-.06-.09-4.24-6.18-13.38-12C137.69,122,133,105.51,134,92c0,0,1.66-15.3,8.66-22.19t0,0a12.19,12.19,0,0,1,1.86-1.53c.45-.3.89-.57,1.31-.8l.1,0c4.76-1.82,10.08,5.69,3.31,16.74-4.12,6.72-3.4,24.57,5.22,32.82,0,0,0,0,0,0,.38.36.78.71,1.18,1h0c.41.32.84.62,1.28.91h0a69.7,69.7,0,0,1,11.79,9.39,45.63,45.63,0,0,1,5.36,6.26,48.68,48.68,0,0,1,3.21,5.51,2.67,2.67,0,0,0,.42.6,2.51,2.51,0,0,0,3.61,0,3.11,3.11,0,0,0,.23-.28,3.37,3.37,0,0,0,.19-.32l.33-.64a46.19,46.19,0,0,1,2.87-4.87,45.63,45.63,0,0,1,5.36-6.26,69.92,69.92,0,0,1,11.8-9.39,16.13,16.13,0,0,0,2.48-2,23,23,0,0,0,5.25-8.22A37.71,37.71,0,0,0,212.09,92a19.27,19.27,0,0,0-2.26-7.85c-7.45-12.17-.25-20,4.72-15.89l0,0a15.67,15.67,0,0,1,1.53,1.27l.09.08c3,2.83,9.14,10.07,8.91,22.37C226.13,105.51,221.42,122,209.11,129.84Z"/><path class="cls-3" d="M358.23,39.83a54.45,54.45,0,0,1-2.33,15.83,32.83,32.83,0,0,1-8.19,13.65q-5.85,6-15.76,9.54t-25.2,3.58A24.08,24.08,0,0,0,309,91.31a18.39,18.39,0,0,0,4.28,5.75,17.85,17.85,0,0,0,5.31,3.25,29.5,29.5,0,0,0,5.2,1.52,31.89,31.89,0,0,0,5.64.43,34.65,34.65,0,0,0,12-3.47A23.91,23.91,0,0,0,345.87,96a21.82,21.82,0,0,0,4-4,20.89,20.89,0,0,0,2.92-5.31,23,23,0,0,0,1.36-6.88A69.39,69.39,0,0,1,358.06,93a62.81,62.81,0,0,1,1.14,11.44,44.9,44.9,0,0,1-3.52,17.94,43.1,43.1,0,0,1-9.7,14.14,43.58,43.58,0,0,1-14.69,9.26,50.43,50.43,0,0,1-18.47,3.31A53.59,53.59,0,0,1,294,145.72a42.5,42.5,0,0,1-16-10.67q-7-7.32-11.16-19t-4.17-28.39q0-18.1,5.2-32.08a70,70,0,0,1,14-23.46,59.05,59.05,0,0,1,20.32-14.42,61,61,0,0,1,24.22-4.93,51,51,0,0,1,12.09,1.41,28.07,28.07,0,0,1,10.19,4.66,23.55,23.55,0,0,1,7,8.4A27.82,27.82,0,0,1,358.23,39.83ZM306.31,64.54a30,30,0,0,0,7.05-1.24A33.84,33.84,0,0,0,321,60.1,21.26,21.26,0,0,0,327,55a10.75,10.75,0,0,0,2.44-6.94,5.06,5.06,0,0,0-1.74-4,6.48,6.48,0,0,0-4.44-1.52,11.23,11.23,0,0,0-6.77,2.17,20.33,20.33,0,0,0-5.1,5.42,31.22,31.22,0,0,0-3.41,7.15A33.38,33.38,0,0,0,306.31,64.54Z"/><path class="cls-3" d="M95.43,93a70.2,70.2,0,0,0-4-13.16,22.65,22.65,0,0,1-1.35,6.88A20.91,20.91,0,0,1,87.19,92a22.09,22.09,0,0,1-4,4,24.31,24.31,0,0,1-4.45,2.76,34.65,34.65,0,0,1-12,3.47,31.69,31.69,0,0,1-5.63-.43,29.58,29.58,0,0,1-5.21-1.52,17.85,17.85,0,0,1-5.31-3.25,18.39,18.39,0,0,1-4.28-5.75,24.28,24.28,0,0,1-2.22-8.88q15.28,0,25.2-3.58t15.77-9.54a32.8,32.8,0,0,0,8.18-13.65,54.45,54.45,0,0,0,2.33-15.83A27.82,27.82,0,0,0,93,27.21a23.35,23.35,0,0,0-7-8.4,28,28,0,0,0-10.19-4.66,50.9,50.9,0,0,0-12.08-1.41,61.48,61.48,0,0,0-17.26,2.45,21.11,21.11,0,0,1-4.12-2.49,37.44,37.44,0,0,1-5.71-5.1c-1.76-2-3.73-4.48-6.36-4.18-2.32.27-3.8,2.72-4.14,5a7.7,7.7,0,0,0,.26,3.6,7.55,7.55,0,0,0,3.71,4,15.41,15.41,0,0,0,5.39,1.45,33.51,33.51,0,0,0,3.88.21,59,59,0,0,0-20.2,14.36,70,70,0,0,0-14,23.46Q0,69.53,0,87.63,0,104.33,4.17,116t11.17,19a42.43,42.43,0,0,0,16,10.67,53.57,53.57,0,0,0,18.8,3.36,50.45,50.45,0,0,0,18.48-3.31,43.54,43.54,0,0,0,14.68-9.26A43,43,0,0,0,93,122.37a44.9,44.9,0,0,0,3.53-17.94A62.81,62.81,0,0,0,95.43,93ZM45.3,57.28a31.25,31.25,0,0,1,3.42-7.15,20.29,20.29,0,0,1,5.09-5.42,11.25,11.25,0,0,1,6.77-2.17A6.53,6.53,0,0,1,65,44.06a5.08,5.08,0,0,1,1.73,4A10.75,10.75,0,0,1,64.32,55a21.12,21.12,0,0,1-6,5.09,33.84,33.84,0,0,1-7.59,3.2,30,30,0,0,1-7,1.24A33.32,33.32,0,0,1,45.3,57.28Z"/></g></g></svg>