<svg width="22" height="28" viewBox="0 0 22 28" fill="none" xmlns="http://www.w3.org/2000/svg">
<circle cx="11" cy="17" r="11" fill="#FF322E"/>
<path d="M8.36776 18.2367L8.41 18.2702L8.45559 18.299C8.73866 18.4775 9.06445 18.5635 9.35353 18.6113C9.65641 18.6613 10.0007 18.6818 10.3736 18.6818H10.6374C10.9991 18.6818 11.335 18.6614 11.6284 18.6092C11.8996 18.561 12.2449 18.4677 12.5336 18.2452C13.0207 17.8697 13.2207 17.3025 13.3048 16.8022L13.3085 16.7802L13.3113 16.758L14.9926 3.03639L15 2.97581V2.91477C15 2.10571 14.4568 1.60912 13.9058 1.35962C13.378 1.09081 12.7436 1 12.0879 1H10.5714C9.87568 1 9.19621 1.08947 8.65763 1.38395C8.37328 1.53942 8.11164 1.7614 7.92501 2.06753C7.73707 2.37581 7.65934 2.71356 7.65934 3.04545V16.6364C7.65934 17.2066 7.83682 17.8158 8.36776 18.2367ZM7 23.9545C7 24.2864 7.07773 24.6242 7.26567 24.9325C7.4523 25.2386 7.71394 25.4606 7.99829 25.6161C8.53687 25.9105 9.21634 26 9.91209 26H11C11.6958 26 12.3752 25.9105 12.9138 25.6161C13.1981 25.4606 13.4598 25.2386 13.6464 24.9325C13.8344 24.6242 13.9121 24.2864 13.9121 23.9545V20.9489C13.9121 20.617 13.8344 20.2792 13.6464 19.9709C13.4598 19.6648 13.1981 19.4428 12.9138 19.2874C12.3752 18.9929 11.6958 18.9034 11 18.9034H9.91209C9.21634 18.9034 8.53687 18.9929 7.99829 19.2874C7.71394 19.4428 7.4523 19.6648 7.26567 19.9709C7.07773 20.2792 7 20.617 7 20.9489V23.9545Z" fill="white" stroke="#FF322E" stroke-width="2"/>
</svg>
