<svg width="22" height="21" viewBox="0 0 22 21" fill="none" xmlns="http://www.w3.org/2000/svg">
<path d="M20.2925 6.44587H19.154C19.1452 6.43617 19.1371 6.42618 19.1278 6.41691L12.9207 0.20977C12.641 -0.0699234 12.1875 -0.0699234 11.9078 0.20977C11.6281 0.489464 11.6281 0.942937 11.9078 1.22263L17.131 6.44582H4.83261L10.0558 1.22263C10.3355 0.942937 10.3355 0.489464 10.0558 0.20977C9.77619 -0.0699234 9.32268 -0.0699234 9.04298 0.20977L2.83584 6.41691C2.82654 6.42622 2.81839 6.43621 2.80968 6.44587H1.67117C0.749682 6.44587 0 7.19555 0 8.11699V9.07194C0 9.94967 0.680145 10.6715 1.54106 10.7381L2.91379 18.9746C3.08723 20.0149 3.97851 20.77 5.0332 20.77H17.1402C18.2026 20.77 19.117 19.9769 19.2673 18.9252L20.437 10.7369C21.2911 10.6634 21.9636 9.9447 21.9636 9.07194V8.11699C21.9637 7.19555 21.214 6.44587 20.2925 6.44587ZM20.5313 9.07194C20.5313 9.2036 20.4242 9.31067 20.2925 9.31067C20.0727 9.31067 13.4443 9.31067 13.1305 9.31067C12.735 9.31067 12.4143 9.63133 12.4143 10.0269C12.4143 10.4224 12.7349 10.7431 13.1305 10.7431H18.9893L17.8493 18.7227C17.7992 19.0733 17.4945 19.3376 17.1403 19.3376H5.0332C4.68165 19.3376 4.38454 19.0859 4.32671 18.7391L2.99409 10.7431H8.83321C9.22873 10.7431 9.54944 10.4224 9.54944 10.0269C9.54944 9.63137 9.22877 9.31067 8.83321 9.31067C8.51899 9.31067 1.89012 9.31067 1.67117 9.31067C1.53952 9.31067 1.43244 9.20355 1.43244 9.07194V8.11699C1.43244 7.98534 1.53956 7.87827 1.67117 7.87827H20.2925C20.4242 7.87827 20.5313 7.98538 20.5313 8.11699V9.07194Z" fill="#00664A"/>
<path d="M6.07532 12.2412C5.68885 12.3253 5.4437 12.7069 5.52784 13.0934L6.44193 17.2923C6.52606 17.6787 6.9076 17.9239 7.29411 17.8398C7.68062 17.7556 7.92573 17.3741 7.84159 16.9876L6.92749 12.7886C6.84336 12.4022 6.46183 12.1571 6.07532 12.2412Z" fill="#00664A"/>
<path d="M10.9838 12.176C10.5883 12.176 10.2676 12.4967 10.2676 12.8922V17.1895C10.2676 17.585 10.5882 17.9057 10.9838 17.9057C11.3793 17.9057 11.7 17.5851 11.7 17.1895V12.8922C11.7 12.4967 11.3793 12.176 10.9838 12.176Z" fill="#00664A"/>
<path d="M15.7354 12.2121C15.3449 12.1492 14.9773 12.4147 14.9144 12.8052L14.2307 17.0478C14.1678 17.4382 14.4334 17.8059 14.8239 17.8688C15.2144 17.9317 15.582 17.6662 15.6449 17.2756L16.3286 13.0331C16.3915 12.6426 16.1259 12.275 15.7354 12.2121Z" fill="#00664A"/>
</svg>
