<svg width="15" height="20" viewBox="0 0 15 20" fill="none" xmlns="http://www.w3.org/2000/svg">
<path d="M2.6602 17.0625C2.6602 16.2083 2.94081 15.5104 3.50203 14.9687C4.0857 14.4062 4.88264 14.125 5.89284 14.125C6.90304 14.125 7.68875 14.4062 8.24998 14.9687C8.83365 15.5104 9.12548 16.2083 9.12548 17.0625C9.12548 17.9167 8.83365 18.625 8.24998 19.1875C7.68875 19.7292 6.90304 20 5.89284 20C4.88264 20 4.0857 19.7292 3.50203 19.1875C2.94081 18.625 2.6602 17.9167 2.6602 17.0625ZM3.77142 12.9688C3.38979 12.7813 3.0306 12.4479 2.69387 11.9688C2.35714 11.4688 2.18877 10.8854 2.18877 10.2188C2.18877 9.57292 2.36836 9.09375 2.72754 8.78125C3.10917 8.44792 3.65917 8.19792 4.37754 8.03125L7.00406 7.4375C8.12651 7.16667 8.68773 6.66667 8.68773 5.9375C8.68773 5.54167 8.47446 5.19792 8.04794 4.90625C7.64385 4.61458 6.93671 4.46875 5.92651 4.46875C5.00611 4.46875 4.14182 4.58333 3.33366 4.8125C2.5255 5.02083 1.87448 5.27083 1.38061 5.5625C0.998977 5.29167 0.673467 4.96875 0.40408 4.59375C0.134693 4.19792 0 3.72917 0 3.1875C0 2.64583 0.168367 2.17708 0.505101 1.78125C0.841834 1.36458 1.30204 1.03125 1.88571 0.781249C2.49183 0.510417 3.19897 0.3125 4.00713 0.187499C4.83774 0.0624998 5.74692 0 6.73467 0C9.38365 0 11.3816 0.552083 12.7285 1.65625C14.0979 2.73958 14.7826 4.16667 14.7826 5.9375C14.7826 9.27083 12.2459 11.4063 7.17243 12.3438L3.77142 12.9688Z" fill="#00664A"/>
</svg>
