<svg width="30" height="30" viewBox="0 0 30 30" fill="none" xmlns="http://www.w3.org/2000/svg">
<path d="M27.0692 15.1458H18.9367H9.80656H2.60394C2.24888 15.1458 1.97835 15.4668 2.02908 15.8217L4.21016 29.7634C4.22707 29.8986 4.34542 30 4.48068 30H25.277C25.3953 30 25.4799 29.9155 25.4968 29.8141L27.5595 15.7372C27.6102 15.4161 27.3735 15.1458 27.0692 15.1458ZM8.14961 27.9214C8.09889 27.9214 8.04818 27.9383 8.01436 27.9383C7.57477 27.9383 7.20279 27.6172 7.13516 27.1778L5.78255 18.4411C5.69801 17.951 6.03617 17.4947 6.52649 17.4102C7.01681 17.3426 7.47331 17.6637 7.55785 18.1538L8.91045 26.8905C8.97808 27.3806 8.63993 27.8369 8.14961 27.9214ZM15.7749 27.0257C15.7749 27.5496 15.3353 27.9721 14.7943 27.9214C14.3209 27.8876 13.9827 27.4482 13.9827 26.975V18.289C13.9827 17.8158 14.3209 17.3933 14.7943 17.3426C15.3184 17.2919 15.7749 17.7144 15.7749 18.2383V27.0257ZM23.9751 18.4411L22.6225 27.1778C22.5549 27.6172 22.166 27.9383 21.7433 27.9383C21.6926 27.9383 21.6588 27.9383 21.6081 27.9214C21.1177 27.8538 20.7796 27.3806 20.8641 26.9074L22.2167 18.1707C22.2844 17.6806 22.7409 17.3426 23.2312 17.4271C23.7046 17.4778 24.0427 17.951 23.9751 18.4411Z" fill="#00664A"/>
<path d="M28.5738 8.6227H25.8686L17.3979 0.24081C17.0597 -0.0802701 16.5356 -0.0802701 16.1975 0.24081C15.8762 0.57879 15.8762 1.10266 16.1975 1.44064L23.4508 8.6058H5.83311L12.9174 1.60963C13.2555 1.28855 13.2555 0.747779 12.9174 0.4098C12.5961 0.0718206 12.0551 0.0718206 11.717 0.4098L3.41532 8.6227H1.01445C0.456504 8.6227 0 9.07897 0 9.63664V12.2729C0 12.8305 0.456504 13.2868 1.01445 13.2868H28.5738C29.1317 13.2868 29.5882 12.8305 29.5882 12.2729V9.63664C29.5882 9.07897 29.1317 8.6227 28.5738 8.6227Z" fill="#00664A"/>
</svg>
