<svg width="21" height="18" viewBox="0 0 21 18" fill="none" xmlns="http://www.w3.org/2000/svg">
<path d="M14.808 0.141602C13.721 0.141602 12.7244 0.486062 11.8459 1.16544C11.0037 1.81676 10.443 2.64634 10.1129 3.24958C9.78283 2.6463 9.22212 1.81676 8.37994 1.16544C7.5015 0.486062 6.50489 0.141602 5.41787 0.141602C2.38439 0.141602 0.0968018 2.62282 0.0968018 5.91316C0.0968018 9.46787 2.95073 11.9 7.27121 15.5818C8.00489 16.207 8.8365 16.9158 9.70086 17.6716C9.81479 17.7714 9.96112 17.8263 10.1129 17.8263C10.2647 17.8263 10.4111 17.7714 10.525 17.6717C11.3894 16.9157 12.221 16.207 12.9551 15.5814C17.2751 11.9 20.1291 9.46787 20.1291 5.91316C20.1291 2.62282 17.8415 0.141602 14.808 0.141602Z" fill="#FF9780"/>
</svg>
