<svg width="21" height="18" viewBox="0 0 21 18" fill="none" xmlns="http://www.w3.org/2000/svg">
<path d="M14.7112 0.141602C13.6242 0.141602 12.6276 0.486062 11.7491 1.16544C10.9069 1.81676 10.3462 2.64634 10.0161 3.24958C9.68603 2.6463 9.12532 1.81676 8.28314 1.16544C7.4047 0.486062 6.40809 0.141602 5.32107 0.141602C2.28759 0.141602 0 2.62282 0 5.91316C0 9.46787 2.85393 11.9 7.17441 15.5818C7.90809 16.207 8.7397 16.9158 9.60406 17.6716C9.71799 17.7714 9.86432 17.8263 10.0161 17.8263C10.1679 17.8263 10.3143 17.7714 10.4282 17.6717C11.2926 16.9157 12.1242 16.207 12.8583 15.5814C17.1783 11.9 20.0323 9.46787 20.0323 5.91316C20.0323 2.62282 17.7447 0.141602 14.7112 0.141602Z" fill="#FF9780"/>
</svg>
