<svg width="21" height="18" viewBox="0 0 21 18" fill="none" xmlns="http://www.w3.org/2000/svg">
<path d="M14.8402 0.141602C13.7532 0.141602 12.7566 0.486062 11.8781 1.16544C11.036 1.81676 10.4753 2.64634 10.1452 3.24958C9.81506 2.6463 9.25435 1.81676 8.41217 1.16544C7.53373 0.486062 6.53712 0.141602 5.4501 0.141602C2.41662 0.141602 0.129028 2.62282 0.129028 5.91316C0.129028 9.46787 2.98296 11.9 7.30343 15.5818C8.03711 16.207 8.86873 16.9158 9.73309 17.6716C9.84702 17.7714 9.99335 17.8263 10.1452 17.8263C10.297 17.8263 10.4433 17.7714 10.5572 17.6717C11.4217 16.9157 12.2532 16.207 12.9874 15.5814C17.3074 11.9 20.1613 9.46787 20.1613 5.91316C20.1613 2.62282 17.8737 0.141602 14.8402 0.141602Z" fill="#FFF1E7"/>
</svg>
