<svg xmlns="http://www.w3.org/2000/svg" viewBox="0 0 31.85 32"><defs><style>.cls-1{fill:#00664a;}.cls-2{fill:#ff9780;}</style></defs><title>Fichier 2</title><g id="Calque_2" data-name="Calque 2"><g id="Calque_2-2" data-name="Calque 2"><path class="cls-1" d="M31.13,16.79c-.5-1.67.25-1.75-.45-6.57C28.92-1.67,19.27-.45,18.05.69c-.67.63-.88,3.37-1.59,4.33a.68.68,0,0,1-.52.33h0A.68.68,0,0,1,15.39,5c-.7-1-.92-3.7-1.58-4.33C12.59-.45,2.94-1.67,1.18,10.22c-.7,4.82,0,4.9-.46,6.57C.62,17.18,0,18,0,18.15s.19.25.56.27A12.78,12.78,0,0,0,6,16.11H6L6.1,16,6,16.1l1.7-1.63s0,0,0,0a14.85,14.85,0,0,0-1.19,4.61c-.21,2.83.77,6.24,3.31,7.85a10.28,10.28,0,0,1,2.77,2.47,8.18,8.18,0,0,1,.47.83A3.21,3.21,0,0,0,15.87,32h.06s0,0,0,0H16a3.2,3.2,0,0,0,2.74-1.75,6.67,6.67,0,0,1,.48-.83A10.28,10.28,0,0,1,22,26.94c2.54-1.61,3.51-5,3.3-7.85a14.85,14.85,0,0,0-1.19-4.61,0,0,0,0,0,0,0l1.7,1.63L25.75,16l.09.07h0a12.73,12.73,0,0,0,5.46,2.31c.37,0,.55-.14.55-.27S31.23,17.18,31.13,16.79ZM8.52,14.57l0,0Zm14.8,0v0Zm.77-.07c-.13-.09-.65-.66-.88-.72h0l-.1,0a1.12,1.12,0,0,0-1.14.38,0,0,0,0,1,0,0l-.1.14h0a1.74,1.74,0,0,0-.12.24h0a.78.78,0,0,0-.11.18.25.25,0,0,0,0,.07l0,.08h0a3.36,3.36,0,0,0,.59,2.58,3.88,3.88,0,0,1,.48,1.63,7.8,7.8,0,0,1-.46,3.47l-.06.16,0,.08a4.4,4.4,0,0,1-1,1.45l0,0a3.65,3.65,0,0,1-.49.39,14.48,14.48,0,0,0-2.44,1.94h0l-.12.12a8.89,8.89,0,0,0-1,1.18,8.07,8.07,0,0,0-.6,1,.75.75,0,0,0-.07.12s0,0,0,.07a.15.15,0,0,1,0,.06l-.07.06a.54.54,0,0,1-.27.09.58.58,0,0,1-.28-.09l-.07-.06a.15.15,0,0,1,0-.06s0-.05,0-.07l-.06-.12a9.5,9.5,0,0,0-.6-1,9.36,9.36,0,0,0-1-1.18,1.36,1.36,0,0,0-.12-.12h0a14.08,14.08,0,0,0-2.44-1.94,3.56,3.56,0,0,1-.48-.39l0,0a4.42,4.42,0,0,1-1-1.45l0-.08a1.11,1.11,0,0,1-.07-.16,7.79,7.79,0,0,1-.45-3.47,3.75,3.75,0,0,1,.47-1.63,3.33,3.33,0,0,0,.6-2.58h0a.59.59,0,0,1,0-.08l0-.07a1.42,1.42,0,0,0-.11-.18h0a1.74,1.74,0,0,0-.12-.24h0l-.1-.14v0a1.1,1.1,0,0,0-1.13-.38l-.11,0h0c-.23.06-.75.63-.88.72l0,0a2.34,2.34,0,0,1,.49-.77h0a1.75,1.75,0,0,1,2.36.08,2,2,0,0,1,.4.55l.07.13s0,0,0,.06a4,4,0,0,1-.59,3.6,5.91,5.91,0,0,0,.74,5.47l0,.06a2.54,2.54,0,0,0,.53.46,16.94,16.94,0,0,1,2.33,1.8l.14.15.07.06h0l.07.07.05,0a8.21,8.21,0,0,1,1.12,1.33c.05.06.09.13.14.2a.29.29,0,0,0,.12.1l.06,0,.06,0a.38.38,0,0,0,.12-.1l.13-.2a8.58,8.58,0,0,1,1.13-1.33l.05,0,.07-.07h0l.06-.06.15-.15A16.26,16.26,0,0,1,20,24.08a2.54,2.54,0,0,0,.53-.46l.05-.06c1.27-1.5,1.37-4.46.74-5.47a4.05,4.05,0,0,1-.59-3.6l0-.06a.69.69,0,0,1,.06-.13,2.25,2.25,0,0,1,.41-.55,1.76,1.76,0,0,1,1.22-.5,1.79,1.79,0,0,1,1.14.42h0a2.14,2.14,0,0,1,.48.77Z"/><path class="cls-2" d="M25.28,19.1a14.78,14.78,0,0,0-1.19-4.61h0c-.14-.1-.65-.65-.87-.71h0l-.1,0a1.11,1.11,0,0,0-1.13.39l0,0-.1.14h0l-.1.19s0,0,0,.06h0a1.74,1.74,0,0,0-.11.18l0,.08,0,.08h0a3.37,3.37,0,0,0,.59,2.58,3.88,3.88,0,0,1,.48,1.63,7.82,7.82,0,0,1-.46,3.47l-.06.15,0,.08a4.44,4.44,0,0,1-1,1.46l0,0a3.57,3.57,0,0,1-.49.38,15.45,15.45,0,0,0-2.44,1.94h0l-.12.13a9.11,9.11,0,0,0-1,1.17,8.14,8.14,0,0,0-.6,1,.75.75,0,0,0-.07.12s0,0,0,.06,0,0,0,.06l-.07.06a.46.46,0,0,1-.27.09.49.49,0,0,1-.28-.09l-.06-.06s-.05,0-.05-.06,0,0,0-.06l-.06-.12a8.14,8.14,0,0,0-.6-1,9.61,9.61,0,0,0-1-1.17.71.71,0,0,0-.12-.13h0a14.57,14.57,0,0,0-2.44-1.94,3.48,3.48,0,0,1-.48-.38l0,0a4.47,4.47,0,0,1-1-1.46l0-.08-.07-.15a8,8,0,0,1-.45-3.47,3.75,3.75,0,0,1,.47-1.63,3.34,3.34,0,0,0,.6-2.58h0a.59.59,0,0,0,0-.08l0-.08-.11-.18h0l0-.06a1.54,1.54,0,0,0-.09-.19h0l-.09-.14,0,0a1.12,1.12,0,0,0-1.13-.39l-.11,0h0c-.23.06-.74.61-.88.71h0A15.06,15.06,0,0,0,6.57,19.1c-.2,2.83.77,6.23,3.31,7.84a10.4,10.4,0,0,1,2.77,2.48,8.18,8.18,0,0,1,.47.83A3.21,3.21,0,0,0,15.87,32H16a3.2,3.2,0,0,0,2.74-1.75,6.67,6.67,0,0,1,.48-.83A10.4,10.4,0,0,1,22,26.94C24.52,25.33,25.49,21.93,25.28,19.1ZM8.52,14.58s0,0,0,0Zm14.8,0s0,0,0,0Z"/></g></g></svg>