<svg width="163" height="24" viewBox="0 0 163 24" fill="none" xmlns="http://www.w3.org/2000/svg">
<g clip-path="url(#clip0)">
<path d="M18.5473 1.59839C17.2457 1.59839 16.0524 2.00669 15.0005 2.81196C13.9921 3.58399 13.3207 4.5673 12.9255 5.28233C12.5302 4.56726 11.8588 3.58399 10.8504 2.81196C9.79853 2.00669 8.60519 1.59839 7.30359 1.59839C3.67129 1.59839 0.932129 4.53943 0.932129 8.43954C0.932129 12.653 4.34943 15.5358 9.52277 19.8999C10.4013 20.6411 11.3971 21.4811 12.432 22.3771C12.5685 22.4953 12.7437 22.5605 12.9255 22.5605C13.1072 22.5605 13.2824 22.4953 13.4189 22.3771C14.454 21.481 15.4497 20.641 16.3287 19.8995C21.5015 15.5358 24.9188 12.653 24.9188 8.43954C24.9188 4.53943 22.1796 1.59839 18.5473 1.59839Z" fill="#FF9780"/>
</g>
<g clip-path="url(#clip1)">
<path d="M52.9629 1.59839C51.6613 1.59839 50.4679 2.00669 49.4161 2.81196C48.4076 3.58399 47.7362 4.5673 47.341 5.28233C46.9457 4.56726 46.2743 3.58399 45.2659 2.81196C44.2141 2.00669 43.0207 1.59839 41.7191 1.59839C38.0868 1.59839 35.3477 4.53943 35.3477 8.43953C35.3477 12.653 38.765 15.5358 43.9383 19.8999C44.8168 20.6411 45.8126 21.4811 46.8476 22.3771C46.984 22.4953 47.1592 22.5604 47.341 22.5604C47.5228 22.5604 47.698 22.4953 47.8344 22.3771C48.8695 21.481 49.8652 20.641 50.7442 19.8995C55.917 15.5358 59.3343 12.653 59.3343 8.43953C59.3343 4.53943 56.5951 1.59839 52.9629 1.59839Z" fill="#FF9780"/>
</g>
<g clip-path="url(#clip2)">
<path d="M87.3784 1.59839C86.0768 1.59839 84.8834 2.00669 83.8316 2.81196C82.8232 3.58399 82.1518 4.5673 81.7565 5.28233C81.3612 4.56726 80.6898 3.58399 79.6814 2.81196C78.6296 2.00669 77.4362 1.59839 76.1346 1.59839C72.5023 1.59839 69.7632 4.53943 69.7632 8.43953C69.7632 12.653 73.1805 15.5358 78.3538 19.8999C79.2323 20.6411 80.2281 21.4811 81.2631 22.3771C81.3995 22.4953 81.5747 22.5604 81.7565 22.5604C81.9383 22.5604 82.1135 22.4953 82.2499 22.3771C83.285 21.481 84.2807 20.641 85.1597 19.8995C90.3325 15.5358 93.7498 12.653 93.7498 8.43953C93.7498 4.53943 91.0107 1.59839 87.3784 1.59839Z" fill="#FF9780"/>
</g>
<g clip-path="url(#clip3)">
<path d="M121.793 1.59839C120.492 1.59839 119.298 2.00669 118.247 2.81196C117.238 3.58399 116.567 4.5673 116.172 5.28233C115.776 4.56726 115.105 3.58399 114.096 2.81196C113.045 2.00669 111.851 1.59839 110.55 1.59839C106.917 1.59839 104.178 4.53943 104.178 8.43953C104.178 12.653 107.596 15.5358 112.769 19.8999C113.647 20.6411 114.643 21.4811 115.678 22.3771C115.815 22.4953 115.99 22.5604 116.172 22.5604C116.353 22.5604 116.529 22.4953 116.665 22.3771C117.7 21.481 118.696 20.641 119.575 19.8995C124.748 15.5358 128.165 12.653 128.165 8.43953C128.165 4.53943 125.426 1.59839 121.793 1.59839Z" fill="#FF9780"/>
<path d="M118.246 2.81196C119.298 2.00669 120.492 1.59839 121.793 1.59839C125.426 1.59839 128.165 4.53943 128.165 8.43953C128.165 12.653 124.747 15.5358 119.575 19.8995C118.696 20.641 117.7 21.481 116.665 22.3771C116.528 22.4953 116.353 22.5604 116.171 22.5604V5.28233C116.567 4.5673 117.238 3.58399 118.246 2.81196Z" fill="#FFF1E7"/>
</g>
<g clip-path="url(#clip4)">
<path d="M156.21 1.59839C154.909 1.59839 153.715 2.00669 152.664 2.81196C151.655 3.58399 150.984 4.5673 150.589 5.28233C150.193 4.56726 149.522 3.58399 148.513 2.81196C147.462 2.00669 146.268 1.59839 144.967 1.59839C141.334 1.59839 138.595 4.53943 138.595 8.43953C138.595 12.653 142.013 15.5358 147.186 19.8999C148.064 20.6411 149.06 21.4811 150.095 22.3771C150.232 22.4953 150.407 22.5604 150.589 22.5604C150.77 22.5604 150.946 22.4953 151.082 22.3771C152.117 21.481 153.113 20.641 153.992 19.8995C159.165 15.5358 162.582 12.653 162.582 8.43953C162.582 4.53943 159.843 1.59839 156.21 1.59839Z" fill="#FFF1E7"/>
</g>
<defs>
<clipPath id="clip0">
<rect width="23.9867" height="23.7446" fill="white" transform="translate(0.932129 0.207031)"/>
</clipPath>
<clipPath id="clip1">
<rect width="23.9867" height="23.7446" fill="white" transform="translate(35.3477 0.207031)"/>
</clipPath>
<clipPath id="clip2">
<rect width="23.9866" height="23.7446" fill="white" transform="translate(69.7632 0.207031)"/>
</clipPath>
<clipPath id="clip3">
<rect width="23.9867" height="23.7446" fill="white" transform="translate(104.178 0.207031)"/>
</clipPath>
<clipPath id="clip4">
<rect width="23.9867" height="23.7446" fill="white" transform="translate(138.595 0.207031)"/>
</clipPath>
</defs>
</svg>
