<svg width="249" height="95" viewBox="0 0 249 95" fill="none" xmlns="http://www.w3.org/2000/svg">
<rect width="249" height="95" rx="47.5" fill="#FFFAF6"/>
<path d="M85.286 36C85.094 36 84.956 35.958 84.872 35.874C84.788 35.79 84.746 35.652 84.746 35.46V23.94C84.746 23.748 84.788 23.61 84.872 23.526C84.956 23.442 85.094 23.4 85.286 23.4H91.568C91.7 23.4 91.79 23.442 91.838 23.526C91.898 23.61 91.928 23.748 91.928 23.94V24.228C91.928 24.42 91.898 24.558 91.838 24.642C91.79 24.726 91.7 24.768 91.568 24.768H86.33V28.872H91.028C91.16 28.872 91.25 28.914 91.298 28.998C91.358 29.082 91.388 29.22 91.388 29.412V29.7C91.388 29.892 91.358 30.03 91.298 30.114C91.25 30.198 91.16 30.24 91.028 30.24H86.33V34.632H91.586C91.718 34.632 91.808 34.674 91.856 34.758C91.916 34.842 91.946 34.98 91.946 35.172V35.46C91.946 35.652 91.916 35.79 91.856 35.874C91.808 35.958 91.718 36 91.586 36H85.286ZM87.986 22.284C87.71 22.284 87.572 22.224 87.572 22.104C87.572 22.02 87.656 21.816 87.824 21.492C88.004 21.168 88.268 20.706 88.616 20.106C88.712 19.938 88.85 19.818 89.03 19.746C89.21 19.674 89.444 19.638 89.732 19.638C90.032 19.638 90.248 19.656 90.38 19.692C90.524 19.728 90.596 19.788 90.596 19.872C90.596 19.968 90.506 20.13 90.326 20.358C90.146 20.574 89.672 21.108 88.904 21.96C88.712 22.176 88.406 22.284 87.986 22.284ZM99.6482 36.108C97.6682 36.108 96.2042 35.592 95.2562 34.56C94.3202 33.516 93.8522 31.896 93.8522 29.7C93.8522 25.428 95.7962 23.292 99.6842 23.292C100.272 23.292 100.836 23.358 101.376 23.49C101.928 23.61 102.366 23.76 102.69 23.94C102.978 24.108 103.122 24.264 103.122 24.408C103.122 24.576 103.044 24.792 102.888 25.056C102.744 25.32 102.618 25.452 102.51 25.452C102.474 25.452 102.318 25.38 102.042 25.236C101.778 25.08 101.448 24.948 101.052 24.84C100.668 24.72 100.224 24.66 99.7202 24.66C98.2682 24.66 97.2002 25.062 96.5162 25.866C95.8322 26.67 95.4902 27.954 95.4902 29.718C95.4902 31.446 95.8262 32.718 96.4982 33.534C97.1822 34.338 98.2322 34.74 99.6482 34.74C100.236 34.74 100.74 34.674 101.16 34.542C101.58 34.398 101.994 34.218 102.402 34.002C102.57 33.894 102.684 33.84 102.744 33.84C102.852 33.84 102.984 33.972 103.14 34.236C103.296 34.5 103.374 34.692 103.374 34.812C103.374 34.992 103.182 35.19 102.798 35.406C102.438 35.61 101.982 35.778 101.43 35.91C100.878 36.042 100.284 36.108 99.6482 36.108ZM110.541 36.108C108.741 36.108 107.367 35.562 106.419 34.47C105.471 33.366 104.997 31.764 104.997 29.664C104.997 27.564 105.465 25.98 106.401 24.912C107.349 23.832 108.729 23.292 110.541 23.292C112.353 23.292 113.733 23.832 114.681 24.912C115.629 25.98 116.103 27.564 116.103 29.664C116.103 31.764 115.629 33.366 114.681 34.47C113.733 35.562 112.353 36.108 110.541 36.108ZM110.541 34.74C111.813 34.74 112.785 34.308 113.457 33.444C114.129 32.58 114.465 31.32 114.465 29.664C114.465 28.02 114.129 26.778 113.457 25.938C112.785 25.086 111.813 24.66 110.541 24.66C109.269 24.66 108.297 25.086 107.625 25.938C106.965 26.778 106.635 28.02 106.635 29.664C106.635 31.32 106.965 32.58 107.625 33.444C108.297 34.308 109.269 34.74 110.541 34.74ZM119.423 36C119.231 36 119.093 35.958 119.009 35.874C118.925 35.79 118.883 35.652 118.883 35.46V23.76C118.883 23.496 119.123 23.364 119.603 23.364H119.747C120.227 23.364 120.467 23.496 120.467 23.76V34.632H125.417C125.549 34.632 125.639 34.674 125.687 34.758C125.747 34.842 125.777 34.98 125.777 35.172V35.46C125.777 35.652 125.747 35.79 125.687 35.874C125.639 35.958 125.549 36 125.417 36H119.423ZM132.425 36.108C130.625 36.108 129.251 35.562 128.303 34.47C127.355 33.366 126.881 31.764 126.881 29.664C126.881 27.564 127.349 25.98 128.285 24.912C129.233 23.832 130.613 23.292 132.425 23.292C134.237 23.292 135.617 23.832 136.565 24.912C137.513 25.98 137.987 27.564 137.987 29.664C137.987 31.764 137.513 33.366 136.565 34.47C135.617 35.562 134.237 36.108 132.425 36.108ZM132.425 34.74C133.697 34.74 134.669 34.308 135.341 33.444C136.013 32.58 136.349 31.32 136.349 29.664C136.349 28.02 136.013 26.778 135.341 25.938C134.669 25.086 133.697 24.66 132.425 24.66C131.153 24.66 130.181 25.086 129.509 25.938C128.849 26.778 128.519 28.02 128.519 29.664C128.519 31.32 128.849 32.58 129.509 33.444C130.181 34.308 131.153 34.74 132.425 34.74ZM149.083 29.502C149.275 29.502 149.413 29.544 149.497 29.628C149.581 29.712 149.623 29.85 149.623 30.042V34.812C149.623 35.28 149.245 35.616 148.489 35.82C147.745 36.012 146.785 36.108 145.609 36.108C143.797 36.108 142.417 35.586 141.469 34.542C140.521 33.498 140.047 31.92 140.047 29.808C140.047 25.464 141.991 23.292 145.879 23.292C146.443 23.292 146.989 23.352 147.517 23.472C148.057 23.58 148.489 23.724 148.813 23.904C149.149 24.084 149.317 24.252 149.317 24.408C149.317 24.576 149.239 24.792 149.083 25.056C148.939 25.32 148.813 25.452 148.705 25.452C148.669 25.452 148.513 25.38 148.237 25.236C147.973 25.08 147.643 24.948 147.247 24.84C146.863 24.72 146.419 24.66 145.915 24.66C144.391 24.66 143.305 25.08 142.657 25.92C142.009 26.76 141.685 28.002 141.685 29.646C141.685 31.206 141.985 32.448 142.585 33.372C143.185 34.284 144.229 34.74 145.717 34.74C146.161 34.74 146.593 34.722 147.013 34.686C147.445 34.638 147.787 34.578 148.039 34.506V30.87H145.933C145.813 30.87 145.723 30.828 145.663 30.744C145.603 30.66 145.573 30.522 145.573 30.33V30.042C145.573 29.85 145.603 29.712 145.663 29.628C145.723 29.544 145.813 29.502 145.933 29.502H149.083ZM153.581 36.036C153.101 36.036 152.861 35.904 152.861 35.64V23.76C152.861 23.496 153.101 23.364 153.581 23.364H153.725C154.205 23.364 154.445 23.496 154.445 23.76V35.64C154.445 35.904 154.205 36.036 153.725 36.036H153.581ZM158.499 36C158.307 36 158.169 35.958 158.085 35.874C158.001 35.79 157.959 35.652 157.959 35.46V23.94C157.959 23.748 158.001 23.61 158.085 23.526C158.169 23.442 158.307 23.4 158.499 23.4H164.781C164.913 23.4 165.003 23.442 165.051 23.526C165.111 23.61 165.141 23.748 165.141 23.94V24.228C165.141 24.42 165.111 24.558 165.051 24.642C165.003 24.726 164.913 24.768 164.781 24.768H159.543V28.872H164.241C164.373 28.872 164.463 28.914 164.511 28.998C164.571 29.082 164.601 29.22 164.601 29.412V29.7C164.601 29.892 164.571 30.03 164.511 30.114C164.463 30.198 164.373 30.24 164.241 30.24H159.543V34.632H164.799C164.931 34.632 165.021 34.674 165.069 34.758C165.129 34.842 165.159 34.98 165.159 35.172V35.46C165.159 35.652 165.129 35.79 165.069 35.874C165.021 35.958 164.931 36 164.799 36H158.499Z" fill="black"/>
<path fill-rule="evenodd" clip-rule="evenodd" d="M184.48 52L191.51 59.0294C195.392 62.9117 195.392 69.2061 191.51 73.0883C187.627 76.9706 181.333 76.9706 177.451 73.0883C173.568 69.2061 173.568 62.9117 177.451 59.0294L184.48 52ZM184.48 52.9924L177.947 59.5256C174.339 63.1338 174.339 68.9839 177.947 72.5921C179.633 74.2782 181.809 75.1764 184.016 75.2867V75.1423C183.975 75.121 183.938 75.0912 183.907 75.0532L180.188 70.5177C180.065 70.3678 180.087 70.1468 180.236 70.0239C180.386 69.901 180.607 69.9229 180.73 70.0727L184.016 74.0803V69.9614C183.97 69.9368 183.929 69.9015 183.897 69.8562L180.843 65.5828C180.73 65.4252 180.766 65.206 180.924 65.0933C181.082 64.9807 181.301 65.0171 181.413 65.1748L184.016 68.8166V64.5288C183.965 64.499 183.92 64.4558 183.889 64.4007L181.713 60.632C181.616 60.4642 181.673 60.2496 181.841 60.1527C182.009 60.0558 182.224 60.1133 182.32 60.2811L184.016 63.2186V58.6907C184.016 58.497 184.173 58.3399 184.367 58.3399C184.561 58.3399 184.718 58.497 184.718 58.6907V63.1382L186.368 60.2811C186.465 60.1133 186.679 60.0558 186.847 60.1527C187.015 60.2496 187.072 60.4642 186.975 60.632L184.8 64.4007C184.778 64.4384 184.75 64.4706 184.718 64.4967V68.7517L187.275 65.1748C187.387 65.0171 187.606 64.9807 187.764 65.0933C187.922 65.206 187.958 65.4252 187.846 65.5828L184.791 69.8562C184.77 69.8856 184.745 69.9108 184.718 69.9316V74.0238L187.958 70.0727C188.081 69.9229 188.302 69.901 188.452 70.0239C188.602 70.1468 188.623 70.3678 188.501 70.5177L184.781 75.0532C184.762 75.0764 184.741 75.0965 184.718 75.1134V75.2952C187.003 75.2367 189.27 74.3357 191.013 72.5921C194.622 68.9839 194.622 63.1338 191.013 59.5256L184.48 52.9924Z" fill="black"/>
<path d="M57.9121 59.0303C54.0293 62.9131 54.0293 69.2082 57.9121 73.091C59.7311 74.91 62.0796 75.8769 64.4615 75.9915V75.4776C64.419 75.4555 64.3801 75.4246 64.3478 75.3852L60.4922 70.6832C60.3648 70.5278 60.3875 70.2986 60.5428 70.1713C60.6981 70.0439 60.9273 70.0665 61.0547 70.2219L64.4615 74.3766V70.1065C64.4139 70.0809 64.3712 70.0443 64.3376 69.9974L61.1712 65.5671C61.0544 65.4037 61.0922 65.1765 61.2556 65.0597C61.4191 64.9429 61.6463 64.9807 61.7631 65.1441L64.4615 68.9197L64.4615 64.4744C64.4082 64.4436 64.3621 64.3987 64.3291 64.3416L62.0733 60.4345C61.9729 60.2605 62.0325 60.0381 62.2064 59.9376C62.3804 59.8372 62.6029 59.8968 62.7033 60.0708L64.4615 63.1161V58.422C64.4615 58.2211 64.6244 58.0582 64.8253 58.0582C65.0262 58.0582 65.189 58.2211 65.189 58.422V63.0328L66.8992 60.0708C66.9996 59.8968 67.2221 59.8372 67.396 59.9376C67.57 60.0381 67.6296 60.2605 67.5292 60.4345L65.2734 64.3416C65.2508 64.3807 65.222 64.4141 65.189 64.4411V68.8524L67.8394 65.1441C67.9562 64.9807 68.1834 64.9429 68.3469 65.0597C68.5103 65.1765 68.5481 65.4037 68.4313 65.5671L65.2649 69.9974C65.2431 70.0279 65.2174 70.054 65.189 70.0756V74.318L68.5478 70.2219C68.6751 70.0665 68.9043 70.0439 69.0597 70.1713C69.215 70.2986 69.2377 70.5278 69.1103 70.6832L65.2547 75.3852C65.235 75.4092 65.2129 75.4301 65.189 75.4477V76C67.6507 75.9393 70.0941 74.9696 71.9727 73.091C75.8555 69.2082 75.8555 62.9131 71.9727 59.0303L64.9424 52L57.9121 59.0303Z" fill="black"/>
<path d="M87.7968 59.0303C83.9141 62.9131 83.9141 69.2082 87.7968 73.091C89.6159 74.91 91.9644 75.8769 94.3463 75.9915V75.4776C94.3037 75.4555 94.2648 75.4246 94.2325 75.3852L90.3769 70.6832C90.2495 70.5278 90.2722 70.2986 90.4276 70.1713C90.5829 70.0439 90.8121 70.0665 90.9395 70.2219L94.3463 74.3766V70.1065C94.2986 70.0809 94.2559 70.0443 94.2223 69.9974L91.056 65.5671C90.9392 65.4037 90.977 65.1765 91.1404 65.0597C91.3038 64.9429 91.531 64.9807 91.6478 65.1441L94.3463 68.9197L94.3463 64.4744C94.293 64.4436 94.2468 64.3987 94.2138 64.3416L91.9581 60.4345C91.8576 60.2605 91.9172 60.0381 92.0912 59.9376C92.2652 59.8372 92.4876 59.8968 92.5881 60.0708L94.3463 63.1161V58.422C94.3463 58.2211 94.5092 58.0582 94.71 58.0582C94.9109 58.0582 95.0738 58.2211 95.0738 58.422V63.0328L96.7839 60.0708C96.8844 59.8968 97.1068 59.8372 97.2808 59.9376C97.4548 60.0381 97.5144 60.2605 97.4139 60.4345L95.1582 64.3416C95.1356 64.3807 95.1068 64.4141 95.0738 64.4411V68.8524L97.7242 65.1441C97.841 64.9807 98.0682 64.9429 98.2316 65.0597C98.3951 65.1765 98.4329 65.4037 98.316 65.5671L95.1497 69.9974C95.1279 70.0279 95.1022 70.054 95.0738 70.0756V74.318L98.4325 70.2219C98.5599 70.0665 98.7891 70.0439 98.9445 70.1713C99.0998 70.2986 99.1225 70.5278 98.9951 70.6832L95.1395 75.3852C95.1198 75.4092 95.0977 75.4301 95.0738 75.4477V76C97.5354 75.9393 99.9788 74.9696 101.857 73.091C105.74 69.2082 105.74 62.9131 101.857 59.0303L94.8272 52L87.7968 59.0303Z" fill="black"/>
<path d="M117.682 59.0303C113.799 62.9131 113.799 69.2082 117.682 73.091C119.501 74.91 121.849 75.8769 124.231 75.9915V75.4776C124.188 75.4555 124.15 75.4246 124.117 75.3852L120.262 70.6832C120.134 70.5278 120.157 70.2986 120.312 70.1713C120.468 70.0439 120.697 70.0665 120.824 70.2219L124.231 74.3766V70.1065C124.183 70.0809 124.141 70.0443 124.107 69.9974L120.941 65.5671C120.824 65.4037 120.862 65.1765 121.025 65.0597C121.189 64.9429 121.416 64.9807 121.533 65.1441L124.231 68.9197L124.231 64.4744C124.178 64.4436 124.132 64.3987 124.099 64.3416L121.843 60.4345C121.742 60.2605 121.802 60.0381 121.976 59.9376C122.15 59.8372 122.372 59.8968 122.473 60.0708L124.231 63.1161V58.422C124.231 58.2211 124.394 58.0582 124.595 58.0582C124.796 58.0582 124.959 58.2211 124.959 58.422V63.0328L126.669 60.0708C126.769 59.8968 126.992 59.8372 127.166 59.9376C127.34 60.0381 127.399 60.2605 127.299 60.4345L125.043 64.3416C125.02 64.3807 124.992 64.4141 124.959 64.4411V68.8524L127.609 65.1441C127.726 64.9807 127.953 64.9429 128.116 65.0597C128.28 65.1765 128.318 65.4037 128.201 65.5671L125.034 69.9974C125.013 70.0279 124.987 70.054 124.959 70.0756V74.318L128.317 70.2219C128.445 70.0665 128.674 70.0439 128.829 70.1713C128.985 70.2986 129.007 70.5278 128.88 70.6832L125.024 75.3852C125.005 75.4092 124.982 75.4301 124.959 75.4477V76C127.42 75.9393 129.864 74.9696 131.742 73.091C135.625 69.2082 135.625 62.9131 131.742 59.0303L124.712 52L117.682 59.0303Z" fill="black"/>
<path d="M147.566 59.0303C143.684 62.9131 143.684 69.2082 147.566 73.091C149.385 74.91 151.734 75.8769 154.116 75.9915V75.4776C154.073 75.4555 154.034 75.4246 154.002 75.3852L150.146 70.6832C150.019 70.5278 150.042 70.2986 150.197 70.1713C150.352 70.0439 150.582 70.0665 150.709 70.2219L154.116 74.3766V70.1065C154.068 70.0809 154.025 70.0443 153.992 69.9974L150.826 65.5671C150.709 65.4037 150.746 65.1765 150.91 65.0597C151.073 64.9429 151.301 64.9807 151.417 65.1441L154.116 68.9197L154.116 64.4744C154.063 64.4436 154.016 64.3987 153.983 64.3416L151.728 60.4345C151.627 60.2605 151.687 60.0381 151.861 59.9376C152.035 59.8372 152.257 59.8968 152.358 60.0708L154.116 63.1161V58.422C154.116 58.2211 154.279 58.0582 154.48 58.0582C154.68 58.0582 154.843 58.2211 154.843 58.422V63.0328L156.553 60.0708C156.654 59.8968 156.876 59.8372 157.05 59.9376C157.224 60.0381 157.284 60.2605 157.183 60.4345L154.928 64.3416C154.905 64.3807 154.876 64.4141 154.843 64.4411V68.8524L157.494 65.1441C157.611 64.9807 157.838 64.9429 158.001 65.0597C158.165 65.1765 158.202 65.4037 158.086 65.5671L154.919 69.9974C154.897 70.0279 154.872 70.054 154.843 70.0756V74.318L158.202 70.2219C158.329 70.0665 158.559 70.0439 158.714 70.1713C158.869 70.2986 158.892 70.5278 158.765 70.6832L154.909 75.3852C154.889 75.4092 154.867 75.4301 154.843 75.4477V76C157.305 75.9393 159.748 74.9696 161.627 73.091C165.51 69.2082 165.51 62.9131 161.627 59.0303L154.597 52L147.566 59.0303Z" fill="black"/>
</svg>
