<svg width="85" height="139" viewBox="0 0 85 139" fill="none" xmlns="http://www.w3.org/2000/svg">
<g clip-path="url(#clip0)">
<path d="M16.5856 32.7837C16.5856 36.6391 15.0567 40.3133 12.3356 43.0302L5.46824 49.887C1.94385 53.3801 -0.0256621 58.1152 0.000252536 63.0573V120.37C0.000252536 130.643 8.37068 139 18.6588 139H66.3417C76.6298 139 85.0003 130.643 85.0003 120.37V63.0573C85.0262 58.1152 83.0567 53.3801 79.5323 49.887L72.6649 43.0302C69.9439 40.3133 68.4149 36.6391 68.4149 32.7837H16.5856ZM49.9378 47.9205H51.8295V43.9617C58.8783 48.3086 61.0811 57.5201 56.7533 64.584C55.0429 67.3784 52.5551 69.4226 49.7564 70.6128V70.2247C49.7564 69.3449 49.0567 68.6463 48.1756 68.6463H47.2167C46.3356 68.6463 45.6359 69.3449 45.6359 70.2247V71.1821C45.6359 71.3632 45.6618 71.5184 45.7137 71.6737C42.5003 72.0618 39.1573 71.4149 36.1771 69.6296C29.0765 65.3602 26.7701 56.1746 31.0201 49.059C35.2701 41.9434 44.4439 39.5888 51.5963 43.7805H49.1862C48.3829 43.7805 47.735 44.4274 47.735 45.2295V45.6694C47.6832 46.9114 48.6939 47.9205 49.9378 47.9205ZM39.546 79.4879C40.8936 79.1774 42.267 78.9963 43.6664 78.9704C43.5887 79.669 43.5628 80.3418 43.5628 81.0404C43.5887 90.4589 49.9896 98.6871 59.1375 101.068C57.1679 106.553 52.4774 110.641 46.7503 111.78C44.0551 112.297 41.2823 112.168 38.6649 111.366C33.1451 109.632 28.921 105.156 27.5216 99.541L27.4439 99.2822C27.392 99.1011 27.3402 98.92 27.3143 98.7388C25.578 90.0707 30.9682 81.6096 39.546 79.4879ZM47.6832 81.0404C47.6832 80.1865 47.7609 79.3327 47.9164 78.4788C48.3311 78.3753 48.7716 78.2718 49.1862 78.1683L49.3936 78.1165C50.2487 77.8578 51.078 77.5473 51.8814 77.185L52.1664 77.0557C52.9439 76.6934 53.6954 76.2794 54.421 75.8395C54.5247 75.7619 54.6283 75.7102 54.732 75.6325C55.4317 75.1668 56.1054 74.6752 56.7533 74.1318L57.0643 73.8731C57.6862 73.3297 58.3082 72.7346 58.8524 72.1136C58.9301 72.0101 59.0338 71.9324 59.1115 71.8289C59.6817 71.1821 60.2 70.5352 60.6664 69.8366C60.7442 69.7331 60.796 69.6296 60.8478 69.5519C61.3402 68.8274 61.7548 68.0771 62.1436 67.3008C62.1954 67.2232 62.2213 67.1456 62.2472 67.068C62.6359 66.24 62.9728 65.412 63.2579 64.5322V64.5063C63.5948 64.4805 63.9317 64.4805 64.2426 64.4805C73.3905 64.4805 80.828 71.9066 80.828 81.0404C80.828 90.1742 73.3905 97.6003 64.2426 97.6003C63.4911 97.6003 62.7655 97.5486 62.014 97.4451C53.825 96.3066 47.7091 89.3204 47.6832 81.0404ZM29.1283 73.1227C29.6466 73.6143 30.1649 74.08 30.7091 74.5199C30.7868 74.5975 30.8646 74.6752 30.9682 74.7269C31.6161 75.2185 32.2899 75.6584 32.9896 76.0724C33.1969 76.2018 33.4042 76.3053 33.6115 76.4088C33.9225 76.5899 34.2335 76.771 34.5445 76.9263C34.4667 76.978 34.389 77.0298 34.3112 77.0557C33.5338 77.4438 32.8082 77.8578 32.0826 78.3235C31.8493 78.4788 31.6679 78.6858 31.2792 78.6599C30.8128 78.634 30.424 78.9704 30.2945 79.4362C30.1908 79.8502 29.9057 80.0054 29.6725 80.2124C29.4652 80.3935 29.2579 80.6005 29.0506 80.8075V77.8578C29.0506 77.3403 28.6359 76.9263 28.1176 76.9263C26.3554 76.9263 24.9301 78.3494 24.9301 80.1089V81.0663H28.8173C28.5323 81.3768 28.2472 81.6873 27.9621 81.9978C27.8585 82.1271 27.7548 82.2565 27.6512 82.3859C27.107 83.0328 26.6146 83.7055 26.174 84.3783C26.0963 84.4818 26.0445 84.5853 25.9667 84.6888C25.5262 85.3874 25.1375 86.1119 24.8006 86.8364C24.7746 86.914 24.7228 86.9658 24.6969 87.0434C24.36 87.8196 24.049 88.6217 23.8158 89.4497C23.764 89.605 23.7121 89.7602 23.6603 89.9155C23.4271 90.7435 23.2457 91.5715 23.1161 92.3995C23.0902 92.5547 23.0902 92.71 23.0643 92.8652C22.9347 93.7709 22.8829 94.6506 22.857 95.5562C22.857 96.2031 22.8829 96.8241 22.9606 97.471C22.235 97.5745 21.5094 97.6262 20.7838 97.6262C11.6359 97.6262 4.19842 90.2001 4.19842 81.0663C4.19842 71.9324 11.6359 64.5063 20.7838 64.5063C21.8463 64.5063 22.9088 64.6098 23.9454 64.8168C24.049 65.1273 24.1786 65.4378 24.3082 65.7483C24.3859 65.9812 24.4896 66.2141 24.5673 66.4469C24.8783 67.1973 25.2411 67.9477 25.6557 68.6463C25.6817 68.6981 25.7076 68.7239 25.7335 68.7498C26.1222 69.4226 26.5628 70.0436 27.0292 70.6646C27.1847 70.8716 27.3402 71.0527 27.4957 71.2597C27.8844 71.7254 28.2731 72.1653 28.6878 72.6052C28.7914 72.7863 28.9469 72.9416 29.1283 73.1227ZM4.1466 120.37V93.4086C7.28227 97.6003 11.921 100.472 17.078 101.404C11.6878 105.182 8.44842 111.288 8.29294 117.86C8.16336 124.433 11.1435 130.668 16.3783 134.653C9.35544 133.541 4.17251 127.486 4.1466 120.37ZM29.0246 134.86C19.8768 134.86 12.4393 127.434 12.4393 118.3C12.4393 111.081 17.1557 104.69 24.049 102.517C24.1009 102.62 24.1527 102.724 24.1786 102.827C24.2823 103.086 24.3859 103.319 24.4896 103.577C24.6969 104.095 24.9301 104.587 25.1893 105.078C25.3189 105.337 25.4743 105.596 25.6039 105.854C25.889 106.32 26.174 106.786 26.485 107.252C26.6405 107.459 26.7701 107.692 26.9515 107.899C27.3661 108.468 27.8326 109.037 28.325 109.555C28.3768 109.632 28.4545 109.71 28.5064 109.762C28.5841 109.813 28.6878 109.943 28.7655 110.02H24.8783V112.013C24.8783 113.203 25.8371 114.16 27.0292 114.16H29.0246V110.253C29.4393 110.641 29.8539 111.055 30.2686 111.418C30.45 111.573 30.6573 111.728 30.8387 111.857C31.2792 112.22 31.7457 112.556 32.2381 112.867C32.4713 113.022 32.7304 113.177 32.9637 113.332C33.4301 113.617 33.9225 113.876 34.4149 114.109C34.674 114.238 34.9073 114.367 35.1664 114.471C35.296 114.523 35.4256 114.6 35.5551 114.652C35.5292 114.859 35.5033 115.04 35.4774 115.247C35.4515 115.454 35.4256 115.661 35.3997 115.868C35.296 116.67 35.2442 117.498 35.2182 118.3C35.2182 118.921 35.2442 119.542 35.296 120.163C35.3219 120.37 35.3478 120.551 35.3737 120.758C35.4256 121.172 35.4774 121.586 35.5551 122C35.607 122.233 35.6588 122.466 35.7106 122.699C35.7884 123.061 35.892 123.449 35.9957 123.812C36.0734 124.044 36.1253 124.277 36.203 124.51C36.3067 124.872 36.4362 125.235 36.5658 125.571C36.6436 125.804 36.7472 126.037 36.825 126.244C36.9804 126.606 37.1359 126.968 37.3173 127.305C37.421 127.512 37.5247 127.719 37.6283 127.926C37.8356 128.314 38.0689 128.702 38.3021 129.09C38.3798 129.219 38.4576 129.375 38.5612 129.504C38.8981 130.022 39.235 130.513 39.6237 130.979C36.6695 133.515 32.9118 134.886 29.0246 134.86ZM41.4118 134.86C41.7747 134.576 42.1634 134.317 42.5003 134.006C42.8631 134.317 43.2259 134.576 43.5887 134.86H41.4118ZM55.9759 134.86C51.4408 134.86 47.1131 133.023 44.0033 129.737C41.049 126.658 39.3905 122.57 39.3905 118.3C39.3905 117.524 39.4423 116.748 39.5719 115.972C39.5719 115.946 39.5978 115.894 39.5978 115.868C39.7792 115.894 39.9606 115.92 40.142 115.946C40.3234 115.972 40.5567 115.997 40.764 116.023C41.671 116.153 42.6039 116.23 43.5109 116.23H43.5368C44.8585 116.23 46.2061 116.101 47.5018 115.842C48.4088 115.661 49.2899 115.428 50.171 115.118C50.4561 115.014 50.7411 114.885 51.0262 114.781C51.5963 114.548 52.1664 114.341 52.7106 114.057C53.0216 113.902 53.3326 113.72 53.6436 113.539C54.11 113.255 54.6024 112.996 55.0429 112.685C55.3539 112.478 55.6649 112.246 55.95 112.013C56.3646 111.702 56.7792 111.366 57.1939 111.029C57.4789 110.771 57.764 110.512 58.0231 110.227C58.3859 109.865 58.7487 109.477 59.1115 109.089C59.3707 108.804 59.6039 108.494 59.8372 108.209C60.174 107.795 60.4591 107.355 60.7701 106.915C60.9774 106.605 61.1847 106.294 61.392 105.958C61.6771 105.492 61.9103 105.001 62.1436 104.509C62.299 104.173 62.4804 103.862 62.61 103.526C62.6619 103.422 62.7137 103.319 62.7655 103.215C69.892 106.424 73.8311 114.16 72.1725 121.793C70.514 129.426 63.8021 134.886 55.9759 134.86ZM80.8539 120.37C80.828 127.486 75.6451 133.541 68.6222 134.653C73.8311 130.643 76.8372 124.407 76.7076 117.86C76.578 111.288 73.3387 105.182 67.9743 101.404C73.1314 100.472 77.7442 97.6262 80.8798 93.4345V120.37H80.8539ZM64.2686 32.7837C64.2426 37.7258 66.2122 42.4609 69.7365 45.954L76.6039 52.8109C79.325 55.5277 80.8539 59.202 80.8539 63.0573V68.6722C76.9408 63.4455 70.799 60.3405 64.2686 60.3405H64.139C64.2167 59.6418 64.2686 58.9691 64.2686 58.2705C64.2686 46.8338 54.9911 37.5705 43.5368 37.5705C32.0826 37.5705 22.8051 46.8338 22.8051 58.2705C22.8051 59.0208 22.857 59.7453 22.9606 60.4957C22.2091 60.3922 21.4835 60.3405 20.732 60.3405C14.2015 60.3405 8.05971 63.4455 4.1466 68.6722V63.0573C4.1466 59.202 5.67556 55.5277 8.3966 52.8109L15.264 45.954C18.7625 42.4609 20.732 37.7258 20.732 32.7837" fill="#2D4E47"/>
<path d="M39.3906 52.0604C40.5355 52.0604 41.4637 51.1336 41.4637 49.9904C41.4637 48.8472 40.5355 47.9204 39.3906 47.9204C38.2456 47.9204 37.3174 48.8472 37.3174 49.9904C37.3174 51.1336 38.2456 52.0604 39.3906 52.0604Z" fill="#2D4E47"/>
<path d="M51.8295 60.3402C52.9745 60.3402 53.9027 59.4134 53.9027 58.2702C53.9027 57.127 52.9745 56.2002 51.8295 56.2002C50.6845 56.2002 49.7563 57.127 49.7563 58.2702C49.7563 59.4134 50.6845 60.3402 51.8295 60.3402Z" fill="#2D4E47"/>
<path d="M37.7579 62.4106H36.8509C35.9439 62.4106 35.2183 63.1351 35.2183 64.0408V64.9464C35.2183 65.852 35.9439 66.5765 36.8509 66.5765H37.7579C38.6649 66.5765 39.3905 65.852 39.3905 64.9464V64.0408C39.3905 63.1351 38.6649 62.4106 37.7579 62.4106Z" fill="#2D4E47"/>
<path d="M20.7322 73.1486V72.3982C20.7322 71.4667 19.9807 70.7163 19.0478 70.7163H18.2963C17.3633 70.7163 16.6118 71.4667 16.6118 72.3982V73.1486C16.6118 74.0801 17.3633 74.8304 18.2963 74.8304H19.0478C19.9807 74.8304 20.7322 74.0801 20.7322 73.1486Z" fill="#2D4E47"/>
<path d="M13.5278 81.0405H11.3768C10.8326 81.0405 10.3921 81.4804 10.3921 82.0238V84.1714C10.3921 84.7148 10.8326 85.1546 11.3768 85.1546H13.5278C14.072 85.1546 14.5125 84.7148 14.5125 84.1714V82.0238C14.5125 81.5063 14.072 81.0405 13.5278 81.0405Z" fill="#2D4E47"/>
<path d="M31.0977 94.7541V96.3324C31.0977 97.0311 31.6678 97.6003 32.3675 97.6003H33.9483C34.648 97.6003 35.2181 97.0311 35.2181 96.3324V94.7541C35.2181 94.0555 34.648 93.4862 33.9483 93.4862H32.3675C31.6678 93.4603 31.0977 94.0296 31.0977 94.7541Z" fill="#2D4E47"/>
<path d="M38.9759 89.3202H39.8052C40.7122 89.3202 41.4637 88.5698 41.4637 87.6642V86.8362C41.4637 85.9305 40.7122 85.1802 39.8052 85.1802H38.9759C38.0689 85.1802 37.3174 85.9305 37.3174 86.8362V87.6642C37.3174 88.5957 38.0689 89.3202 38.9759 89.3202Z" fill="#2D4E47"/>
<path d="M45.4807 105.88H45.7139C46.8024 105.88 47.6575 105 47.6575 103.94V103.707C47.6575 102.62 46.7764 101.766 45.7139 101.766H45.4807C44.3923 101.766 43.5371 102.646 43.5371 103.707V103.94C43.5371 105.026 44.4182 105.88 45.4807 105.88Z" fill="#2D4E47"/>
<path d="M56.0797 83.1104H55.8723C54.7839 83.1104 53.9028 83.9901 53.9028 85.0768V85.2838C53.9028 86.3706 54.7839 87.2504 55.8723 87.2504H56.0797C57.1681 87.2504 58.0492 86.3706 58.0492 85.2838V85.0768C58.0492 83.9901 57.1681 83.1104 56.0797 83.1104Z" fill="#2D4E47"/>
<path d="M64.2685 78.9706C65.4135 78.9706 66.3417 78.0438 66.3417 76.9006C66.3417 75.7573 65.4135 74.8306 64.2685 74.8306C63.1235 74.8306 62.1953 75.7573 62.1953 76.9006C62.1953 78.0438 63.1235 78.9706 64.2685 78.9706Z" fill="#2D4E47"/>
<path d="M69.8144 91.3905H71.1361C71.9135 91.3905 72.5355 90.7695 72.5355 89.9932V88.6736C72.5355 87.8974 71.9135 87.2764 71.1361 87.2764H69.8144C69.037 87.2764 68.415 87.8974 68.415 88.6736V89.9932C68.415 90.7695 69.037 91.3905 69.8144 91.3905Z" fill="#2D4E47"/>
<path d="M72.2241 72.7606H72.9238C73.8826 72.7606 74.6601 71.9843 74.6601 71.027V70.3283C74.6601 69.371 73.8826 68.5947 72.9238 68.5947H72.2241C71.2652 68.5947 70.4878 69.371 70.4878 70.3283V71.027C70.4878 72.0102 71.2652 72.7606 72.2241 72.7606Z" fill="#2D4E47"/>
<path d="M19.2806 116.23H18.0367C17.2333 116.23 16.5854 116.877 16.5854 117.679V118.921C16.5854 119.723 17.2333 120.37 18.0367 120.37H19.2806C20.0839 120.37 20.7318 119.723 20.7318 118.921V117.679C20.7318 116.877 20.0839 116.23 19.2806 116.23Z" fill="#2D4E47"/>
<path d="M29.0243 130.72C30.1693 130.72 31.0975 129.793 31.0975 128.65C31.0975 127.507 30.1693 126.58 29.0243 126.58C27.8794 126.58 26.9512 127.507 26.9512 128.65C26.9512 129.793 27.8794 130.72 29.0243 130.72Z" fill="#2D4E47"/>
<path d="M48.0199 120.37H47.3461C46.3873 120.37 45.6099 121.146 45.6099 122.104V122.776C45.6099 123.734 46.3873 124.51 47.3461 124.51H48.0199C48.9788 124.51 49.7562 123.734 49.7562 122.776V122.104C49.7562 121.146 48.9788 120.37 48.0199 120.37Z" fill="#2D4E47"/>
<path d="M62.7654 114.16H61.6251C60.7959 114.16 60.1221 114.833 60.1221 115.661V116.799C60.1221 117.627 60.7959 118.3 61.6251 118.3H62.7654C63.5946 118.3 64.2684 117.627 64.2684 116.799V115.661C64.2684 114.833 63.5946 114.16 62.7654 114.16Z" fill="#2D4E47"/>
<path d="M56.4684 128.65H55.4836C54.6025 128.65 53.9028 129.349 53.9028 130.229V131.212C53.9028 132.092 54.6025 132.79 55.4836 132.79H56.4684C57.3495 132.79 58.0492 132.092 58.0492 131.212V130.229C58.0492 129.375 57.3495 128.65 56.4684 128.65Z" fill="#2D4E47"/>
<path d="M20.7319 93.4603C21.8768 93.4603 22.805 92.5335 22.805 91.3903C22.805 90.2471 21.8768 89.3203 20.7319 89.3203C19.5869 89.3203 18.6587 90.2471 18.6587 91.3903C18.6587 92.5335 19.5869 93.4603 20.7319 93.4603Z" fill="#2D4E47"/>
<path d="M31.4868 56.2002H30.6835C29.7505 56.2002 28.999 56.9506 28.999 57.8821V58.6842C28.999 59.6157 29.7505 60.3661 30.6835 60.3661H31.4868C32.4198 60.3661 33.1713 59.6157 33.1713 58.6842V57.8821C33.1713 56.9506 32.4198 56.2002 31.4868 56.2002Z" fill="#2D4E47"/>
<path d="M63.5167 17.3622L67.4039 15.939C70.6173 14.7488 72.2759 11.1781 71.0838 7.96958L69.6585 4.08834C68.4923 0.853978 64.9161 -0.802016 61.6768 0.38823L7.20423 20.4154C3.99082 21.6057 2.33228 25.1764 3.52435 28.4108L4.94966 32.292C6.14173 35.5005 9.71795 37.1565 12.9314 35.9662L14.875 35.2417L63.5167 17.3622ZM18.7881 33.8186L59.6295 18.7853L18.7881 33.8186ZM67.2225 9.3927C67.6112 10.4536 67.067 11.6438 66.0045 12.0578L11.5061 32.085C10.4436 32.4731 9.25149 31.9297 8.83685 30.8689L7.41155 26.9876C7.02283 25.9268 7.56703 24.7365 8.62953 24.3225L63.1021 4.29534C64.1646 3.90722 65.3567 4.45059 65.7713 5.51146L67.2225 9.3927Z" fill="#2D4E47"/>
</g>
<defs>
<clipPath id="clip0">
<rect width="85" height="139" fill="white"/>
</clipPath>
</defs>
</svg>
