<svg width="180" height="89" viewBox="0 0 180 89" fill="none" xmlns="http://www.w3.org/2000/svg">
<path d="M157.388 0C104.157 0 91.4647 16.6778 88.6528 22.5617C88.2622 22.4059 87.8326 22.3669 87.403 22.4838C87.364 22.4838 87.3249 22.5228 87.2859 22.5228C84.3959 16.5998 71.6252 0 18.5117 0C7.77189 0 49.3254 44.6559 85.919 25.718C86.5048 28.3678 88.6528 38.8498 88.6528 49.9943C88.6528 70.6467 81.4668 77.6217 75.4135 79.8428C74.2809 80.2325 73.7341 81.4794 74.1247 82.6095C74.4371 83.4667 75.2572 84.0123 76.1555 84.0123C76.3898 84.0123 76.6632 83.9733 76.8975 83.8954C99.3926 75.6734 92.3239 35.3039 90.3711 25.9518C126.887 44.3052 168.089 0 157.388 0Z" fill="#2D4E47"/>
<path d="M29.5639 28.0562L1.60126 26.4976L0.0390954 54.3977C-0.820093 69.8286 11.0133 82.9993 26.4787 83.8566C33.5084 84.2462 40.0695 82.0251 45.1856 78.0116L49.833 83.1941C50.575 84.0124 51.7857 84.0514 52.6058 83.35C53.4259 82.6096 53.465 81.4017 52.762 80.5834L48.1146 75.4008C52.6449 70.7248 55.613 64.4901 56.0035 57.4761C56.8627 42.1232 45.0293 28.9135 29.5639 28.0562ZM52.0981 57.3202C51.7857 63.0873 49.4424 68.4258 45.498 72.5562L44.1311 71.0365L42.5689 48.7865C42.4908 47.6955 41.5535 46.8772 40.46 46.9551C39.3665 47.033 38.5464 47.9682 38.6245 49.0593L39.8352 66.2826L35.1877 61.1L30.345 42.5129C30.0716 41.4608 29.0172 40.8373 27.9627 41.1101C26.9083 41.3828 26.2834 42.4349 26.5568 43.487L29.4858 54.7095L19.7614 43.8767C19.0194 43.0584 17.8087 43.0194 16.9885 43.7208C16.1684 44.4222 16.1294 45.6692 16.8323 46.4875L26.4396 57.1644L15.7779 53.1118C14.7625 52.7222 13.6299 53.2287 13.2394 54.2419C12.8488 55.255 13.3565 56.385 14.3719 56.7747L32.1415 63.5549L36.9061 68.8544L19.8785 65.776C18.8241 65.5812 17.8087 66.2826 17.6134 67.3347C17.4181 68.3868 18.1211 69.3999 19.1756 69.5948L41.163 73.5694L42.5299 75.0891C37.9996 78.5571 32.4149 80.2716 26.6349 79.9209C13.3565 79.1806 3.16342 67.8413 3.90544 54.5926L5.23328 30.5891L29.2906 31.9139C42.608 32.6933 52.8011 44.0716 52.0981 57.3202Z" fill="#2D4E47"/>
<path d="M168.596 44.1884C168.44 37.0185 163.793 30.7448 156.88 28.5237C150.007 26.3026 142.508 28.6796 138.212 34.4467C134.112 33.3946 129.855 33.9011 126.106 35.8495C122.2 37.9147 119.271 41.3828 117.943 45.5912C116.342 50.501 117.084 55.8005 119.974 60.1258C120.013 60.1647 120.052 60.2037 120.091 60.2427C120.716 64.6459 123.098 70.8026 130.714 75.3228C129.074 81.2847 132.003 83.6617 133.916 85.2593C134.385 85.649 134.815 85.9997 135.049 86.2724C135.361 86.7011 135.635 87.0518 135.83 87.4025C136.221 88.0649 136.845 88.5715 137.587 88.8053C137.9 88.9222 138.212 88.9611 138.525 88.9611C138.993 88.9611 139.462 88.8442 139.892 88.6494L140.009 88.5715C140.282 88.4156 140.556 88.2987 140.79 88.2208C141.102 88.1039 141.688 88.0259 142.313 87.948C144.812 87.6363 148.952 87.1687 151.022 81.7913C159.536 82.4927 164.925 79.1805 168.011 76.1801C173.361 74.5824 177.54 70.4909 179.258 65.1914C181.992 56.5408 177.266 47.1498 168.596 44.1884ZM156.021 31.2904C161.41 33.0049 165.238 37.8758 165.667 43.448C160.512 42.6687 155.24 44.3053 151.452 47.9292C151.178 47.8123 150.866 47.7343 150.592 47.6174C149.577 42.3569 146.023 37.7199 141.141 35.4598C144.734 31.2514 150.671 29.5758 156.021 31.2904ZM166.566 73.4914C162.465 77.9336 156.88 79.726 149.968 78.8298C149.421 78.7519 148.913 78.9857 148.601 79.4143C148.366 79.726 148.288 80.1547 148.366 80.5443C146.96 84.48 144.305 84.7917 141.962 85.1034C141.141 85.1814 140.438 85.2983 139.814 85.4931C139.423 85.649 139.072 85.8048 138.72 85.9607L138.603 86.0386C138.525 86.0776 138.408 86.0386 138.369 85.9607C138.095 85.4931 137.783 85.0255 137.353 84.48C136.924 83.9344 136.377 83.4668 135.791 82.9992C133.995 81.5185 132.276 80.1157 133.682 75.6345C133.955 75.3228 134.073 74.9331 134.034 74.5045C133.955 74.0369 133.682 73.6472 133.292 73.4134C125.364 69.166 123.294 63.0872 122.903 58.7619C122.825 57.9047 122.825 57.0474 122.864 56.1512C124.348 57.9826 126.613 60.0868 129.66 62.4248C136.26 67.5684 138.486 73.0238 139.267 75.8294L139.306 75.9463C139.54 76.8815 140.243 77.5829 141.141 77.8946C142.04 78.2063 143.055 78.0115 143.836 77.3491C146.101 75.5176 151.1 72.3613 159.536 72.0106C163.363 71.8547 166.448 71.4651 168.714 70.8416C167.972 71.8158 167.308 72.712 166.566 73.4914ZM176.407 64.3731C175.587 66.9449 174.025 69.166 171.994 70.8806C172.072 70.7247 172.15 70.6078 172.189 70.4519C172.736 69.3998 173.088 68.5036 173.283 67.9581C173.517 67.2567 173.205 66.4773 172.502 66.1656C172.424 66.1266 172.346 66.0877 172.267 66.0877C172.15 66.0487 172.072 66.0487 171.994 66.0097C171.33 65.9318 170.744 66.3215 170.471 66.906C169.924 67.4125 167.62 68.7764 159.262 69.1271C150.124 69.5167 144.5 72.9848 141.962 75.05C141.102 71.8937 138.564 65.8149 131.378 60.1647C123.411 53.93 123.528 51.631 123.567 51.592C123.645 50.9296 123.216 50.2672 122.591 50.0723C122.435 49.9944 122.239 49.9554 122.044 49.9554C121.614 49.9554 121.224 50.1503 120.911 50.501C120.794 50.6568 120.56 50.9686 120.482 51.5141C120.404 51.8258 120.287 52.2155 120.169 52.6831C119.857 50.6179 120.052 48.4747 120.716 46.4095C121.849 42.9414 124.231 40.0579 127.473 38.3434C130.714 36.6288 134.424 36.2781 137.939 37.2913C137.978 37.2913 138.017 37.3302 138.095 37.3302L138.29 37.4082C142.743 38.8499 146.179 42.4349 147.468 46.916H147.39C147.312 46.916 147.234 46.916 147.156 46.8771C146.96 46.8771 146.765 46.8381 146.57 46.8381C146.531 46.8381 146.453 46.8381 146.414 46.8381C146.336 46.8381 146.218 46.8381 146.14 46.8381C146.023 46.8381 145.906 46.8381 145.789 46.8381C145.672 46.8381 145.555 46.8381 145.398 46.8381L144.422 46.8771C144.305 46.8771 144.188 46.8771 144.07 46.916H144.031C143.914 46.916 143.797 46.955 143.719 46.955C143.602 46.955 143.485 46.994 143.367 46.994C143.211 46.994 143.016 47.0329 142.86 47.0719C142.743 47.0719 142.625 47.1109 142.508 47.1498C141.962 47.2667 141.376 47.3836 140.868 47.5395C140.751 47.5785 140.673 47.6174 140.556 47.6174C140.399 47.6564 140.243 47.6954 140.087 47.7733C139.618 47.9292 139.189 48.085 138.759 48.2799C136.26 49.3709 134.073 51.0465 132.393 53.1507C131.886 53.7742 132.003 54.7094 132.628 55.177C132.784 55.2939 132.94 55.3718 133.096 55.4108C133.682 55.6056 134.307 55.4108 134.658 54.9432C136.064 53.1897 137.9 51.8258 139.931 50.8906C140.399 50.6958 140.907 50.501 141.415 50.3451C141.454 50.3451 141.532 50.3061 141.571 50.3061H141.61C142.079 50.1892 142.547 50.0723 142.977 49.9554C143.094 49.9554 143.172 49.9165 143.289 49.9165C143.446 49.8775 143.563 49.8775 143.719 49.8385C143.797 49.8385 143.875 49.7996 143.992 49.7996C144.188 49.7606 144.383 49.7606 144.578 49.7606L145.398 49.7216C145.476 49.7216 145.555 49.7216 145.672 49.7216H145.711C145.789 49.7216 145.828 49.7216 145.906 49.7216H145.945C145.984 49.7216 146.062 49.7216 146.14 49.7216H146.297C146.453 49.7216 146.609 49.7606 146.765 49.7606C147 49.7996 147.273 49.7996 147.546 49.8775H147.585C147.624 49.8775 147.702 49.8775 147.781 49.9165L148.523 50.0723C148.64 50.1113 148.718 50.1113 148.835 50.1503C149.616 50.3451 150.397 50.6179 151.1 50.9296C151.256 51.0075 151.413 51.0855 151.608 51.1634L151.764 51.2413C152.077 51.3972 152.35 51.5531 152.623 51.7089C154.615 52.8779 156.255 54.5535 157.466 56.5798C158.794 58.8009 159.458 61.3337 159.419 63.9055C159.419 64.568 159.809 65.1135 160.434 65.3083C160.59 65.3473 160.707 65.3863 160.864 65.3863C161.684 65.3863 162.348 64.7628 162.348 63.9445C162.387 60.8661 161.567 57.7878 160.005 55.099C158.599 52.6831 156.607 50.6958 154.225 49.254C157.7 46.4095 162.348 45.3963 166.683 46.6043L166.8 46.2146L166.761 46.6043C166.839 46.6043 166.878 46.6433 166.956 46.6433L167.151 46.7212C167.19 46.7212 167.269 46.7602 167.347 46.7991C174.728 49.2151 178.789 57.0474 176.407 64.3731Z" fill="#2D4E47"/>
</svg>
