<svg width="128" height="139" viewBox="0 0 128 139" fill="none" xmlns="http://www.w3.org/2000/svg">
<path d="M37.9759 97.1648C35.2771 93.5019 32.7325 90.0317 31.4988 87.1399C29.571 82.513 29.7638 74.6858 29.8795 68.4009C29.9566 64.8536 30.0337 61.8076 29.7253 59.8411C29.1084 55.754 27.0265 52.361 23.9807 50.4716C21.2819 48.8137 18.1204 48.4666 14.8048 49.5077C11.4891 50.5487 9.0602 52.6309 7.78791 55.5227C6.36141 58.8001 6.59273 62.7715 8.40478 66.5116C9.29153 68.3238 11.065 70.7915 13.1469 73.6447C16.8482 78.7343 21.3976 85.0963 22.4385 89.9931C23.0939 93.0777 22.9783 97.3962 22.8241 101.946C22.5927 108.771 22.3614 115.827 24.8289 120.145C27.6433 125.08 31.8457 127.895 36.7036 128.049C37.5518 128.088 38.3614 127.972 39.171 127.702C39.9421 127.471 40.7132 127.085 41.3686 126.584C45.2626 123.692 47.1518 118.988 46.6506 113.359C46.2265 108.347 42.0241 102.679 37.9759 97.1648ZM39.865 124.502C39.0168 125.119 38.0144 125.466 36.9735 125.466C36.8963 125.466 36.8578 125.466 36.8192 125.466C31.8072 125.312 28.7614 121.765 27.1036 118.834C24.9831 115.133 25.2144 108.424 25.4457 101.946C25.6 97.2419 25.7542 92.8078 25.0216 89.4148C23.865 83.9781 19.1229 77.4234 15.2674 72.1024C13.2626 69.3263 11.5277 66.9357 10.7566 65.3163C9.29153 62.2702 9.0602 59.0314 10.1783 56.4481C11.1421 54.2503 13.0313 52.6694 15.6144 51.8597C18.1976 51.05 20.665 51.2813 22.7084 52.5537C25.0988 54.0575 26.7566 56.8336 27.2578 60.1881C27.5277 61.9618 27.4506 64.8922 27.3735 68.3238C27.2192 74.84 27.065 82.9756 29.1855 88.1038C30.5349 91.3041 33.1566 94.8899 35.971 98.6686C39.8265 103.874 43.7976 109.272 44.1445 113.513C44.4144 116.868 43.9132 121.495 39.865 124.502Z" fill="#2D4E47"/>
<path d="M114.583 68.2082C116.395 64.3524 116.588 60.2268 115.085 56.9108C113.774 53.9419 111.229 51.8212 107.798 50.7801C104.366 49.7391 101.089 50.1247 98.352 51.8983C97.5809 52.3996 96.8869 52.9779 96.2315 53.6334C94.3038 55.6384 92.993 58.4531 92.5303 61.6148C92.3375 63.0415 92.299 64.9308 92.3761 67.2057C92.3761 68.2082 92.4146 69.3263 92.4532 70.4445C92.5303 72.2567 92.5689 74.2231 92.6074 76.1896C92.646 81.2021 92.4146 86.3302 91.0267 89.7618C90.1014 92.0367 88.405 94.6201 86.4773 97.3577C85.8219 98.2831 85.1665 99.2084 84.4725 100.172C80.3472 105.879 76.0677 111.778 75.6821 116.868C75.2195 122.69 77.2243 127.51 81.2725 130.44C81.9665 130.941 82.7375 131.327 83.5472 131.558C84.3568 131.79 85.205 131.905 86.0532 131.867C91.0267 131.674 95.3448 128.705 98.1978 123.615C100.704 119.143 100.395 111.855 100.087 104.838C99.8942 100.134 99.7014 95.7383 100.357 92.538C101.398 87.4869 106.024 80.8936 109.764 75.6112C111.885 72.6423 113.697 70.0589 114.583 68.2082ZM97.8122 91.9982C97.1183 95.5069 97.311 100.095 97.5038 104.915C97.7737 111.585 98.0821 118.487 95.9616 122.304C94.2652 125.35 91.1809 129.013 86.0146 129.206C84.8966 129.245 83.7785 128.898 82.8532 128.242C78.6508 125.196 78.0725 120.454 78.3424 116.983C78.6893 112.588 82.7375 106.997 86.6315 101.599C89.4845 97.6661 92.1448 93.9646 93.4942 90.6487C95.6146 85.3663 95.3448 76.9993 95.152 70.2517C95.0363 66.743 94.9592 63.6969 95.1905 61.8847C95.6918 58.4145 97.3881 55.5613 99.8171 53.9804C101.899 52.6309 104.405 52.361 107.104 53.1707C109.803 53.9804 111.73 55.5998 112.733 57.8362C113.889 60.4967 113.735 63.8126 112.232 66.9743C111.46 68.6323 109.687 71.1 107.644 73.9918C103.75 79.5826 98.9303 86.4073 97.8122 91.9982Z" fill="#2D4E47"/>
<path d="M119.557 73.8762C120.174 72.8737 120.636 72.0254 121.022 71.2157C123.721 65.4706 123.952 59.1858 121.6 53.9419C119.441 49.0837 115.277 45.5364 109.88 43.917C104.482 42.2976 99.0073 42.953 94.535 45.8448C89.7157 48.9295 86.4 54.289 85.5133 60.5738C85.3591 61.4992 85.3205 62.5017 85.282 63.6199L77.4555 67.8227C75.4121 68.9023 73.947 70.7145 73.2916 72.9508L72.2121 76.5752L67.894 76.8066C67.6627 76.4595 67.4314 76.1125 67.2772 75.727C66.2747 73.5677 66.082 71.4471 66.7374 69.8662C67.2 68.748 68.0868 67.9383 69.3976 67.4756C70.1687 67.2057 70.9398 67.0515 71.7109 66.9358C73.2531 66.6659 74.8723 66.3575 75.7205 64.9308C76.9543 62.8487 76.029 59.9955 75.2579 57.682C75.7205 57.6435 76.1832 57.4892 76.5687 57.2579C76.9543 58.029 77.6482 58.6074 78.5735 58.8387C80.1543 59.1858 81.735 58.2218 82.1591 56.641L90.2555 27.7999C90.7952 25.872 90.6024 23.7899 89.6386 22.0548C89.2145 21.3222 88.6747 20.6668 88.0579 20.0884L87.6338 19.7028H87.5952C86.8627 19.163 86.053 18.7389 85.1663 18.5075C84.1639 18.2376 83.1229 18.1605 82.082 18.3148L81.8892 18.3533C79.0747 18.8546 76.8 20.9367 76.029 23.6743L67.8555 52.631C67.4314 54.1733 68.241 55.8698 69.7832 56.3711C70.6699 56.6795 71.5567 56.5253 72.2892 56.0626C72.5591 56.5638 72.9061 56.9494 73.4073 57.2579C73.4844 57.5663 73.6 57.8748 73.7157 58.1833C74.4097 60.2654 75.1808 62.6559 74.294 64.1211C73.8314 64.8537 72.9061 65.0851 71.4025 65.355C70.6314 65.5092 69.7061 65.6634 68.8579 65.9719C67.1229 66.5888 65.8892 67.7455 65.2338 69.2878C64.3856 71.2928 64.6169 73.8762 65.7735 76.421C65.8506 76.5752 65.9278 76.768 66.0434 76.9222L61.7253 77.1921C61.841 76.8066 61.8796 76.3439 61.9181 75.8812C61.9567 73.2207 60.029 70.5602 57.4458 69.7891C55.2482 69.0951 52.6265 70.6759 49.8506 72.2953C46.9976 73.9919 44.0675 75.727 41.7543 74.9944C40.5205 74.6088 39.4796 73.5292 38.6314 71.717C38.2073 70.8301 37.7446 68.8252 38.7085 66.9744C39.5952 65.2007 41.5229 64.0055 44.3759 63.4271C44.4916 63.3885 44.7615 63.3885 45.0699 63.35C46.4193 63.2729 48.6555 63.1186 49.6193 61.8077C49.9278 61.4221 50.2362 60.7281 50.0049 59.7256C49.5808 57.7977 47.4603 57.4892 45.7253 57.2193C44.4916 57.0265 43.2193 56.8723 42.7567 56.2168C42.6025 55.9855 42.5253 55.7156 42.5639 55.33C43.2193 55.0601 43.7591 54.5589 44.1061 53.9805C44.8 54.4432 45.6482 54.5974 46.4964 54.4046C48.1543 54.0191 49.1567 52.3611 48.7326 50.7031L47.6531 46.3461L44.1061 31.7328L41.4458 20.8596C40.4434 16.811 36.3567 14.3433 32.347 15.3458C28.2603 16.3483 25.7928 20.4354 26.7952 24.484L27.4506 27.2216L32.8868 49.4693C31.4603 47.5028 29.7253 45.8063 27.682 44.5339C23.3253 41.7963 18.0049 41.1794 12.8 42.7988C7.55667 44.4182 3.54703 47.927 1.50366 52.6695C-0.732484 57.7591 -0.462605 63.8898 2.23619 69.4035C3.35426 71.7555 5.32053 74.4546 7.59523 77.5777C10.3711 81.4335 14.9976 87.834 15.7687 91.3042C16.2314 93.5791 16.1157 97.6276 16 101.561C15.7302 109.349 15.4603 117.369 18.8916 123.423C22.9398 130.517 29.1856 134.566 36.5494 134.836C38.1687 134.874 39.7494 134.681 41.2916 134.18C42.8338 133.718 44.2603 132.985 45.5326 132.021C51.0458 127.972 53.8988 121.688 53.7061 114.285C55.9422 115.942 57.9085 116.984 59.1037 117.562L59.7205 128.242C59.8362 130.286 61.6097 131.867 63.6531 131.751C65.6964 131.635 67.2771 129.862 67.1615 127.818L66.5446 117.138C67.1229 116.791 67.8555 116.289 68.7037 115.634C68.6651 115.827 68.6651 116.02 68.6651 116.251C68.0097 124.656 71.0555 131.713 77.147 136.147C78.4964 137.111 79.9615 137.843 81.5422 138.344C83.1229 138.807 84.7808 139.038 86.4386 138.961C93.9952 138.653 100.395 134.412 104.482 127.047C106.217 123.924 107.142 120.068 107.374 114.94L113.619 111.585C116.588 109.966 118.747 107.306 119.749 104.105L124.492 88.2967C125.147 86.0989 124.916 83.7469 123.836 81.7419L119.557 73.8762ZM87.2097 22.2091C87.2868 21.9777 87.5952 21.9392 87.7109 22.132C87.8651 22.3633 88.0193 22.5561 88.1735 22.7874C88.9446 24.1755 89.0988 25.7949 88.6747 27.3372L80.5398 56.2939C80.3085 57.0651 79.4988 57.4892 78.7278 57.2193C78.0338 56.9494 77.6482 56.1783 77.8796 55.4842L87.2097 22.2091ZM72.0579 53.9034C71.8265 54.6745 71.0169 55.0987 70.2458 54.8288C69.5518 54.5974 69.1663 53.7877 69.3976 53.0937L77.5711 24.0984C78.0723 22.3247 79.3832 20.9367 81.041 20.2812C81.2723 20.2041 81.5037 20.3969 81.4265 20.6282L72.0579 53.9034ZM74.4868 56.024C73.7928 55.7927 73.4073 54.983 73.6386 54.289L82.9687 21.0909C83.1615 20.3583 83.9326 19.8571 84.6651 20.0498C85.0506 20.127 85.3591 20.3969 85.5133 20.7053C85.7061 21.0138 85.7446 21.3994 85.629 21.7849L76.2603 55.0601C76.0675 55.8313 75.2579 56.2939 74.4868 56.024ZM75.7591 73.6834C76.2217 72.1411 77.2627 70.8687 78.6506 70.1361L85.2434 66.5888C85.2434 67.8612 85.3205 69.2107 85.3591 70.6759C85.3976 72.4496 85.4747 74.6859 85.4747 76.9608C85.4747 78.8501 85.4362 80.7394 85.282 82.436C85.1278 84.2867 84.8579 85.9447 84.3952 87.0629C84.0868 87.7955 83.6241 88.6823 83.0073 89.6462C82.1591 91.0343 81.041 92.6152 79.8844 94.2346C79.4988 94.8129 79.0747 95.3913 78.6506 95.9311C77.1856 97.9361 75.7591 99.9411 74.4097 101.985L71.7494 97.0878C70.4771 94.7358 70.2073 91.9982 70.9784 89.4534L72.6362 83.8626L73.3302 81.5106L74.1784 78.7344L74.8723 76.3824L75.7591 73.6834ZM67.6241 79.1586L69.629 79.0429L71.4796 78.9272L70.9012 80.8166L70.6314 81.7034L69.5904 81.7805L56.2506 82.5516L53.1663 82.7444L39.4025 83.5541L38.747 83.5927C38.0916 83.6313 37.5519 83.2071 37.3591 82.6288C37.3205 82.5516 37.3205 82.4745 37.3205 82.3589V82.3203C37.282 81.5491 37.8603 80.9322 38.5928 80.8937L48.8482 80.2767L51.1229 80.1611L58.0627 79.7369L60.4531 79.5827L67.6241 79.1586ZM41.2531 76.5752C44.2603 77.5006 47.5374 75.5727 50.6603 73.6834C53.0121 72.2953 55.441 70.8687 56.9446 71.3314C58.8338 71.9098 60.2988 73.8762 60.2603 75.8426C60.2603 76.3824 60.1446 76.8451 59.9519 77.2693L38.4772 78.5417C37.9374 78.5802 37.3976 78.7344 36.935 78.9658C36.7808 76.5752 36.7422 73.9147 36.7808 71.5242C36.8579 71.8326 36.9735 72.1411 37.1278 72.411C38.1687 74.6859 39.5181 76.0354 41.2531 76.5752ZM29.0314 26.836L28.3759 24.0984C27.6049 20.9367 29.5326 17.7364 32.694 16.9652C35.8555 16.1941 39.0555 18.122 39.8266 21.2837L42.4868 32.1569L46.0723 46.7702L47.1519 51.1272C47.3446 51.8984 46.882 52.6695 46.1109 52.8238C45.3398 53.0166 44.5687 52.5539 44.4145 51.7827L39.788 32.851L37.8217 24.7153C37.7061 24.2912 37.282 24.0213 36.8193 24.0984C36.3567 24.2141 36.0868 24.6382 36.2025 25.1009L38.2073 33.2365L42.8338 52.1683C42.988 52.7467 42.7567 53.325 42.294 53.6335C42.2169 53.5949 42.1784 53.5564 42.1012 53.5564C41.7543 53.4792 41.4073 53.6335 41.2531 53.9034C40.7133 53.8263 40.2506 53.4021 40.0964 52.8238L33.388 25.7949C33.2723 25.3708 32.8482 25.1009 32.3856 25.178C31.9615 25.2937 31.6916 25.7178 31.7687 26.1805L38.4 53.2479C38.5928 54.0191 38.1302 54.7902 37.3591 54.983C36.588 55.1758 35.8169 54.7131 35.6627 53.9419L34.5832 49.5849L29.0314 26.836ZM37.7832 56.5638C38.6314 56.3711 39.3253 55.7927 39.7109 55.0987C40.0579 55.33 40.482 55.4842 40.9061 55.5614C40.9061 56.1783 41.0988 56.7181 41.4073 57.1808C42.2555 58.4146 43.9133 58.646 45.494 58.8773C47.1904 59.1086 48.2314 59.34 48.3856 60.1111C48.4627 60.5353 48.3856 60.7666 48.2699 60.8823C47.7302 61.5763 45.841 61.692 44.9157 61.7691C44.5302 61.8077 44.2217 61.8077 44.029 61.8462C41.7157 62.3089 38.6314 63.4657 37.2434 66.2804C37.1278 66.5503 37.0121 66.7816 36.8964 67.0515C36.9735 63.8512 36.9735 61.0365 36.6266 58.8002C36.5109 58.029 36.3567 57.2579 36.1639 56.5253C36.6266 56.641 37.2049 56.6795 37.7832 56.5638ZM51.0073 112.935C51.6241 120.145 49.1181 126.237 43.9519 130.055C41.8314 131.635 39.2097 132.445 36.5494 132.368C30.1109 132.137 24.5976 128.551 21.0121 122.266C17.9278 116.868 18.1976 109.195 18.429 101.753C18.5446 97.6662 18.6988 93.4634 18.1591 90.8801C17.3494 86.8701 12.7229 80.431 9.6386 76.1511C7.44101 73.105 5.55185 70.4831 4.51089 68.3625C2.15908 63.5042 1.92776 58.1447 3.81691 53.7491C5.55185 49.7006 9.02173 46.6931 13.5326 45.305C18.0434 43.917 22.5928 44.4182 26.3326 46.7702C30.4193 49.315 33.2338 53.8648 34.082 59.1858C34.4675 61.5378 34.3904 64.7766 34.2747 68.5167C34.1591 73.7605 33.9663 81.7034 35.547 85.482C36.241 87.14 37.5904 89.2221 39.1711 91.4199C39.9037 92.4609 40.7133 93.5405 41.4844 94.5816C42.0241 95.3142 42.6025 96.0853 43.1422 96.8565C45.7253 100.404 48.1928 104.028 49.6579 107.653C50.2747 109.156 50.6988 110.66 50.9302 112.164C50.9687 112.395 51.0073 112.665 51.0073 112.935ZM64.694 115.595C64.2699 115.827 64.0771 116.328 64.1543 116.791C64.1543 116.829 64.1543 116.868 64.1543 116.945L64.8097 128.05C64.8482 128.821 64.2699 129.476 63.4988 129.553C62.7278 129.592 62.0723 129.013 62.0338 128.242L61.3784 117.138C61.3784 117.099 61.3784 117.061 61.3784 116.984C61.4169 116.521 61.147 116.058 60.6844 115.865C59.5278 115.364 56.6362 113.937 53.3976 111.238C52.3181 104.915 47.8844 98.9 43.6049 93.1164C42.8338 92.0754 42.0627 90.9957 41.3302 89.9932C41.0988 88.6823 40.9061 87.2942 40.7904 85.829L69.9759 84.1325L68.8579 87.834L68.588 88.798C68.4723 89.1835 68.3567 89.6077 68.2796 89.9932C67.7012 92.8465 68.1639 95.8154 69.5518 98.4374L72.9061 104.645C71.441 107.113 70.2458 109.58 69.4747 112.125C67.3157 113.937 65.5037 115.094 64.694 115.595ZM104.79 112.935C104.79 113.321 104.79 113.706 104.752 114.092C104.675 116.637 104.405 118.834 103.981 120.762C103.557 122.69 102.94 124.348 102.13 125.775C98.5061 132.291 92.8772 136.07 86.2458 136.339C83.5085 136.455 80.8097 135.645 78.6121 134.026C73.2531 130.132 70.5928 123.885 71.1711 116.444C71.2482 115.248 71.5181 114.053 71.8651 112.858C72.482 110.776 73.4458 108.694 74.641 106.65L75.4892 105.262C77.1085 102.64 78.9976 99.9797 80.8482 97.4349C81.1952 96.9722 81.5037 96.5095 81.8506 96.0468C83.9711 93.0779 86.0145 90.1475 86.9012 87.9883C88.482 84.0939 88.2121 76.2282 88.0193 70.5217C87.9422 68.2853 87.8651 66.2032 87.9037 64.3525V64.0055L87.8651 63.9669C87.9037 62.8102 87.9422 61.7691 88.0964 60.8823C88.9061 55.3686 91.7591 50.6645 95.9615 48.0041C99.7784 45.5749 104.482 44.9966 109.147 46.3847C113.812 47.7727 117.398 50.8573 119.248 54.983C121.253 59.5328 121.06 65.008 118.708 70.059C118.284 70.9073 117.745 71.9098 116.974 73.0665C115.971 74.6088 114.776 76.3439 113.465 78.1561C112.424 79.6213 111.268 81.2407 110.149 82.9372C107.682 86.6387 105.369 90.5331 104.79 93.3478C104.328 95.6612 104.405 99.2856 104.559 102.987C104.598 103.527 104.598 104.028 104.636 104.568C104.713 107.383 104.829 110.197 104.79 112.935ZM121.947 87.5641L117.205 103.334C116.434 105.879 114.699 108 112.347 109.272L107.412 111.932V111.855C107.412 111.316 107.412 110.776 107.412 110.236C107.412 110.082 107.412 109.966 107.412 109.812C107.412 109.311 107.412 108.809 107.374 108.347C107.374 108.308 107.374 108.231 107.374 108.192C107.374 107.653 107.335 107.074 107.296 106.534C107.296 106.38 107.296 106.226 107.296 106.072C107.296 105.571 107.258 105.031 107.219 104.529C107.065 100.481 106.872 96.3167 107.335 93.9647C108.068 90.3788 112.771 83.7469 115.586 79.7369C115.778 79.5056 115.933 79.2742 116.087 79.0043C116.164 78.8887 116.241 78.773 116.318 78.6573C116.434 78.5031 116.549 78.3489 116.627 78.1946L116.858 77.8862C116.974 77.7319 117.089 77.5392 117.205 77.3849C117.282 77.3078 117.321 77.2307 117.398 77.115C117.59 76.8451 117.745 76.6138 117.899 76.3824L121.446 82.9758C122.255 84.4024 122.41 86.0218 121.947 87.5641Z" fill="#2D4E47"/>
<path d="M127.383 16.2327C119.711 13.1481 117.938 10.8347 115.509 0.771151C115.393 0.30846 115.007 0 114.506 0C114.005 0 113.619 0.30846 113.504 0.771151C111.075 10.7961 109.301 13.1096 101.629 16.2327C101.244 16.387 101.012 16.7725 101.012 17.1581C101.012 17.5437 101.282 17.9293 101.629 18.0835C109.301 21.1681 111.075 23.4816 113.504 33.5451C113.619 34.0078 114.005 34.3162 114.506 34.3162C115.007 34.3162 115.393 34.0078 115.509 33.5451C117.938 23.5201 119.711 21.2067 127.383 18.0835C127.769 17.9293 128 17.5437 128 17.1581C128 16.7725 127.769 16.387 127.383 16.2327ZM114.506 29.3423C112.501 22.5176 110.227 19.78 104.598 17.1967C110.188 14.6133 112.501 11.8757 114.506 5.05104C116.511 11.8757 118.786 14.6133 124.415 17.1967C118.824 19.7415 116.511 22.5176 114.506 29.3423Z" fill="#2D4E47"/>
<path d="M95.1134 33.0436C98.7375 34.5088 99.5857 35.5884 100.742 40.3696C100.781 40.6009 100.974 40.7551 101.205 40.7551C101.436 40.7551 101.629 40.6009 101.668 40.3696C102.824 35.627 103.634 34.5088 107.297 33.0436C107.489 32.9665 107.605 32.8123 107.605 32.5809C107.605 32.3496 107.489 32.1954 107.297 32.1183C103.672 30.6531 102.824 29.5735 101.668 24.7923C101.629 24.561 101.436 24.4067 101.205 24.4067C100.974 24.4067 100.781 24.561 100.742 24.7923C99.5857 29.5349 98.776 30.6531 95.1134 32.1183C94.9206 32.1954 94.8049 32.3496 94.8049 32.5809C94.8049 32.8123 94.9206 32.9665 95.1134 33.0436ZM101.166 26.8359C102.13 30.0747 103.21 31.3857 105.87 32.5809C103.21 33.8148 102.13 35.1257 101.166 38.326C100.203 35.0872 99.123 33.7762 96.4628 32.5809C99.1616 31.3857 100.241 30.0747 101.166 26.8359Z" fill="#2D4E47"/>
<path d="M7.5953 23.7902C11.2194 25.2554 12.0676 26.335 13.2242 31.1161C13.2628 31.3475 13.4555 31.5017 13.6869 31.5017C13.9182 31.5017 14.111 31.3475 14.1495 31.1161C15.3061 26.3736 16.1158 25.2554 19.7784 23.7902C19.9712 23.7131 20.0869 23.5589 20.0869 23.3275C20.0869 23.0962 19.9712 22.9419 19.7784 22.8648C16.1543 21.3996 15.3061 20.32 14.1495 15.5389C14.111 15.3076 13.9182 15.1533 13.6869 15.1533C13.4555 15.1533 13.2628 15.3076 13.2242 15.5389C12.0676 20.2815 11.2579 21.3996 7.5953 22.8648C7.40253 22.9419 7.28687 23.0962 7.28687 23.3275C7.28687 23.5589 7.40253 23.7131 7.5953 23.7902ZM13.6483 17.5824C14.6122 20.8213 15.6917 22.1322 18.3519 23.3275C15.6917 24.5614 14.6122 25.8723 13.6483 29.0726C12.6845 25.8338 11.6049 24.5228 8.9447 23.3275C11.6435 22.1322 12.723 20.8213 13.6483 17.5824Z" fill="#2D4E47"/>
</svg>
