<svg width="162" height="105" viewBox="0 0 162 105" fill="none" xmlns="http://www.w3.org/2000/svg">
<path d="M31.0372 58.7603C26.348 58.7603 22.5396 62.5789 22.5396 67.2808C22.5396 69.6187 23.4981 71.8528 25.1821 73.4634V81.1526C25.1821 84.3738 27.7988 86.9975 31.0113 86.9975C34.2239 86.9975 36.8405 84.3738 36.8405 81.1526V73.4634C38.5245 71.8528 39.4831 69.6187 39.4831 67.2808C39.5349 62.5529 35.7265 58.7603 31.0372 58.7603ZM34.0425 70.45C33.2394 71.2034 32.773 72.2944 32.773 73.3854V81.1266C32.773 82.0878 31.9958 82.8671 31.0372 82.8671C30.0787 82.8671 29.3014 82.0878 29.3014 81.1266V73.3854C29.3014 72.2944 28.8351 71.2034 28.032 70.45C27.1511 69.6187 26.6589 68.4757 26.6589 67.2548C26.6589 64.8389 28.6278 62.8647 31.0372 62.8647C33.4466 62.8647 35.4156 64.8389 35.4156 67.2548C35.4156 68.4757 34.9234 69.6187 34.0425 70.45Z" fill="#2D4E47"/>
<path d="M105.729 76.2432H84.8214C82.6711 76.2432 80.9353 77.9836 80.9353 80.1397C80.9353 82.2959 82.6711 84.0363 84.8214 84.0363H105.729C107.879 84.0363 109.615 82.2959 109.615 80.1397C109.589 77.9836 107.853 76.2432 105.729 76.2432Z" fill="#2D4E47"/>
<path d="M159.15 79.6462L158.969 79.5943V71.1257C158.969 70.1126 158.062 69.4631 156.041 68.9956L155.86 68.9436V60.0854C155.86 58.6826 154.15 58.0851 151.145 57.6175V37.693C151.145 32.2637 146.74 27.8476 141.326 27.8476H92.8009C92.9823 24.4706 92.2568 21.6131 90.4951 19.379C89.8215 22.5482 88.7852 25.3798 87.4121 27.8476C86.324 29.8219 85.0286 31.5364 83.526 33.043C78.7331 37.8488 71.8417 40.3427 63.059 40.3427H57.6184L56.4785 47.5124C56.2712 47.4864 56.0899 47.4864 55.8826 47.4864H52.7478L54.1727 38.5502L54.0691 39.1997C54.3023 37.7709 55.5199 36.7058 56.9966 36.7058H63.059C68.681 36.7058 73.707 35.6408 77.7486 33.069C79.8212 31.7442 81.6347 30.0297 83.1115 27.8736C84.8991 25.2759 86.2463 22.0027 87.0235 17.9762C87.1012 17.5606 87.2308 16.7553 87.2308 16.7553C88.008 11.6118 87.2308 8.1049 84.4327 4.93568C81.3757 1.50668 75.8055 0 68.681 0H48.0067C46.5559 0 45.3123 1.06507 45.0792 2.49381L42.8252 16.6254C39.6127 14.0017 35.4934 12.4171 31.0373 12.4171C20.7261 12.4171 12.332 20.8337 12.332 31.1727V47.5383H6.166C2.77211 47.5643 0 50.3439 0 53.7469V91.9594C0 95.3624 2.77211 98.142 6.166 98.142H55.9085C57.748 98.142 59.406 97.3367 60.546 96.0379H124.201V101.467C124.201 101.935 124.486 102.376 124.952 102.532C125.237 102.636 131.818 105 141.455 105C147.155 105 152.777 104.169 158.192 102.558C158.684 102.428 158.995 101.987 158.995 101.467V93.1544L159.176 93.1024C159.979 92.8946 160.627 92.7128 161.223 92.5309C161.715 92.401 162.026 91.9594 162.026 91.4399V81.6984C162 80.7373 161.119 80.0878 159.15 79.6462ZM153.969 73.6455C154.383 73.5935 154.746 73.5156 155.083 73.4636L155.212 73.4377C155.549 73.3597 155.886 73.3078 156.197 73.2298L156.715 73.1V80.0099L156.534 80.0619C156.067 80.1917 155.549 80.3216 154.927 80.4775L154.616 80.5554V75.2301C154.616 74.9963 154.409 74.7885 154.176 74.7885C153.943 74.7885 153.735 74.9963 153.735 75.2301V80.7632L153.373 80.8412C153.295 80.8671 153.217 80.8671 153.14 80.8931C152.699 80.997 152.285 81.075 151.844 81.1529L151.43 81.2308V76.6329C151.43 76.425 151.3 76.2692 151.093 76.2172C151.067 76.2172 151.015 76.1912 150.989 76.1912C150.756 76.1912 150.549 76.3991 150.549 76.6329V81.3867L150.342 81.4127C148.813 81.6465 147.336 81.8283 145.911 81.9322C144.357 82.0621 142.88 82.1141 141.455 82.1141C137.206 82.1141 133.605 81.6465 130.937 81.1269C130.134 80.9711 129.356 80.8152 128.605 80.6333C127.88 80.4515 127.206 80.2956 126.61 80.0878L126.429 80.0359V73.074L126.947 73.2039C127.025 73.2298 127.103 73.2298 127.154 73.2558L127.336 73.3078V79.0487C127.336 79.2825 127.543 79.4903 127.776 79.4903C128.009 79.4903 128.217 79.2825 128.217 79.0487V73.4636L128.502 73.5156C128.709 73.5416 128.916 73.5675 129.149 73.6195L129.305 73.6455C129.512 73.6714 129.693 73.6974 129.901 73.7234C130.004 73.7494 130.134 73.7494 130.263 73.7754L130.522 73.8013V78.6331C130.522 78.8669 130.73 79.0747 130.963 79.0747C131.196 79.0747 131.403 78.8669 131.403 78.6331V73.9052L131.662 73.9312C132.414 74.0092 133.217 74.0611 134.046 74.1131L134.279 74.139V78.1395C134.279 78.3733 134.486 78.5811 134.719 78.5811C134.952 78.5811 135.16 78.3733 135.16 78.1395V74.191L135.419 74.217C135.911 74.243 136.429 74.2689 136.921 74.2689H137.155V77.7239C137.155 77.9577 137.362 78.1655 137.595 78.1655C137.828 78.1655 138.035 77.9577 138.035 77.7239V74.2949H138.295C139.124 74.3209 139.953 74.3209 140.808 74.3469H141.041V76.5289C141.041 76.7887 141.248 76.9706 141.481 76.9706C141.714 76.9706 141.922 76.7627 141.922 76.5289V74.3469H142.155C143.424 74.3469 144.668 74.3209 145.86 74.2689C147.725 74.217 149.487 74.0871 151.067 73.9572C151.818 73.8793 152.518 73.8013 153.166 73.7234C153.373 73.6974 153.58 73.6714 153.761 73.6455H153.969ZM153.062 62.2155L153.58 62.0856V68.9956L153.269 69.0735C153.114 69.1254 152.984 69.1514 152.829 69.2034L152.699 69.2293C152.518 69.2813 152.336 69.3333 152.129 69.3852C152.026 69.4112 151.896 69.4372 151.792 69.4631L151.378 69.567V64.5794C151.378 64.3976 151.274 64.2417 151.119 64.1898C151.067 64.1638 150.989 64.1378 150.937 64.1378C150.704 64.1378 150.497 64.3456 150.497 64.5794V69.7749L150.16 69.8528C150.057 69.8788 149.979 69.8788 149.901 69.9048C149.72 69.9307 149.564 69.9827 149.409 70.0087H149.383C149.202 70.0606 148.994 70.0866 148.813 70.1126L148.217 70.2165V64.9691C148.217 64.7353 148.01 64.5275 147.777 64.5275C147.544 64.5275 147.336 64.7353 147.336 64.9691V70.3983L147.077 70.4503C146.948 70.4762 146.792 70.5022 146.663 70.5022C146.481 70.5282 146.326 70.5542 146.145 70.5802C146.093 70.5802 146.015 70.6061 145.937 70.6061L145.601 70.6581C145.419 70.6841 145.264 70.71 145.082 70.71L144.461 70.788V66.8914C144.461 66.6576 144.253 66.4498 144.02 66.4498C143.787 66.4498 143.58 66.6576 143.58 66.8914V70.8919L143.01 70.9179C142.828 70.9438 142.647 70.9438 142.492 70.9698C142.336 70.9698 142.181 70.9958 141.999 70.9958L141.559 71.0218V67.2811C141.559 67.0213 141.352 66.8394 141.118 66.8394C140.859 66.8394 140.678 67.0473 140.678 67.2811V71.0478H140.445C140.315 71.0478 140.186 71.0478 140.03 71.0478C139.875 71.0478 139.694 71.0478 139.538 71.0737C139.383 71.0737 139.227 71.0737 139.072 71.0737C138.916 71.0737 138.761 71.0737 138.58 71.0737H138.139H137.647V68.45C137.647 68.1903 137.44 68.0084 137.206 68.0084C136.973 68.0084 136.766 68.2162 136.766 68.45V71.0478H136.326C136.17 71.0478 136.015 71.0477 135.859 71.0218H135.807C135.678 71.0218 135.548 71.0218 135.419 70.9958C135.263 70.9958 135.134 70.9698 134.978 70.9698H134.927C134.797 70.9698 134.668 70.9698 134.564 70.9438C134.408 70.9438 134.279 70.9179 134.149 70.9179C134.02 70.9179 133.864 70.8919 133.735 70.8919C133.605 70.8919 133.502 70.8659 133.372 70.8659L132.932 70.814C132.802 70.814 132.673 70.788 132.543 70.762H132.491C132.388 70.762 132.258 70.736 132.154 70.736C132.051 70.736 131.921 70.71 131.818 70.71L129.279 70.3464L125.781 69.671C124.978 69.4891 124.201 69.2813 123.501 69.0735L123.32 69.0215V62.0856L123.838 62.2155C124.123 62.2934 124.46 62.3454 124.823 62.4233L124.952 62.4493C125.108 62.4753 125.263 62.5012 125.419 62.5272L125.626 62.5532V68.2422C125.626 68.476 125.833 68.6838 126.066 68.6838C126.299 68.6838 126.507 68.476 126.507 68.2422V62.6831L126.818 62.735C127.517 62.8389 128.32 62.9169 129.175 62.9948L129.408 63.0208V67.7746C129.408 68.0344 129.616 68.2162 129.849 68.2162C130.082 68.2162 130.289 68.0084 130.289 67.7746V63.0987L130.548 63.1247C132.958 63.3065 135.704 63.3845 138.476 63.3845C141.118 63.3845 143.657 63.3065 145.937 63.1507C147.466 63.0468 148.865 62.9169 150.108 62.761C150.316 62.735 150.523 62.7091 150.704 62.6831L150.834 62.6571C150.937 62.6311 151.015 62.6311 151.119 62.6051C151.43 62.5532 151.715 62.5012 151.974 62.4753L152.103 62.4493C152.285 62.4233 152.44 62.3973 152.596 62.3454C152.751 62.2934 152.932 62.2674 153.062 62.2155ZM150.627 59.8775L151.145 59.9555L152.259 60.1113L151.145 60.2672L150.627 60.3451C150.471 60.3711 150.316 60.3971 150.16 60.3971L150.031 60.4231C149.927 60.4231 149.798 60.449 149.668 60.475L149.487 60.527C149.357 60.5529 149.228 60.5529 149.124 60.5789L148.968 60.6049C148.787 60.6309 148.606 60.6569 148.424 60.6569C148.217 60.6828 148.036 60.7088 147.829 60.7088L147.647 60.7348C147.492 60.7348 147.362 60.7608 147.207 60.7608L146.974 60.7867C146.818 60.7867 146.663 60.8127 146.533 60.8127L146.326 60.8387C146.196 60.8387 146.067 60.8647 145.937 60.8647C145.86 60.8647 145.756 60.8906 145.652 60.8906C145.393 60.9166 145.16 60.9166 144.927 60.9426H144.694C144.538 60.9426 144.357 60.9686 144.176 60.9686H143.891C143.709 60.9686 143.528 60.9946 143.347 60.9946H143.087C142.828 60.9946 142.569 61.0205 142.31 61.0205H142.284C142.025 61.0205 141.74 61.0465 141.481 61.0465H141.196C140.989 61.0465 140.808 61.0465 140.6 61.0465H140.289C140.082 61.0465 139.875 61.0465 139.668 61.0465H139.383C139.072 61.0465 138.761 61.0465 138.45 61.0465C138.139 61.0465 137.828 61.0465 137.517 61.0465H137.232C137.025 61.0465 136.818 61.0465 136.611 61.0465H136.3C136.092 61.0465 135.911 61.0465 135.704 61.0465H135.419C135.134 61.0465 134.875 61.0205 134.616 61.0205H134.564C134.305 61.0205 134.046 60.9946 133.787 60.9946H133.528C133.346 60.9946 133.165 60.9686 132.984 60.9686H132.699C132.517 60.9686 132.362 60.9426 132.18 60.9426H131.947C131.714 60.9166 131.481 60.9166 131.248 60.8906H131.222C130.989 60.8647 130.781 60.8647 130.574 60.8387L129.693 60.7608C129.538 60.7608 129.408 60.7348 129.253 60.7348L129.071 60.7088C128.864 60.6828 128.683 60.6569 128.502 60.6569C128.294 60.6309 128.113 60.6309 127.957 60.6049L127.802 60.5789C127.672 60.5529 127.543 60.5529 127.439 60.527L127.284 60.501C127.154 60.475 127.051 60.475 126.921 60.449L126.792 60.4231C126.636 60.3971 126.481 60.3711 126.325 60.3711L124.693 60.1373L126.325 59.9035C128.139 59.6437 132.103 59.1762 138.476 59.1762C141.481 59.1762 143.968 59.2801 145.937 59.4099C148.114 59.5398 149.668 59.7477 150.627 59.8775ZM67.2301 49.9802C67.4374 48.7333 68.5255 47.7981 69.795 47.7981H71.4012C81.3238 47.7981 89.1997 43.9795 91.9978 33.121H141.326C143.865 33.121 145.937 35.1992 145.937 37.7449V50.5257H67.1265L67.2301 49.9802ZM16.4254 31.1987C16.4254 23.1197 22.98 16.5475 31.0373 16.5475C35.4156 16.5475 39.3795 18.4958 42.048 21.5871L37.9287 47.5643H16.4254V31.1987ZM57.9811 91.9594C57.9811 93.1024 57.0485 94.0116 55.9344 94.0116H6.19191C5.05197 94.0116 4.14521 93.0764 4.14521 91.9594V53.7469C4.14521 52.6039 5.07788 51.6947 6.19191 51.6947H37.3069H46.0896H52.126H55.9344C57.0744 51.6947 57.9811 52.6299 57.9811 53.7469V91.9594ZM124.512 90.8424H62.0745V84.0104H71.6085C73.7588 84.0104 75.4946 82.2699 75.4946 80.1138C75.4946 77.9577 73.7588 76.2172 71.6085 76.2172H62.0745V66.19H62.3854C63.6549 66.19 64.743 65.2808 64.9503 64.0079L65.0539 63.4624L65.8829 58.3189H122.854C121.714 58.7345 121.092 59.2801 121.092 60.1113V69.8528C121.092 70.3204 121.377 70.762 121.843 70.9179C121.921 70.9438 122.698 71.2296 124.045 71.5673L124.227 71.6192V80.8671C124.227 81.3347 124.538 81.7763 124.978 81.9322C125.056 81.9582 125.781 82.218 127.103 82.5816L127.284 82.6336V89.6215L127.103 89.6734C125.755 89.9592 124.926 90.3229 124.512 90.8424ZM156.715 100.636L156.534 100.688C156.171 100.792 155.834 100.87 155.471 100.974L155.16 101.051V98.9733V95.5443C155.16 95.3105 154.953 95.1027 154.72 95.1027C154.616 95.1027 154.513 95.1286 154.435 95.2066C154.331 95.2845 154.28 95.4144 154.28 95.5443V98.9733V101.285L154.098 101.337C153.502 101.467 152.906 101.597 152.285 101.727L152 101.779V98.9993V95.9859C152 95.7261 151.792 95.5443 151.559 95.5443C151.326 95.5443 151.119 95.7521 151.119 95.9859V98.9993V101.935L150.912 101.961C150.108 102.091 149.305 102.22 148.502 102.324L148.217 102.35V98.9733V97.8303C148.217 97.5965 148.01 97.3887 147.777 97.3887C147.518 97.3887 147.336 97.5965 147.336 97.8303V98.9733V102.428L147.103 102.454C146.611 102.506 146.093 102.532 145.575 102.584L145.316 102.61V98.2459C145.316 98.0121 145.108 97.8043 144.875 97.8043C144.642 97.8043 144.435 98.0121 144.435 98.2459V102.662H144.201C143.321 102.714 142.466 102.714 141.663 102.714H141.429V99.3889C141.429 99.1291 141.222 98.9473 140.989 98.9473C140.756 98.9473 140.549 99.1551 140.549 99.3889V102.688H140.289C133.528 102.532 128.45 101.259 126.584 100.688L126.403 100.636V93.6999L126.714 93.7778C126.999 93.8558 127.336 93.9337 127.698 93.9856L127.906 94.0116V96.0119V99.311C127.906 99.5448 128.113 99.7526 128.346 99.7526C128.579 99.7526 128.786 99.5448 128.786 99.311V96.0119V94.1675L129.071 94.2195C129.356 94.2714 129.641 94.2974 129.926 94.3493C130.237 94.3753 130.548 94.4273 130.859 94.4532L131.066 94.4792V96.0379V99.8565C131.066 100.09 131.274 100.298 131.507 100.298C131.74 100.298 131.947 100.09 131.947 99.8565V96.0379V94.5831L132.206 94.6091C134.952 94.8429 138.191 94.9728 141.533 94.9728C142.129 94.9728 142.725 94.9728 143.295 94.9468C143.709 94.9468 144.098 94.9728 144.486 94.9728C144.901 94.9728 145.316 94.9728 145.73 94.9468C145.834 94.9468 145.963 94.9468 146.067 94.9468C148.139 94.8949 150.186 94.739 152.233 94.4532H152.336C152.906 94.4013 153.425 94.3233 153.917 94.2454C154.875 94.1155 155.679 93.9597 156.326 93.7778L156.637 93.6999V100.636H156.715ZM159.746 90.6346L159.565 90.6865C159.228 90.7905 158.891 90.8684 158.528 90.9723L158.217 91.0502V85.4651C158.217 85.2313 158.01 85.0235 157.777 85.0235C157.544 85.0235 157.337 85.2313 157.337 85.4651V91.258L157.155 91.31C156.87 91.3879 156.559 91.4399 156.197 91.5178C155.912 91.5698 155.627 91.6477 155.342 91.6997L155.057 91.7516V85.9067C155.057 85.6729 154.85 85.4651 154.616 85.4651C154.383 85.4651 154.176 85.6729 154.176 85.9067V91.9334L153.528 92.0374C153.399 92.0633 153.269 92.0893 153.166 92.0893C153.088 92.0893 153.01 92.1153 152.932 92.1153L152.647 92.1672C152.466 92.1932 152.311 92.2192 152.155 92.2452H152.103C151.974 92.2452 151.844 92.2712 151.741 92.2712L151.326 92.3231V87.7771C151.326 87.5952 151.222 87.4654 151.093 87.3874C151.041 87.3615 150.963 87.3355 150.886 87.3355C150.652 87.3355 150.445 87.5433 150.445 87.7771V92.401L150.212 92.427C149.798 92.453 149.331 92.505 148.891 92.5309C148.839 92.5309 148.761 92.5309 148.709 92.5309L148.45 92.5569V88.1927C148.45 87.933 148.243 87.7511 148.01 87.7511C147.751 87.7511 147.569 87.9589 147.569 88.1927V92.5829H146.17V92.6608C145.704 92.6868 145.264 92.6868 144.797 92.7128H144.538V89.3617C144.538 89.1019 144.331 88.9201 144.098 88.9201C143.865 88.9201 143.657 89.1279 143.657 89.3617V92.7128H143.372C143.243 92.7128 143.113 92.7128 142.984 92.7128L140.704 92.6089L140.238 92.5829C140.082 92.5829 139.953 92.5569 139.797 92.5569H139.694C139.538 92.5569 139.383 92.5309 139.253 92.505H139.15C138.994 92.479 138.865 92.479 138.709 92.453H138.657C135.367 92.1153 132.75 91.5438 131.118 91.1282H131.066C130.885 91.0762 130.73 91.0502 130.574 90.9983L130.341 90.9463C130.289 90.9203 130.237 90.9203 130.211 90.8944C130.03 90.8424 129.849 90.7905 129.719 90.7645L129.538 90.7125V83.7506L130.056 83.8805C130.211 83.9065 130.367 83.9584 130.522 83.9844C130.626 84.0104 130.73 84.0364 130.833 84.0364L131.04 84.0883V89.3357C131.04 89.5695 131.248 89.7773 131.481 89.7773C131.714 89.7773 131.921 89.5695 131.921 89.3357V84.2442L132.414 84.3221C132.621 84.3481 132.802 84.3741 133.009 84.4C133.32 84.452 133.657 84.478 133.994 84.5299L134.201 84.5559V89.8812C134.201 90.115 134.408 90.3229 134.642 90.3229C134.875 90.3229 135.082 90.115 135.082 89.8812V84.6338L135.341 84.6598C138.087 84.8936 141.3 85.0235 144.642 85.0235C145.082 85.0235 145.523 85.0235 145.963 85.0235C147.777 84.9975 149.513 84.9456 151.171 84.8676C153.062 84.7637 154.798 84.6079 156.3 84.426C156.508 84.4 156.715 84.3741 156.896 84.3481L157.026 84.3221C157.44 84.2702 157.829 84.1922 158.166 84.1403L158.295 84.1143C158.477 84.0883 158.632 84.0623 158.787 84.0104C158.943 83.9584 159.098 83.9325 159.254 83.9065L159.772 83.7766V90.6346H159.746Z" fill="#2D4E47"/>
</svg>
