<svg width="146" height="148" viewBox="0 0 146 148" fill="none" xmlns="http://www.w3.org/2000/svg">
<g clip-path="url(#clip0)">
<path d="M107.6 126.9C106.9 134.7 100.9 141.8 93.3002 143.8C93.1002 143.8 93.0002 143.9 92.8002 143.9C91.9002 143.9 91.1001 143.3 90.9001 142.4C90.6001 141.3 91.3002 140.2 92.3002 140C98.3002 138.4 103.1 132.8 103.6 126.6C103.9 123.5 103.2 120.4 102.5 117.2C102.2 115.6 101.8 114 101.6 112.4C101.5 111.4 101.3 110.4 101.3 109.4L105.3 108.8C105.3 109.8 105.4 110.8 105.6 111.8C105.8 113.3 106.1 114.8 106.5 116.3C107.2 119.7 108 123.3 107.6 126.9Z" fill="#2D4E47"/>
<path d="M83.0999 140.4C80.7999 144 77.0999 146.7 72.8999 147.7C72.6999 147.7 72.5999 147.7 72.3999 147.7C71.4999 147.7 70.6999 147.1 70.3999 146.2C70.1999 145.1 70.7999 144 71.8999 143.8C75.0999 143 77.8999 141 79.5999 138.3C81.4999 135.3 82.1999 131.5 82.0999 125.8C82.0999 124.6 81.9999 123.3 81.8999 122.1C81.7999 119.9 81.6999 117.6 81.6999 115.3C81.6999 114.3 81.7999 113.3 81.8999 112.2L85.9999 111.6C85.9999 111.7 85.9999 111.8 85.9999 111.9C85.8999 112.8 85.7999 113.7 85.6999 114.7C85.5999 117 85.6999 119.4 85.7999 121.8C85.8999 123.1 85.8999 124.3 85.9999 125.6C86.2999 129.7 86.0999 135.6 83.0999 140.4Z" fill="#2D4E47"/>
<path d="M145.6 86.6001C145.7 87.7001 144.8 88.6001 143.7 88.7001C143.3 88.7001 142.8 88.7001 142.4 88.7001C138.6 88.7001 134.9 87.8001 131.6 86.1001C130.6 85.6001 129.7 85.1001 128.9 84.5001C129.2 83.0001 129.5 81.6001 129.8 80.1001C130.6 80.8001 131.6 81.4001 132.5 81.9001C135.9 83.8001 139.8 84.9001 143.6 84.6001C144.6 84.7001 145.6 85.5001 145.6 86.6001Z" fill="#2D4E47"/>
<path d="M80.7 69.7998L80.1 77.8998H80L80.7 69.7998Z" fill="#2D4E47"/>
<path d="M79.9999 77.8998L77.3999 112.6L79.9999 77.8998ZM79.9999 77.8998L77.3999 112.6L79.9999 77.8998ZM79.9999 77.8998L77.3999 112.6L79.9999 77.8998ZM79.9999 77.8998L77.3999 112.6L79.9999 77.8998ZM79.9999 77.8998L77.3999 112.6L79.9999 77.8998ZM79.9999 77.8998L77.3999 112.6L79.9999 77.8998L80.5999 69.7998L79.9999 77.8998ZM80.6999 68.8998L80.5999 69.6998C80.7999 69.3998 81.0999 69.0998 81.3999 68.7998C81.1999 68.8998 80.9999 68.8998 80.6999 68.8998ZM79.9999 77.8998L77.3999 112.6L79.9999 77.8998ZM79.9999 77.8998L77.3999 112.6L79.9999 77.8998ZM79.9999 77.8998L77.3999 112.6L79.9999 77.8998ZM79.9999 77.8998L77.3999 112.6L79.9999 77.8998Z" fill="#2D4E47"/>
<path d="M129.7 80.1998C129.4 81.5998 129.1 83.0998 128.8 84.5998C127.2 92.5998 125.7 100.7 124.9 105.9L105.3 108.8L101.3 109.4L85.9999 111.7L81.8999 112.3L80.2999 112.5L80.1999 114.4C80.1999 115.1 79.5999 115.7 78.9999 115.8H78.8999H78.9999L81.7999 115.4L85.7999 114.8L101.6 112.5L105.6 111.9L126.5 108.8C127.2 108.7 127.7 108.2 127.8 107.5C128.5 102.6 130 94.3998 131.6 86.2998C131.9 84.8998 132.1 83.4998 132.4 82.1998C131.5 81.4998 130.6 80.8998 129.7 80.1998ZM80.6999 68.8998L80.5999 69.6998C80.7999 69.3998 81.0999 69.0998 81.3999 68.7998C81.1999 68.8998 80.9999 68.8998 80.6999 68.8998Z" fill="#2D4E47"/>
<path d="M113.5 79C112.2 79 111.1 79.4 110.7 79.7C109.8 80.4 109 84 107.9 84.1C106.9 84.1 107.5 80.4 106.9 79.7C106.6 79.4 105.7 79.1 104.4 79.1C101.4 79.1 96.4002 81 93.7002 88.8C92.2002 93.3 92.8002 93.4 92.1002 95C91.9002 95.4 91.6002 95.7 91.4002 96C91.3002 96.1 91.2002 96.2 91.2002 96.3C91.2002 96.5 91.5002 96.5 91.7002 96.5H91.8002C92.9002 96.5 95.4002 95.7 99.8002 92.3C100 92.2 100.2 92.1 100.4 92.1C101.2 92.1 101.6 93.5 100.1 95.4C99.0002 96.8 98.4002 100.8 100.2 102.1C102 103.4 102.7 104.8 102.8 105.1C103 105.5 103.1 105.8 103.2 106.2V106.3C103.3 106.4 103.4 106.5 103.5 106.5C103.8 106.5 103.9 106.2 104.1 106L104.2 105.9C104.4 105.6 104.6 105.4 104.8 105.2C105 104.9 106.3 103.5 108.6 102.1C110.9 100.7 111.9 96.7 111.4 95.3C110.6 93.4 111.6 92 112.4 92C112.6 92 112.7 92.1 112.9 92.2C116 95.4 118.3 96.2 119.3 96.2H119.4C119.7 96.2 119.9 96.1 120 95.9C120 95.7 119.6 95 119.6 94.6C119.5 93 120.2 92.9 120.4 88.4C120.8 80.7 116.5 79 113.5 79Z" fill="#2D4E47"/>
<path d="M136.6 61.3002C136.6 61.5002 134.5 71.2002 132.4 82.1002C131.5 81.6002 130.6 80.9002 129.7 80.3002C131.3 72.3002 132.8 65.1002 133.4 62.2002C131.6 61.7002 127.8 60.4002 119.3 57.5002C119.2 57.8002 119.2 58.2002 119.1 58.5002C117.9 64.9002 115.9 75.0002 114.7 76.2002H102.2C102.2 76.2002 107.1 61.5002 107.7 53.5002C107.6 53.5002 107.4 53.4002 107.3 53.4002C98.2999 50.2002 89.4999 47.1002 85.3999 45.6002L82.6999 81.7002L80.3999 112.6L80.2999 114.5C80.2999 115.2 79.6999 115.8 79.0999 115.9H78.9999C78.8999 115.9 78.8999 115.9 78.7999 115.9C78.3999 115.9 77.9999 115.8 77.7999 115.5C77.4999 115.2 77.2999 114.7 77.2999 114.3L77.3999 112.8L79.9999 78.1002L80.5999 70.0002C80.7999 69.7002 81.0999 69.4002 81.3999 69.1002C81.1999 69.1002 80.8999 69.1002 80.6999 69.1002L82.4999 45.0002C74.9999 47.1002 66.0999 49.5002 58.0999 51.8002C56.3999 52.3002 54.6999 52.8002 53.0999 53.2002C53.0999 53.2002 53.1999 53.3002 53.2999 53.3002C54.8999 54.5002 56.6999 55.7002 58.3999 56.7002C58.9999 57.0002 59.5999 57.4002 60.2999 57.8002C63.1999 59.4002 67.0999 61.6002 68.5999 64.4002H68.4999H68.2999C68.1999 64.4002 68.0999 64.4002 68.0999 64.5002C67.9999 64.5002 67.8999 64.5002 67.7999 64.6002C67.3999 64.8002 66.8999 64.9002 66.4999 65.1002C63.6999 66.4002 61.2999 68.7002 59.0999 71.9002C58.2999 73.1002 57.5999 74.4002 56.8999 75.7002C56.1999 77.0002 55.4999 78.2002 54.7999 79.3002L54.6999 79.4002L54.5999 79.5002C53.5999 81.0002 52.2999 82.3002 50.7999 83.5002C48.3999 84.4002 45.9999 85.0002 43.3999 85.4002C43.1999 85.4002 42.9999 85.4002 42.7999 85.5002C42.8999 86.1002 43.0999 86.6002 43.1999 87.2002C43.1999 87.2002 43.1999 87.2002 43.0999 87.2002C42.1999 87.4002 41.2999 87.6002 40.3999 87.7002C40.2999 87.7002 40.2999 87.7002 40.1999 87.7002C40.0999 87.0002 39.8999 86.3002 39.6999 85.7002C37.5999 85.8002 35.4999 85.6002 33.4999 85.3002C29.4999 84.6002 25.4999 83.0002 23.0999 79.8002C20.5999 76.6002 20.3999 71.5002 23.3999 68.9002C19.7999 69.2002 16.0999 68.7002 12.5999 67.4002C6.59991 65.2002 1.29991 60.1002 0.199907 53.8002C-1.30009 45.3002 6.39991 36.4002 14.9999 36.7002C12.0999 35.9002 3.29991 17.4002 11.4999 3.90021C13.0999 1.30021 16.2999 -0.499787 19.2999 0.100213C22.5999 0.800213 24.5999 4.10021 25.8999 7.20021C28.8999 14.3002 30.6999 21.9002 33.7999 29.0002C37.4999 37.4002 43.1999 45.0002 50.1999 51.0002C52.5999 50.3002 55.2999 49.5002 58.2999 48.7002C58.3999 48.7002 58.3999 48.7002 58.4999 48.6002C59.9999 42.0002 66.2999 36.5002 73.0999 36.7002C70.1999 35.9002 61.3999 17.4002 69.5999 3.90021C71.1999 1.30021 74.3999 -0.499787 77.3999 0.100213C80.6999 0.800213 82.6999 4.10021 83.9999 7.20021C86.9999 14.3002 88.7999 21.9002 91.8999 29.0002C95.3999 36.9002 100.6 44.1002 107.1 49.9002C107.5 50.1002 108 50.2002 108.4 50.4002C112.4 51.8002 116.4 53.2002 120.1 54.4002C129.3 57.6002 134.4 59.3002 135.3 59.4002C135.7 59.4002 136.1 59.6002 136.4 59.9002C136.6 60.4002 136.7 60.8002 136.6 61.3002Z" fill="#2D4E47"/>
<path d="M69.6 70.4C68.7 70.7 67.9 71.2 67.1 71.8C66.3 72.4 65.5 73.3 64.8 74.3C64.6 74.6 64.3 75 64.1 75.3C63.4 76.4 62.8 77.5 62.1 78.7C61.3 80.1 60.5 81.6 59.5 83C56 88.1 50.5 91.6 44.5 93C43.5 93.2 42.5 93.4 41.6 93.6C40.4 93.8 39.2 93.8 38 93.8C34.6 93.8 31.2 93.1 28.1 91.8C27.1 91.3 26.6 90.2 27.1 89.2C27.4 88.4 28.2 88 28.9 88C29.2 88 29.4 88.1 29.7 88.2C32.4 89.4 35.2 89.9 38.1 89.9C39 89.9 39.9 89.9 40.8 89.7C41.8 89.6 42.8 89.4 43.8 89.2C48.6 88 53.1 85.2 56 81.2C56.1 81.1 56.2 80.9 56.3 80.8C56.3 80.7 56.4 80.7 56.4 80.6C57.2 79.4 57.9 78.2 58.6 76.8C59.3 75.6 60 74.3 60.8 73.1C63 69.7 65.6 67.5 68.5 66.6C68.6 66.6 68.7 66.5 68.8 66.5C68.9 66.5 69 66.5 69.1 66.5C69.2 66.5 69.3 66.5 69.4 66.5C69.6 66.5 69.8 66.6 70 66.7C70.1 66.7 70.1 66.8 70.2 66.8C70.2 66.8 70.3 66.9 70.4 66.9C70.6 67 70.7 67.2 70.9 67.4C71 67.5 71.1 67.7 71.1 67.9C71.2 68.9 70.6 70 69.6 70.4Z" fill="#2D4E47"/>
<path d="M79.0001 115.7L78.5001 115.8C78.4001 115.8 78.4001 115.8 78.3001 115.8C78.2001 115.8 78.1001 115.8 78.1001 115.8L46.1001 110.5C45.5001 110.4 45.0001 109.9 44.9001 109.3C44.0001 105.2 43.1001 100.5 42.0001 95.6C41.9001 95.3 41.8001 95 41.8001 94.6C41.7001 94.3 41.7001 93.9 41.6001 93.6C42.6001 93.5 43.6001 93.3 44.5001 93C44.6001 93.3 44.6001 93.7 44.7001 94C44.8001 94.3 44.8001 94.7 44.9001 95C46.2001 100.9 47.2001 105.6 47.6001 107.6L77.5001 112.6L77.4001 114.1C77.4001 114.6 77.5001 115 77.9001 115.3C78.2001 115.6 78.5001 115.7 78.9001 115.7C78.9001 115.7 78.9001 115.7 79.0001 115.7Z" fill="#2D4E47"/>
</g>
<defs>
<clipPath id="clip0">
<rect width="145.6" height="147.7" fill="white"/>
</clipPath>
</defs>
</svg>
