<svg width="22" height="26" viewBox="0 0 22 26" fill="none" xmlns="http://www.w3.org/2000/svg">
<path d="M6.51378 21.7095C6.89774 21.7095 7.19943 21.3949 7.19943 20.9944V8.40916C7.19943 8.00872 6.89774 7.69409 6.51378 7.69409C6.12981 7.69409 5.82812 8.00872 5.82812 8.40916V20.9944C5.82812 21.3949 6.12981 21.7095 6.51378 21.7095Z" fill="#FF322E"/>
<path d="M10.902 21.7095C11.2859 21.7095 11.5876 21.3949 11.5876 20.9944V8.40916C11.5876 8.00872 11.2859 7.69409 10.902 7.69409C10.518 7.69409 10.2163 8.00872 10.2163 8.40916V20.9944C10.2163 21.3949 10.518 21.7095 10.902 21.7095Z" fill="#FF322E"/>
<path d="M15.0157 21.7095C15.3997 21.7095 15.7014 21.3949 15.7014 20.9944V8.40916C15.7014 8.00872 15.3997 7.69409 15.0157 7.69409C14.6318 7.69409 14.3301 8.00872 14.3301 8.40916V20.9944C14.3301 21.3949 14.6318 21.7095 15.0157 21.7095Z" fill="#FF322E"/>
<path d="M20.4325 2.07371H13.7679C13.7816 2.0165 13.7816 1.9593 13.7816 1.88779V1.11551C13.7816 0.50055 13.3017 0 12.712 0H8.95463C8.36497 0 7.88501 0.50055 7.88501 1.11551V1.90209C7.88501 1.9593 7.88501 2.0165 7.89873 2.08801H1.23418C0.891349 2.08801 0.589662 2.23102 0.35654 2.45985C0.137131 2.68867 0 3.0033 0 3.36084C0 4.07591 0.548523 4.64796 1.23418 4.64796H1.63185C1.60443 4.77668 1.577 4.91969 1.577 5.06271V21.4092C1.577 23.9406 3.55168 26 5.9789 26H15.7015C18.1287 26 20.1034 23.9406 20.1034 21.4092V4.67657C20.1034 4.66227 20.1034 4.64796 20.1034 4.63366H20.4462C20.789 4.63366 21.0907 4.49065 21.3238 4.26183C21.5432 4.033 21.6804 3.70407 21.6804 3.34653C21.6666 2.64576 21.1181 2.07371 20.4325 2.07371ZM18.7183 21.4235C18.7183 23.1683 17.3607 24.5842 15.6877 24.5842H5.9789C4.3059 24.5842 2.94831 23.1683 2.94831 21.4235V5.06271C2.94831 4.93399 3.0443 4.83388 3.16772 4.83388H18.7183V21.4235Z" fill="#FF322E"/>
</svg>
