<svg width="44" height="44" viewBox="0 0 44 44" fill="none" xmlns="http://www.w3.org/2000/svg">
<circle cx="22" cy="22" r="21" fill="white" stroke="#FF322E" stroke-width="2"/>
<path d="M17.5138 30.7095C17.8977 30.7095 18.1994 30.3949 18.1994 29.9944V17.4092C18.1994 17.0087 17.8977 16.6941 17.5138 16.6941C17.1298 16.6941 16.8281 17.0087 16.8281 17.4092V29.9944C16.8281 30.3949 17.1298 30.7095 17.5138 30.7095Z" fill="#FF322E"/>
<path d="M21.902 30.7095C22.2859 30.7095 22.5876 30.3949 22.5876 29.9944V17.4092C22.5876 17.0087 22.2859 16.6941 21.902 16.6941C21.518 16.6941 21.2163 17.0087 21.2163 17.4092V29.9944C21.2163 30.3949 21.518 30.7095 21.902 30.7095Z" fill="#FF322E"/>
<path d="M26.0157 30.7095C26.3997 30.7095 26.7014 30.3949 26.7014 29.9944V17.4092C26.7014 17.0087 26.3997 16.6941 26.0157 16.6941C25.6318 16.6941 25.3301 17.0087 25.3301 17.4092V29.9944C25.3301 30.3949 25.6318 30.7095 26.0157 30.7095Z" fill="#FF322E"/>
<path d="M31.4325 11.0737H24.7679C24.7816 11.0165 24.7816 10.9593 24.7816 10.8878V10.1155C24.7816 9.50055 24.3017 9 23.712 9H19.9546C19.365 9 18.885 9.50055 18.885 10.1155V10.9021C18.885 10.9593 18.885 11.0165 18.8987 11.088H12.2342C11.8913 11.088 11.5897 11.231 11.3565 11.4598C11.1371 11.6887 11 12.0033 11 12.3608C11 13.0759 11.5485 13.648 12.2342 13.648H12.6319C12.6044 13.7767 12.577 13.9197 12.577 14.0627V30.4092C12.577 32.9406 14.5517 35 16.9789 35H26.7015C29.1287 35 31.1034 32.9406 31.1034 30.4092V13.6766C31.1034 13.6623 31.1034 13.648 31.1034 13.6337H31.4462C31.789 13.6337 32.0907 13.4906 32.3238 13.2618C32.5432 13.033 32.6804 12.7041 32.6804 12.3465C32.6666 11.6458 32.1181 11.0737 31.4325 11.0737ZM29.7183 30.4235C29.7183 32.1683 28.3607 33.5842 26.6877 33.5842H16.9789C15.3059 33.5842 13.9483 32.1683 13.9483 30.4235V14.0627C13.9483 13.934 14.0443 13.8339 14.1677 13.8339H29.7183V30.4235Z" fill="#FF322E"/>
</svg>
