<svg width="83" height="63" viewBox="0 0 83 63" fill="none" xmlns="http://www.w3.org/2000/svg">
<path d="M0 49.9266L17.7591 33.3379C27.5918 24.1557 48.9128 21.2641 65.4178 26.8951C81.9227 32.5262 87.3407 44.4985 77.508 53.6807C67.6753 62.8628 46.3543 65.7545 29.8995 60.1234L0 49.9266Z" fill="#FFF1E7"/>
<g clip-path="url(#clip0)">
<path d="M64.3221 23.7388H25.6498C25.0886 23.7388 24.661 24.2422 24.7411 24.7985L28.1888 46.6559C28.2155 46.8678 28.4026 47.0268 28.6164 47.0268H61.4892C61.6763 47.0268 61.8099 46.8943 61.8366 46.7089L65.1239 24.6396C65.1774 24.1627 64.8032 23.7388 64.3221 23.7388ZM34.4159 43.7681C34.3357 43.7681 34.2555 43.7946 34.2021 43.7946C33.5072 43.7946 32.9192 43.2912 32.8123 42.6023L30.6743 28.9051C30.5674 28.1367 31.0752 27.4214 31.8502 27.2889C32.6253 27.183 33.3469 27.6863 33.4538 28.4547L35.5918 42.152C35.7255 42.9203 35.1909 43.6356 34.4159 43.7681ZM46.4693 42.3639C46.4693 43.1852 45.7744 43.8476 44.9192 43.7681C44.1708 43.7151 43.6363 43.0262 43.6363 42.2844V28.6666C43.6363 27.9248 44.1708 27.2624 44.9192 27.183C45.7477 27.1035 46.4693 27.7658 46.4693 28.5871V42.3639ZM59.4313 28.9051L57.2932 42.6023C57.1863 43.2912 56.5716 43.7946 55.9035 43.7946C55.8233 43.7946 55.7699 43.7946 55.6897 43.7681C54.9146 43.6356 54.3801 42.9203 54.5137 42.1784L56.6518 28.4812C56.7587 27.7128 57.4803 27.183 58.2821 27.3154C59.0037 27.3949 59.5382 28.1367 59.4313 28.9051Z" fill="#2D4E47"/>
<path d="M34.416 43.7681C34.3358 43.7681 34.2556 43.7946 34.2022 43.7946C33.5073 43.7946 32.9193 43.2912 32.8124 42.6024L30.6743 28.9051C30.5674 28.1368 31.0752 27.4214 31.8503 27.289C32.6253 27.183 33.3469 27.6864 33.4538 28.4547L35.5919 42.152C35.7255 42.9203 35.191 43.6356 34.416 43.7681Z" fill="white"/>
<path d="M59.4322 28.9049L57.2941 42.6022C57.1872 43.291 56.5725 43.7944 55.9044 43.7944C55.8242 43.7944 55.7708 43.7944 55.6906 43.7679C54.9155 43.6354 54.381 42.9201 54.5146 42.1783L56.6527 28.481C56.7596 27.7126 57.4812 27.1828 58.283 27.3152C59.0046 27.3947 59.5391 28.1365 59.4322 28.9049Z" fill="white"/>
<path d="M46.4697 28.6133V42.3901C46.4697 43.2114 45.7748 43.8737 44.9196 43.7942C44.1712 43.7413 43.6367 43.0524 43.6367 42.3106V28.6928C43.6367 27.9509 44.1712 27.2886 44.9196 27.2091C45.7481 27.1296 46.4697 27.792 46.4697 28.6133Z" fill="white"/>
<path d="M67.2357 13.5116H62.4251L49.0087 0.370701C48.4742 -0.132681 47.6457 -0.132681 47.1112 0.370701C46.6034 0.900577 46.6034 1.72188 47.1112 2.25176L58.6033 13.5116H30.7817L41.9798 2.54319C42.5143 2.03981 42.5143 1.19201 41.9798 0.662132C41.472 0.132257 40.6168 0.132257 40.0823 0.662132L26.9599 13.5116H22.6036C21.7216 13.5116 21 14.227 21 15.1013V19.2343C21 20.1086 21.7216 20.8239 22.6036 20.8239H67.2357C68.1177 20.8239 68.8393 20.1086 68.8393 19.2343V15.1013C68.8393 14.227 68.1177 13.5116 67.2357 13.5116Z" fill="#2D4E47"/>
</g>
<defs>
<clipPath id="clip0">
<rect width="47.8393" height="47" fill="white" transform="translate(21)"/>
</clipPath>
</defs>
</svg>
