<svg width="83" height="60" viewBox="0 0 83 60" fill="none" xmlns="http://www.w3.org/2000/svg">
<path d="M0 46.9081L17.7591 30.3193C27.5918 21.1372 48.9128 18.2455 65.4178 23.8766C81.9227 29.5076 87.3407 41.48 77.508 50.6621C67.6753 59.8443 46.3543 62.7359 29.8995 57.1049L0 46.9081Z" fill="#FFF1E7"/>
<g clip-path="url(#clip0)">
<path d="M71.726 19.8863V41.709C71.726 42.4159 71.151 42.9999 70.4549 42.9999H18.4606C17.7645 42.9999 17.1895 42.4159 17.1895 41.709V19.8863C17.1895 19.8555 17.1895 19.8248 17.1895 19.7941C17.2197 19.333 17.4921 18.9334 17.8855 18.749H42.7932V29.1993C42.7932 30.06 43.459 30.7362 44.3064 30.7362C45.1538 30.7362 45.8196 30.06 45.8196 29.1993V18.749H71.03C71.2721 18.872 71.4537 19.0564 71.5747 19.3023C71.6655 19.456 71.726 19.6711 71.726 19.8863Z" fill="#2D4E47"/>
<path d="M43.096 0V17.1508H18.4607C18.3397 17.1508 18.2186 17.1508 18.1278 17.1816C17.8857 17.1816 17.7041 16.9664 17.7041 16.7513C17.7041 16.7205 17.7041 16.6898 17.7041 16.659C17.7041 16.6283 17.7041 16.6283 17.7344 16.5976C17.7344 16.5668 17.7646 16.5668 17.7646 16.5668L25.6334 0.522516C25.7847 0.215154 26.1176 0 26.4808 0L43.096 0Z" fill="#2D4E47"/>
<path d="M70.9095 16.659C70.9397 16.9049 70.7279 17.1816 70.4555 17.1816H45.5176V0H62.4657C62.9802 0 63.4644 0.307362 63.6763 0.768406L70.8792 16.4746L70.9095 16.659Z" fill="#2D4E47"/>
<path d="M70.9098 16.6591L70.8789 16.5054C70.9098 16.5361 70.9098 16.5976 70.9098 16.6591Z" fill="#2D4E47"/>
<path d="M67.7312 32.9799C67.7312 33.0414 67.6404 33.1336 67.3983 33.1336C66.7628 33.1643 65.189 32.7033 62.6165 30.5518C62.0112 30.0292 61.1336 31.0128 62.0415 32.5189C62.5863 33.4102 62.4349 35.9613 61.1033 36.7912C59.7717 37.6518 59.1361 38.5739 59.015 38.7276C58.894 38.912 58.8032 39.0657 58.7124 39.2501C58.6216 39.4038 58.5611 39.5575 58.3795 39.5575C58.2887 39.5575 58.1676 39.496 58.1071 39.4038C58.0163 39.1886 57.865 38.9735 57.7137 38.7276C57.5926 38.5739 56.9571 37.6518 55.6254 36.7912C54.2938 35.9306 54.1425 33.4102 54.6872 32.5189C55.5952 31.0128 54.7175 30.06 54.1122 30.5518C51.5397 32.734 49.966 33.1643 49.3304 33.1336C49.2396 33.1336 49.0278 33.1029 48.9975 33.0107C48.9672 32.9492 49.0278 32.857 49.058 32.7955C49.1791 32.5803 49.3304 32.3959 49.4212 32.1808C49.7239 31.1972 49.2699 31.1357 49.6936 28.2465C50.7226 21.1465 56.4123 21.8841 57.1084 22.5603C57.5926 23.0214 57.6531 25.3266 58.3492 25.3266C59.0453 25.2959 59.1058 22.9906 59.5901 22.5603C60.3164 21.8841 65.9759 21.1465 67.0049 28.2465C67.4286 31.105 66.9746 31.1665 67.2773 32.1808C67.368 32.4267 67.7312 32.857 67.7312 32.9799Z" fill="white"/>
<path d="M71.5747 19.2716C71.4537 19.0257 71.2721 18.8413 71.0299 18.7184H45.8196V29.1994C45.8196 30.06 45.1538 30.7362 44.3064 30.7362C43.459 30.7362 42.7932 30.06 42.7932 29.1994V18.7491H17.8855C17.4921 18.9335 17.2197 19.3331 17.1895 19.7941C17.1895 18.1959 17.5829 16.9971 17.7039 16.659C17.7039 16.6898 17.7039 16.7205 17.7039 16.7513C17.7039 16.9664 17.8855 17.1816 18.1277 17.1816C18.2487 17.1816 18.3698 17.1508 18.4606 17.1508H43.0958V0H45.517V17.1508H70.4549C70.7273 17.1508 70.9392 16.9049 70.9089 16.6283L71.5747 19.2716Z" fill="white"/>
</g>
<defs>
<clipPath id="clip0">
<rect width="54.5366" height="43" fill="white" transform="translate(17.1895)"/>
</clipPath>
</defs>
</svg>
