<svg width="83" height="66" viewBox="0 0 83 66" fill="none" xmlns="http://www.w3.org/2000/svg">
<path d="M0 52.9081L17.7591 36.3193C27.5918 27.1372 48.9128 24.2455 65.4178 29.8766C81.9227 35.5076 87.3407 47.48 77.508 56.6621C67.6753 65.8443 46.3543 68.7359 29.8995 63.1049L0 52.9081Z" fill="#FFF1E7"/>
<g clip-path="url(#clip0)">
<path d="M60.8152 16.0187C60.8152 20.3805 59.1027 24.3342 56.3073 27.2166C53.4364 30.2009 49.4322 32.0375 44.9999 32.0375C40.5676 32.0375 36.5634 30.2009 33.6924 27.2166C30.8971 24.3342 29.1846 20.3805 29.1846 16.0187C29.1846 7.16762 36.2612 0 44.9999 0C53.7386 0 60.8152 7.16762 60.8152 16.0187Z" fill="#2D4E47"/>
<path d="M21.0505 44.8935C22.2089 37.8534 26.339 31.8336 32.0557 28.186C35.2792 31.7061 39.8878 33.9252 45.0001 33.9252C50.1124 33.9252 54.721 31.7316 57.9445 28.2115C63.6864 31.8846 67.8165 37.9299 68.9497 44.97C69.3023 47.0871 67.6906 49.0257 65.5751 49.0257H24.4755C22.3097 49.0002 20.6979 47.0361 21.0505 44.8935Z" fill="#2D4E47"/>
<path d="M45 27.0892C40.8951 27.0892 37.5205 23.6967 37.5205 19.5135C37.5205 18.9523 37.9738 18.4932 38.5279 18.4932C39.0819 18.4932 39.5352 18.9523 39.5352 19.5135C39.5352 22.5489 41.978 25.0486 45 25.0486C48.0221 25.0486 50.4649 22.5489 50.4649 19.5135C50.4649 18.9523 50.9182 18.4932 51.4722 18.4932C52.0263 18.4932 52.4796 18.9523 52.4796 19.5135C52.4796 23.6967 49.1302 27.0892 45 27.0892Z" fill="white"/>
</g>
<defs>
<clipPath id="clip0">
<rect width="48" height="49" fill="white" transform="translate(21)"/>
</clipPath>
</defs>
</svg>
