<svg width="31" height="30" viewBox="0 0 31 30" fill="none" xmlns="http://www.w3.org/2000/svg">
<path d="M8.75545 16.9622C8.20594 16.6688 7.69306 16.302 7.25346 15.8619C6.09949 14.7066 5.47671 13.1846 5.47671 11.5526C5.47671 11.0392 5.07374 10.6357 4.56087 10.6357C4.04799 10.6357 3.64502 11.0392 3.64502 11.5526C3.64502 13.6614 4.46928 15.6602 5.95295 17.1639C6.5391 17.7507 7.19851 18.2274 7.91287 18.5942C8.04109 18.6675 8.18762 18.7042 8.33416 18.7042C8.66386 18.7042 8.99357 18.5208 9.1401 18.2091C9.37822 17.7507 9.19505 17.2005 8.75545 16.9622Z" fill="white"/>
<path d="M13.1701 17.4208C12.6389 17.5674 12.0894 17.6408 11.5399 17.6408C11.027 17.6408 10.624 18.0442 10.624 18.5577C10.624 19.0711 11.027 19.4745 11.5399 19.4745C12.2542 19.4745 12.9686 19.3829 13.6646 19.1811C14.1592 19.0528 14.4339 18.5393 14.3057 18.0442C14.1775 17.5491 13.6463 17.2741 13.1701 17.4208Z" fill="white"/>
<path d="M30.571 28.3837L20.0387 19.325C21.9254 17.2712 23.0793 14.5389 23.0793 11.5316C23.0793 5.16849 17.914 -0.0209961 11.5397 -0.0209961C5.16537 -0.0209961 0 5.16849 0 11.5499C0 17.9313 5.16537 23.1025 11.5397 23.1025C14.2323 23.1025 16.7234 22.1673 18.6833 20.6086L29.3804 29.7956C29.5452 29.9423 29.765 30.0157 29.9848 30.0157C30.2413 30.0157 30.4977 29.9057 30.6809 29.7039C30.9922 29.3005 30.9373 28.7137 30.571 28.3837ZM1.83169 11.5499C1.83169 6.19538 6.19112 1.83108 11.5397 1.83108C16.8882 1.83108 21.2476 6.19538 21.2476 11.5499C21.2476 16.9044 16.8882 21.2687 11.5397 21.2687C6.19112 21.2687 1.83169 16.9044 1.83169 11.5499Z" fill="white"/>
</svg>
