<svg width="44" height="48" viewBox="0 0 44 48" fill="none" xmlns="http://www.w3.org/2000/svg">
<path d="M40.822 15.8256C37.0595 16.5874 29.9365 17.9812 28.1357 18.354C27.8945 18.4026 27.7177 18.6133 27.7177 18.8727C27.7177 19.7155 27.7016 20.5745 27.7177 21.4335C27.8624 26.4094 28.1679 31.3852 29.2934 36.2476C29.8401 38.5815 30.7727 40.8182 31.6088 43.0711C32.0107 44.157 32.0107 45.1457 31.3033 46.0696C30.5958 47.0096 29.615 47.2852 28.4894 47.1231C27.5086 46.9772 26.8494 46.4099 26.4796 45.5023C24.9521 41.7583 23.7461 37.917 23.0708 33.9136C23.0708 33.865 23.0548 33.8164 23.0387 33.7678C22.9583 33.3139 22.5724 32.9736 22.1061 32.9736H21.9775C21.5594 32.9736 21.1735 33.2653 21.077 33.6705C20.4017 36.2314 19.7746 38.7598 19.0511 41.2558C18.6491 42.6497 18.1024 43.995 17.5718 45.3402C16.9287 46.9286 15.3368 47.5931 13.8415 46.9448C12.3462 46.2965 11.6708 44.6757 12.3783 43.1359C14.7258 37.9818 15.6263 32.5198 15.98 26.928C16.1408 24.3672 16.2051 21.8063 16.3177 19.2455V19.2292C16.3337 18.8403 16.0604 18.4999 15.6906 18.4189C11.3975 17.5274 7.24913 16.6846 3.10076 15.7932C1.4607 15.469 0.544201 13.9455 0.914017 12.3733C1.29991 10.7849 2.74702 9.95832 4.43531 10.2987C8.40681 11.0929 12.3944 11.9033 16.3981 12.584C20.8037 13.3458 25.2254 13.1027 29.5989 12.3085C32.9272 11.7088 36.2556 10.9794 39.5678 10.2987C41.2722 9.94211 42.7515 10.8173 43.1052 12.4381C43.4429 14.0103 42.4942 15.4852 40.822 15.8256Z" fill="white"/>
<path d="M27.6373 5.93947C27.6373 9.08381 25.1129 11.6285 21.9936 11.6285C18.8421 11.6285 16.3016 9.03518 16.3338 5.87464C16.382 2.71409 18.8743 0.250488 22.0257 0.250488C25.1611 0.250488 27.6534 2.77892 27.6373 5.93947Z" fill="white"/>
</svg>
