<svg width="30" height="30" viewBox="0 0 30 30" fill="none" xmlns="http://www.w3.org/2000/svg">
<path d="M21.7208 0H8.27869C3.71382 0 0 3.714 0 8.27887V21.721C0 26.286 3.71382 29.9998 8.27869 29.9998H21.7208C26.286 29.9998 29.9998 26.2858 29.9998 21.721V8.27887C30 3.714 26.286 0 21.7208 0ZM27.3383 21.721C27.3383 24.8183 24.8183 27.3381 21.721 27.3381H8.27869C5.1815 27.3383 2.66173 24.8183 2.66173 21.721V8.27887C2.66173 5.18168 5.1815 2.66173 8.27869 2.66173H21.7208C24.8181 2.66173 27.3381 5.18168 27.3381 8.27887V21.721H27.3383Z" fill="white"/>
<path d="M15 7.27051C10.7375 7.27051 7.26978 10.7382 7.26978 15.0007C7.26978 19.263 10.7375 22.7305 15 22.7305C19.2625 22.7305 22.7302 19.263 22.7302 15.0007C22.7302 10.7382 19.2625 7.27051 15 7.27051ZM15 20.0686C12.2053 20.0686 9.93151 17.7952 9.93151 15.0005C9.93151 12.2057 12.2052 9.93206 15 9.93206C17.7948 9.93206 20.0684 12.2057 20.0684 15.0005C20.0684 17.7952 17.7946 20.0686 15 20.0686Z" fill="white"/>
<path d="M23.0545 5.0127C22.5416 5.0127 22.0379 5.22031 21.6757 5.58408C21.3118 5.94608 21.1025 6.45003 21.1025 6.96463C21.1025 7.47763 21.3119 7.98141 21.6757 8.34518C22.0377 8.70718 22.5416 8.91657 23.0545 8.91657C23.5691 8.91657 24.0712 8.70718 24.435 8.34518C24.7988 7.98141 25.0064 7.47746 25.0064 6.96463C25.0064 6.45003 24.7988 5.94608 24.435 5.58408C24.073 5.22031 23.5691 5.0127 23.0545 5.0127Z" fill="white"/>
</svg>
