<svg width="30" height="30" viewBox="0 0 30 30" fill="none" xmlns="http://www.w3.org/2000/svg">
<g clip-path="url(#clip0)">
<path d="M29.9999 5.69862C28.8958 6.18788 27.711 6.51969 26.4662 6.66783C27.7372 5.9067 28.7102 4.69945 29.1713 3.26533C27.9791 3.97018 26.663 4.482 25.2608 4.75945C24.1379 3.56156 22.5407 2.81543 20.7691 2.81543C17.3704 2.81543 14.6147 5.57116 14.6147 8.96803C14.6147 9.44979 14.669 9.92033 14.774 10.3703C9.66 10.1134 5.12524 7.66327 2.0902 3.94018C1.55966 4.84754 1.25784 5.90479 1.25784 7.03337C1.25784 9.16862 2.34515 11.0526 3.99485 12.1549C2.98627 12.1212 2.0377 11.8437 1.20725 11.3825V11.4594C1.20725 14.4401 3.32936 16.9277 6.14319 17.4939C5.62765 17.6326 5.08402 17.7095 4.52162 17.7095C4.12421 17.7095 3.7399 17.6701 3.36309 17.5951C4.14667 20.0416 6.41877 21.8206 9.11078 21.8693C7.00554 23.5191 4.35103 24.4995 1.46784 24.4995C0.971078 24.4995 0.481765 24.4695 0 24.4151C2.72387 26.1642 5.95765 27.184 9.43323 27.184C20.7542 27.184 26.9424 17.807 26.9424 9.67479L26.9218 8.87808C28.1309 8.01567 29.177 6.93215 29.9999 5.69862Z" fill="white"/>
</g>
<defs>
<clipPath id="clip0">
<rect width="30" height="30" fill="white"/>
</clipPath>
</defs>
</svg>
