<svg id="Calque_1" data-name="Calque 1" xmlns="http://www.w3.org/2000/svg" viewBox="0 0 200 200"><defs><style>.cls-1{fill:#2d4e47;}</style></defs><title>basket-stroke</title><path class="cls-1" d="M186.42,70.83h-7.9l-50-69.17a5,5,0,1,0-8.1,5.86l45.79,63.31H33.06L78.2,7.49a5,5,0,0,0-8.15-5.8L20.78,70.83h-7.2A14.28,14.28,0,0,0-.67,85.08v7.84a14.28,14.28,0,0,0,14.25,14.25h4.14l13,83.07A11.49,11.49,0,0,0,42.1,200h116a11.33,11.33,0,0,0,11.15-9.64l12.13-83.19h5.06a14.28,14.28,0,0,0,14.25-14.25V85.08A14.28,14.28,0,0,0,186.42,70.83Zm4.91,22.09a4.91,4.91,0,0,1-4.91,4.91H122.67a4.67,4.67,0,0,0,0,9.34h48.59l-11.93,81.75a1.27,1.27,0,0,1-1.25,1.08H42.1a1.52,1.52,0,0,1-1.52-1.3L27.84,107.17H71.77a4.67,4.67,0,0,0,0-9.34H13.58a4.91,4.91,0,0,1-4.91-4.91V85.08a4.91,4.91,0,0,1,4.91-4.91H186.42a4.91,4.91,0,0,1,4.91,4.91Z"/><path class="cls-1" d="M59.19,124a5,5,0,1,0-9.88,1.53l7.52,48.74a5,5,0,0,0,4.93,4.24,5.09,5.09,0,0,0,.77-.06,5,5,0,0,0,4.18-5.7Z"/><path class="cls-1" d="M137.48,178.44a5.09,5.09,0,0,0,.77.06,5,5,0,0,0,4.94-4.24l7.52-48.74a5,5,0,1,0-9.88-1.53l-7.52,48.75A5,5,0,0,0,137.48,178.44Z"/><path class="cls-1" d="M100,119.5a5,5,0,0,0-5,5v49a5,5,0,0,0,10,0v-49A5,5,0,0,0,100,119.5Z"/></svg>