<svg id="Calque_1" data-name="Calque 1" xmlns="http://www.w3.org/2000/svg" viewBox="0 0 200 200"><defs><style>.cls-1{fill:#2d4e47;}</style></defs><title>basket-full</title><path class="cls-1" d="M176.28,108H24.3a3.6,3.6,0,0,0-3.56,4.16l13.55,86.69A1.69,1.69,0,0,0,36,200.27H165.21a1.41,1.41,0,0,0,1.4-1.2l12.77-87.51A3.13,3.13,0,0,0,176.28,108ZM58.75,187.39a5.07,5.07,0,0,1-.86.07,5.58,5.58,0,0,1-5.5-4.72L44,128.43a5.57,5.57,0,1,1,11-1.71L63.4,181A5.56,5.56,0,0,1,58.75,187.39Zm47.32-5.5a5.58,5.58,0,0,1-6.08,5.55,5.77,5.77,0,0,1-5.06-5.84v-54a5.77,5.77,0,0,1,5.06-5.84,5.58,5.58,0,0,1,6.08,5.55ZM157,128.43l-8.38,54.31a5.56,5.56,0,0,1-5.5,4.72,5.07,5.07,0,0,1-.86-.07,5.56,5.56,0,0,1-4.65-6.35L146,126.72a5.57,5.57,0,1,1,11,1.71Z"/><path class="cls-1" d="M193.33,73.56H179.24L128.87,2.15A5,5,0,0,0,121.82,1a5.27,5.27,0,0,0-1.13,7.23l46.07,65.34H32.65L78.06,8.19A5.25,5.25,0,0,0,76.88,1a5,5,0,0,0-7,1.21L20.24,73.56H6.67C3,73.56,0,76.23,0,79.53V95.17c0,3.29,3,6,6.67,6H193.33c3.69,0,6.67-2.68,6.67-6V79.53C200,76.23,197,73.56,193.33,73.56Z"/></svg>