<svg id="Calque_1" data-name="Calque 1" xmlns="http://www.w3.org/2000/svg" viewBox="0 0 200 200"><defs><style>.cls-1{fill:#2d4e47;}</style></defs><title>box-stroke</title><path class="cls-1" d="M198.46,99.38a7.52,7.52,0,0,0-.27-6.07l-28-56.81a7.55,7.55,0,0,0-6.81-4.23H37.51a7.56,7.56,0,0,0-6.78,4.16L1.9,93.23h0a7.56,7.56,0,0,0-.33,6.1,12,12,0,0,0-2.13,6.84v82.1a12.11,12.11,0,0,0,12.1,12.09H188.46a12.11,12.11,0,0,0,12.1-12.09v-82.1A12,12,0,0,0,198.46,99.38ZM105,42.27h56.86l25.56,51.8H105Zm-66,0H95v51.8H12.69Zm151.58,146a2.1,2.1,0,0,1-2.1,2.09H11.54a2.1,2.1,0,0,1-2.1-2.09v-82.1a2.09,2.09,0,0,1,1.23-1.9H95l0,30.92a5,5,0,0,0,5,5h0a5,5,0,0,0,5-5l0-30.91h84.33a2.09,2.09,0,0,1,1.23,1.9Z"/><path class="cls-1" d="M172,142.55c-3.41-23.12-22.16-20.73-24.51-18.53-1.58,1.46-1.83,9-4.1,9h0c-2.26-.08-2.52-7.57-4.1-9-2.36-2.2-21.09-4.59-24.51,18.53-1.37,9.34.1,9.52-.87,12.77a10,10,0,0,1-1.15,2c-.11.18-.31.46-.24.68.13.37.78.41,1.08.42,2.12.11,7.33-1.35,15.79-8.41,2-1.66,4.88,1.49,1.89,6.37-1.8,2.94-1.3,11.16,3.09,14a24.56,24.56,0,0,1,6.88,6.28,21.29,21.29,0,0,1,1.28,2.21,1,1,0,0,0,.85.55h0c.63,0,.84-.53,1.1-1a19.29,19.29,0,0,1,1.05-1.75,24.4,24.4,0,0,1,6.88-6.28c4.38-2.79,4.88-11,3.08-14-3-4.88-.1-8,1.9-6.37,8.45,7.06,13.66,8.52,15.78,8.41.75,0,1.1-.27,1.1-.51,0-.42-1.19-1.87-1.41-2.62C171.89,152.07,173.36,151.89,172,142.55Z"/></svg>