<svg id="Calque_1" data-name="Calque 1" xmlns="http://www.w3.org/2000/svg" viewBox="0 0 200 200"><defs><style>.cls-1{fill:#2d4e47;}</style></defs><title>box-full</title><path class="cls-1" d="M197.05,99.7l-.15-.58A1.51,1.51,0,0,1,197.05,99.7Z"/><path class="cls-1" d="M199.46,112.27l0,0a4.64,4.64,0,0,0-2-2h-92.9v38a5.58,5.58,0,1,1-11.15,0v-38H1.57A4.68,4.68,0,0,0-1,114.1c0,.11,0,.23,0,.34v79.21a4.69,4.69,0,0,0,4.69,4.69H195.31a4.7,4.7,0,0,0,4.69-4.69V114.44A4.68,4.68,0,0,0,199.46,112.27Zm-15.37,50.31c-2.36.12-8.17-1.51-17.6-9.38-2.22-1.86-5.45,1.66-2.11,7.11,2,3.27,1.44,12.44-3.45,15.55a27.2,27.2,0,0,0-7.67,7,20.12,20.12,0,0,0-1.17,1.95c-.29.53-.52,1.1-1.22,1.12h0a1.07,1.07,0,0,1-1-.61,22.15,22.15,0,0,0-1.44-2.46,27.2,27.2,0,0,0-7.67-7c-4.89-3.11-5.45-12.28-3.45-15.55,3.34-5.45.11-9-2.11-7.11-9.43,7.87-15.24,9.5-17.61,9.38-.33,0-1.06-.06-1.2-.47-.08-.25.14-.56.26-.76a10.63,10.63,0,0,0,1.29-2.27c1.09-3.62-.56-3.82,1-14.24,3.81-25.79,24.71-23.12,27.34-20.67,1.76,1.64,2.05,10,4.57,10.08h0c2.52-.09,2.81-8.44,4.57-10.08,2.62-2.45,23.53-5.12,27.34,20.67,1.53,10.42-.11,10.62,1,14.24.25.84,1.58,2.46,1.58,2.92C185.32,162.28,184.93,162.54,184.09,162.58Z"/><path class="cls-1" d="M2.39,101.64a10.86,10.86,0,0,1,1.28-.09H94.49V39.28H33.12A3.43,3.43,0,0,0,30,41.16L1,99.41a1.1,1.1,0,0,0-.06.16.54.54,0,0,0-.07.19,1.27,1.27,0,0,0,0,.34A1.55,1.55,0,0,0,2.39,101.64Z"/><path class="cls-1" d="M103.41,101.55h91.94a1.7,1.7,0,0,0,1.7-1.85l-.15-.58-26.52-57a4.91,4.91,0,0,0-4.44-2.82H103.41v3h0Z"/></svg>