<svg id="Calque_1" data-name="Calque 1" xmlns="http://www.w3.org/2000/svg" viewBox="0 0 300.35 194.43"><defs><style>.cls-1{fill:#2d4e47;}</style></defs><title>box_open-full</title><path class="cls-1" d="M241.59,111.67H154.06v35.8a5.26,5.26,0,0,1-10.51,0v-35.8H57.06a4.38,4.38,0,0,0-2.42,3.91v74.63a4.42,4.42,0,0,0,4.42,4.43H239.6a4.43,4.43,0,0,0,4.42-4.43V115.58A4.39,4.39,0,0,0,241.59,111.67ZM229,160.94c-2.23.11-7.7-1.42-16.59-8.84-2.09-1.75-5.13,1.57-2,6.7,1.89,3.09,1.37,11.73-3.24,14.66a25.47,25.47,0,0,0-7.23,6.6,18.87,18.87,0,0,0-1.1,1.83c-.27.51-.49,1-1.15,1.06a0,0,0,0,1,0,0,1,1,0,0,1-.89-.57,21.74,21.74,0,0,0-1.35-2.32,25.63,25.63,0,0,0-7.23-6.6c-4.61-2.93-5.14-11.57-3.25-14.66,3.14-5.13.11-8.45-2-6.7-8.88,7.42-14.36,9-16.59,8.84-.31,0-1-.06-1.13-.44-.08-.23.13-.52.24-.72a10.76,10.76,0,0,0,1.22-2.13c1-3.41-.53-3.6.92-13.42,3.58-24.3,23.28-21.79,25.75-19.48,1.66,1.54,1.93,9.41,4.31,9.5h0c2.37-.09,2.64-8,4.3-9.5,2.48-2.31,22.17-4.82,25.76,19.48,1.45,9.82-.11,10,.91,13.42.24.78,1.48,2.31,1.48,2.75C230.18,160.66,229.82,160.9,229,160.94Z"/><path class="cls-1" d="M79.13,43.94,49.18,103a2,2,0,0,1-3.2.52L.32,52.77a1.63,1.63,0,0,1,0-2.32L48.8,0a1.13,1.13,0,0,1,1.61,0L78.71,41.3A2.3,2.3,0,0,1,79.13,43.94Z"/><path class="cls-1" d="M298.39,52.77l-45.66,50.77a2,2,0,0,1-3.2-.52L219.58,43.94A2.28,2.28,0,0,1,220,41.3L248.3,0a1.13,1.13,0,0,1,1.61,0L298.4,50.45A1.63,1.63,0,0,1,298.39,52.77Z"/><path class="cls-1" d="M239.64,103.27H59a9.71,9.71,0,0,0-1.21.08,1.46,1.46,0,0,1-1.46-1.45,1.39,1.39,0,0,1,.16-.65L83.88,46.37a3.22,3.22,0,0,1,2.9-1.79l125.14,0a4.6,4.6,0,0,1,4.18,2.66l25,53.71A1.62,1.62,0,0,1,239.64,103.27Z"/></svg>