<svg id="Calque_1" data-name="Calque 1" xmlns="http://www.w3.org/2000/svg" viewBox="0 0 300.35 194.43"><defs><style>.cls-1{fill:#2d4e47;}</style></defs><title>box_open-stroke</title><path class="cls-1" d="M298.91,47.63,254.09,2.82a4.91,4.91,0,0,0-7,0l-34,34a7.49,7.49,0,0,0-1.5-.17H88.37L53.21,1.44a4.92,4.92,0,0,0-7,0L1.44,46.26a4.92,4.92,0,0,0,0,6.93L46.76,99.12a14.12,14.12,0,0,1,3.91,10.11V183a11.41,11.41,0,0,0,11.41,11.41H236.66A11.41,11.41,0,0,0,248.07,183V109.29a7.73,7.73,0,0,1,2.23-5.46l48.63-49.27A4.92,4.92,0,0,0,298.91,47.63ZM89.49,46.44h120.7l24.66,51.14h-170ZM11.85,49.76,49.73,11.87,80.34,42.48,54.64,93.11ZM238.63,183a2,2,0,0,1-2,2H62.08a2,2,0,0,1-2-2V109.29a2,2,0,0,1,1.38-1.88h83.68v27.93a5,5,0,0,0,10,0V107.41h82.08a2,2,0,0,1,1.38,1.88Zm6.53-88L219.94,43.93l30.68-30.68L288.5,51.13Z"/><path class="cls-1" d="M223.32,138.71c-3.41-23.12-22.15-20.72-24.51-18.53-1.57,1.47-1.83,9-4.09,9h0c-2.26-.08-2.52-7.57-4.09-9-2.36-2.19-21.1-4.59-24.51,18.53-1.38,9.35.1,9.53-.87,12.77a10.31,10.31,0,0,1-1.16,2c-.11.18-.31.45-.23.68s.78.4,1.08.42c2.12.1,7.33-1.35,15.78-8.41,2-1.67,4.88,1.49,1.89,6.37-1.79,2.94-1.29,11.16,3.09,13.95a24.24,24.24,0,0,1,6.88,6.28,18.94,18.94,0,0,1,1.29,2.21,1,1,0,0,0,.85.54h0c.63,0,.84-.53,1.09-1a19.12,19.12,0,0,1,1.05-1.74,24.24,24.24,0,0,1,6.88-6.28c4.38-2.79,4.89-11,3.09-13.95-3-4.88-.1-8,1.89-6.37,8.45,7.06,13.66,8.51,15.78,8.41.76,0,1.1-.27,1.1-.52,0-.41-1.19-1.87-1.41-2.62C223.22,148.24,224.7,148.06,223.32,138.71Z"/></svg>