<svg id="Calque_1" data-name="Calque 1" xmlns="http://www.w3.org/2000/svg" viewBox="0 0 200 200"><defs><style>.cls-1{fill:#2d4e47;}</style></defs><title>card-full</title><path class="cls-1" d="M0,96.48V150a18.8,18.8,0,0,0,18.67,18.89H181.33A18.8,18.8,0,0,0,200,150V96.48Zm53.87,47.14a7.34,7.34,0,0,1-5.22,2.18H27.52a7.48,7.48,0,0,1-5.22-12.75,7.34,7.34,0,0,1,5.22-2.18H48.65a7.49,7.49,0,0,1,5.22,12.75Zm64.91,0a7.29,7.29,0,0,1-5.22,2.18H73.74a7.47,7.47,0,0,1,0-14.93h39.82a7.48,7.48,0,0,1,5.22,12.75ZM181.33,38.09H18.67A18.79,18.79,0,0,0,0,57V81.53H200V57A18.79,18.79,0,0,0,181.33,38.09Z"/></svg>