<svg id="Calque_1" data-name="Calque 1" xmlns="http://www.w3.org/2000/svg" viewBox="0 0 200 200"><defs><style>.cls-1{fill:#2d4e47;}</style></defs><title>card-stroke</title><path class="cls-1" d="M181.9,38.09H17.39A18.9,18.9,0,0,0-1.49,57V150a18.9,18.9,0,0,0,18.88,18.88H181.9A18.9,18.9,0,0,0,200.78,150V57A18.9,18.9,0,0,0,181.9,38.09Zm-164.51,10H181.9A8.89,8.89,0,0,1,190.78,57V81.53H8.51V57A8.89,8.89,0,0,1,17.39,48.09ZM181.9,158.91H17.39A8.89,8.89,0,0,1,8.51,150V96.47H190.78V150A8.89,8.89,0,0,1,181.9,158.91Z"/><path class="cls-1" d="M47.71,130.86H26.34a7.47,7.47,0,1,0,0,14.94H47.71a7.47,7.47,0,1,0,0-14.94Z"/><path class="cls-1" d="M113.36,130.86H73.09a7.47,7.47,0,0,0,0,14.94h40.27a7.47,7.47,0,1,0,0-14.94Z"/></svg>