<svg id="Calque_1" data-name="Calque 1" xmlns="http://www.w3.org/2000/svg" viewBox="0 0 200 200"><defs><style>.cls-1{fill:#2d4e47;}</style></defs><title>coins-stroke</title><path class="cls-1" d="M173.63,94.27l-.78-.17V59.39c0-4.15-3.71-6.84-12-8.7l-.78-.18V14.2c0-6.38-8.67-8.73-23.64-10.65C123.57,1.9,106.56,1,88.5,1s-35.07.9-47.91,2.55C25.62,5.47,17,7.82,17,14.2V54.14A4.65,4.65,0,0,0,20,58.5c.35.12,3.54,1.25,9,2.69l.74.2V99.32a4.65,4.65,0,0,0,3.07,4.36c.32.12,3.35,1.19,8.71,2.61l.74.2V135.2l-.78.18c-8.12,1.87-11.74,4.53-11.74,8.64V184a4.66,4.66,0,0,0,3.06,4.36c1.14.41,28.28,10.09,67.89,10.09a240.16,240.16,0,0,0,68.84-10,4.61,4.61,0,0,0,3.31-4.44V149.81l.75-.19c3.28-.85,6-1.59,8.46-2.34a4.61,4.61,0,0,0,3.31-4.44V102.91C185.37,98.8,181.75,96.14,173.63,94.27ZM38.48,13.21c7.43-1.09,23.81-2.94,50-2.94s42.58,1.85,50,2.94l6.67,1-6.67,1-1.89.27-.57.08-1.45.18-.7.09-1.54.18-.65.08-2.26.24-2.44.24-.76.07-1.79.15-.91.08-1.86.14-.86.07-2.74.19-3,.18-.94.05-2.13.11-1.11.05-2.21.1-1,0-3.22.11h-.16L101,18l-1.14,0-2.45,0-1.3,0-2.56,0h-10l-2.56,0-1.3,0-2.45,0L76,18l-3.33-.09h-.2l-3.21-.11-1,0-2.19-.1L65,17.59l-2.11-.11-1-.05L59,17.25h-.12l-2.72-.19-3.64-.29-1.78-.15L50,16.55l-2.4-.24-2.29-.24L44.63,16l-1.54-.18-.69-.08-1.46-.19-.56-.08-1.9-.27-6.68-1ZM26.94,51l-.72-.21V22.25l2.15.54c1.21.29,2.56.57,4,.83l.51.09,1.92.33.84.13V47.52a1.82,1.82,0,0,0,3.64,0V24.69l1.31.17c2.92.38,6.17.72,9.64,1l.91.08v19.5a1.82,1.82,0,0,0,3.64,0V26.26l1.07.07c9.94.71,21.22,1.08,32.64,1.08a398.14,398.14,0,0,0,47.9-2.55l2.49-.33.53-.08c1.76-.25,3.26-.49,4.67-.74l.53-.09c.71-.13,1.41-.26,2.08-.4s1.3-.28,1.91-.43l2.16-.54v28.4l-1.33.37-1.81.49-.55.14-2.31.61-1.41.34-1.7.42V32.51a1.82,1.82,0,1,0-3.64,0V53.85l-1.34.29-1.1.24-2,.41-.13,0-2.36.46-2.46.45V34.24a1.82,1.82,0,0,0-3.64,0v22.1l-1.08.17-1.72.26-2.11.3-2.26.3-2.08.26-2.61.3v-16a1.82,1.82,0,0,0-3.64,0V58.29l-2.24.19-2.16.17-2,.13-1.83.11V43.61a1.82,1.82,0,0,0-3.64,0V59.07l-1,0L95,59.16l-2,.05-1.9,0-2,0H87.19l-2,0V48.46a1.82,1.82,0,0,0-3.64,0V59.17l-1.83-.06L77.87,59H77.7L76.12,59l-1.8-.1h-.17l-1.54-.1-1.76-.12-1.66-.13-1.5-.12-1.83-.17-1.61-.16L64,58l-1.37-.14-1.42-.16L50.75,56.29l-14.4-2.83C33,52.68,29.85,51.85,26.94,51Zm12.8,45.18L39,96V67.43L41.2,68l.9.2.78.18V91.93a1.82,1.82,0,1,0,3.64,0V69.05l1.16.18c.85.14,1.72.27,2.63.4l.59.08,2.5.34,1.45.18,1.1.13V90.19a1.82,1.82,0,0,0,3.64,0V70.75l1.09.11c3.07.3,6.38.56,9.84.79l.93.06V88.15a1.82,1.82,0,0,0,3.64,0V71.92l1,.06q3,.15,6.21.27l1,0V86.46a1.82,1.82,0,0,0,3.64,0V72.4l1,0c3.36.09,6.84.14,10.36.16h1v9a1.82,1.82,0,0,0,3.64,0v-9h1a390.62,390.62,0,0,0,45.24-2.54l2.5-.34.59-.08c1.69-.24,3.2-.48,4.62-.73l.5-.09c1.44-.27,2.79-.55,4-.84l2.15-.53v28.4l-.73.2c-2,.55-4.06,1.1-6.59,1.72l-1.24.31V76.17a1.82,1.82,0,0,0-3.64,0V98.91l-1.44.32-1,.21c-1.79.39-3.57.73-5.34,1.07l-1.68.31V81.94a1.82,1.82,0,0,0-3.64,0v19.5l-.84.13a233,233,0,0,1-36.56,2.87,232.55,232.55,0,0,1-43.3-4c-3.31-.63-6.55-1.32-9.62-2.06S42.29,96.92,39.74,96.16Zm123.84,84.31-.73.2c-1.47.41-2.92.79-4.38,1.16l-1.25.32V159.44a1.82,1.82,0,1,0-3.63,0V183l-.78.18c-2.44.56-4.95,1.09-7.46,1.57l-1.19.23V161.18a1.82,1.82,0,0,0-3.64,0v24.48l-.84.14c-3.33.56-6.67,1-9.9,1.44l-1.13.14V168.86a1.82,1.82,0,1,0-3.63,0v18.92l-.91.09c-2,.2-4.15.37-6.25.52l-1.07.08V170.54a1.82,1.82,0,0,0-3.64,0v18.14l-1,0c-3.57.17-7.08.25-10.43.26h-1V175.4a1.82,1.82,0,0,0-3.64,0V189l-1,0a223,223,0,0,1-56.36-8.16l-.72-.21V152.06l1.25.32c1.2.31,2.55.61,4,.89l.81.15V175.2a1.82,1.82,0,1,0,3.64,0V154l1.14.17c1.14.16,2.31.33,3.53.48s2.55.31,3.87.46l.89.1v22.09a1.82,1.82,0,0,0,3.64,0V155.6l1.08.09c11.32,1,24.61,1.54,38.43,1.54q3.69,0,7.29-.06c1.65,0,3.27.05,4.88.05a243.42,243.42,0,0,0,31.92-2.09h0l.44-.05a124,124,0,0,0,16.48-2.73l1.25-.32Zm12.51-41.11-.73.2c-1.4.39-2.81.77-4.22,1.13l-1.25.33V118.13a1.82,1.82,0,0,0-3.64,0V141.9l-.78.18c-1.19.28-2.45.56-3.89.86q-1.77.38-3.57.72l-1.19.24v-24a1.82,1.82,0,1,0-3.64,0v24.69l-2.66.44-1.53.25-1,.14-1.2.18-2.05.29-.21,0L143,146l-1.7.18V127.55a1.82,1.82,0,0,0-3.64,0v19l-.92.07c-2,.17-4.11.31-6.24.45l-1.07.06v-17.9a1.82,1.82,0,1,0-3.63,0v18.11l-.95,0c-3.42.17-6.92.3-10.42.39l-1,0V134.09a1.82,1.82,0,0,0-3.64,0v13.79l-1.16,0-1.57,0-9.41-.44-2-.14-1.77-.14-.48,0-1.82-.16-.48-.05-1.78-.17-.24,0a218.81,218.81,0,0,1-31-5.41l-.17,0-2.07-.54-1-.27-2.62-.75-.71-.21V111l2.14.54,1.92.43,1.33.26.81.16v21.54a1.82,1.82,0,0,0,3.64,0V113l2,.29c.81.11,1.63.23,2.49.33,1.29.17,2.63.33,4,.48l.89.09V136a1.82,1.82,0,1,0,3.64,0V114.5l1.09.1c11.28,1,24.52,1.52,38.27,1.52,18.07,0,35.08-.9,47.9-2.55.85-.1,1.68-.22,2.49-.33l.54-.08c1.75-.25,3.25-.48,4.67-.73l.52-.1c.72-.13,1.41-.26,2.08-.4s1.3-.28,1.92-.43l2.15-.54Z"/></svg>