<svg id="Calque_1" data-name="Calque 1" xmlns="http://www.w3.org/2000/svg" viewBox="0 0 200 200"><defs><style>.cls-1{fill:#2d4e47;}</style></defs><title>cup-stroke</title><path class="cls-1" d="M195,14.93A14.16,14.16,0,0,0,180.81.79H19.91a14.14,14.14,0,0,0-2.5,28.05c2,76.38,52,110.26,68,119.13v38.35a14.29,14.29,0,1,0,28.58,0V148c15.94-8.87,65.9-42.7,67.94-118.95A14.16,14.16,0,0,0,195,14.93ZM106.63,140.54a5,5,0,0,0-2.71,5c0,.13,0,.26,0,.4v40.37a4.29,4.29,0,1,1-8.58,0V146a2.61,2.61,0,0,1,0-.4,5,5,0,0,0-2.71-5C82,135.12,29.59,104.7,27.41,29.08H171.89C169.7,104.7,117.31,135.12,106.63,140.54ZM180.81,19.08H19.91a4.15,4.15,0,1,1,0-8.29h160.9a4.15,4.15,0,1,1,0,8.29Z"/></svg>