<svg id="Calque_1" data-name="Calque 1" xmlns="http://www.w3.org/2000/svg" viewBox="0 0 200 200"><defs><style>.cls-1{fill:#2d4e47;}</style></defs><title>drop-stroke</title><path class="cls-1" d="M160,96.34,108.6,6.71a10,10,0,0,0-17.29,0L39.91,96.35a69.66,69.66,0,0,0,0,68.84,68.84,68.84,0,0,0,41.94,32.37A69.63,69.63,0,0,0,100.07,200,69.24,69.24,0,0,0,160,96.34Zm-31.13,84.84a58.13,58.13,0,0,1-79.32-21.5,58.52,58.52,0,0,1,0-57.83L100,13.94l50.4,87.91A58.18,58.18,0,0,1,128.86,181.18Z"/><path class="cls-1" d="M105.51,175.45a5.54,5.54,0,0,1-5.41,5.67c-.41,0-.82,0-1.23,0A51.09,51.09,0,0,1,47.8,132.25a5.54,5.54,0,1,1,11.08-.47,40,40,0,0,0,25.05,35.38A40,40,0,0,0,99.84,170,5.58,5.58,0,0,1,105.51,175.45Z"/></svg>