<svg id="Calque_1" data-name="Calque 1" xmlns="http://www.w3.org/2000/svg" viewBox="0 0 200 200"><defs><style>.cls-1{fill:#2d4e47;}</style></defs><title>feather-stroke</title><path class="cls-1" d="M181.14,178.19a5.39,5.39,0,1,1-.21,10.77,146.27,146.27,0,0,1-48.62-9.25,71.81,71.81,0,0,1-38.58,19.13l-4.6.71a4.85,4.85,0,0,1-.93.06,5.38,5.38,0,0,1-.71-10.7l4.59-.71a60.9,60.9,0,0,0,29.26-13.14c-2.14-1-4.25-2.08-6.34-3.19l-33.16,10.5A24,24,0,0,1,58.21,177l-6.7-6.25-.2-.2A183.12,183.12,0,0,1,20.16,127l-.1-.21q-3.81-7.47-7-15.32A182.84,182.84,0,0,1,0,39.62,43.3,43.3,0,0,1,44.16-2.84h.09C68-2.34,87,17.63,86.61,41.66a97.46,97.46,0,0,0,3.07,25.91,5.42,5.42,0,0,1,.25,1A96.68,96.68,0,0,0,124,119.74a18.17,18.17,0,0,1,6.07,20.06l-7.93,23.55q3.5,1.8,7.08,3.39l.47-.63A49.56,49.56,0,0,0,139,129a5.38,5.38,0,0,1,10.64-1.65,60.47,60.47,0,0,1-10,43.48,134.46,134.46,0,0,0,41.52,7.38ZM86.77,90.48c-1.07-2.18-2-4.4-3-6.62a77.68,77.68,0,0,1-19.46,22.36,136,136,0,0,0,48.3,51.72l7.26-21.58a7.36,7.36,0,0,0-2.49-8.13A109.2,109.2,0,0,1,86.77,90.48ZM20.79,17a32.32,32.32,0,0,0-10,22.83q-.09,5.16.11,10.26a71.33,71.33,0,0,0,27.76,8.07,148.23,148.23,0,0,1-.73-17.8,5.39,5.39,0,0,1,10.77.21A134.24,134.24,0,0,0,59.56,96.24,67,67,0,0,0,79,69.12a107.44,107.44,0,0,1-3.13-27.63C76.12,23.36,61.85,8.31,44,7.93H44A32.28,32.28,0,0,0,20.79,17Zm-9,45.47a172.11,172.11,0,0,0,11.26,45q2.57,6.39,5.6,12.51a171.76,171.76,0,0,0,35.56,6.9A144.2,144.2,0,0,1,40.18,69a82.22,82.22,0,0,1-28.35-6.58Zm90.86,102a146.5,146.5,0,0,1-24.06-20.18q-2.88-3-5.58-6.14a182.85,182.85,0,0,1-37.13-5.06A172.8,172.8,0,0,0,59,163l6.59,6.15a13.23,13.23,0,0,0,13,3Z"/></svg>