<svg id="Calque_1" data-name="Calque 1" xmlns="http://www.w3.org/2000/svg" viewBox="0 0 200 200"><defs><style>.cls-1{fill:#2d4e47;}</style></defs><title>gift-stroke</title><path class="cls-1" d="M175.44,42.64H141A26.05,26.05,0,1,0,98,14.57,26.06,26.06,0,1,0,55,42.64H24.57A14.73,14.73,0,0,0,9.86,57.36V96.49A14.72,14.72,0,0,0,22.54,111v67.18a19.37,19.37,0,0,0,19.35,19.35H158.11a19.37,19.37,0,0,0,19.35-19.35V111a14.72,14.72,0,0,0,12.68-14.55V57.36A14.72,14.72,0,0,0,175.44,42.64Zm-71.26-17.7a17.71,17.71,0,1,1,17.7,17.7h-17.7Zm-47.81,0a17.7,17.7,0,0,1,35.4,0v17.7H74.07A17.72,17.72,0,0,1,56.37,24.94ZM18.22,96.49V57.36A6.36,6.36,0,0,1,24.57,51H95.82v51.84H24.57A6.36,6.36,0,0,1,18.22,96.49ZM30.9,178.22v-67H95.82v78H41.89A11,11,0,0,1,30.9,178.22Zm138.2,0a11,11,0,0,1-11,11H104.18v-78H169.1Zm12.68-81.73a6.35,6.35,0,0,1-6.34,6.35H104.18V51h71.26a6.35,6.35,0,0,1,6.34,6.36Z"/></svg>