<svg id="Calque_1" data-name="Calque 1" xmlns="http://www.w3.org/2000/svg" viewBox="0 0 200 200"><defs><style>.cls-1{fill:#2d4e47;}</style></defs><title>heart-full</title><path class="cls-1" d="M200.14,68.77c0,16.54-6.49,32-20.43,48.54-12.59,15-30.78,30.49-51.84,48.43l-.08.07c-7.84,6.69-16,13.59-24.6,21.15l-.26.23a4.42,4.42,0,0,1-5.86,0L96.8,187c-8.66-7.58-16.8-14.52-24.67-21.22C51.07,147.8,32.88,132.3,20.29,117.31,6.35,100.75-.14,85.31-.14,68.77-.14,53.61,5,39.43,14.32,28.85a50,50,0,0,1,38-17.15c20.77,0,34,12.45,41.36,22.9a79.54,79.54,0,0,1,5,8L100,45.12l1.32-2.48a80.67,80.67,0,0,1,5-8c7.4-10.45,20.58-22.9,41.36-22.9a50,50,0,0,1,38,17.15C195,39.43,200.14,53.61,200.14,68.77Z"/></svg>