<svg id="Calque_1" data-name="Calque 1" xmlns="http://www.w3.org/2000/svg" viewBox="0 0 200 200"><defs><style>.cls-1{fill:#2d4e47;}</style></defs><title>heart-stroke</title><path class="cls-1" d="M147.64,21.71a40.16,40.16,0,0,1,30.54,13.75c7.71,8.75,12,20.59,12,33.32,0,14.06-5.75,27.43-18.09,42.1-12.06,14.36-30,29.6-50.66,47.24l-.06,0,0,0,0,0-1.93,1.65c-6.22,5.3-12.61,10.76-19.32,16.59C92.55,170,85.49,164,78.61,158.12,57.9,140.48,40,125.24,27.94,110.88c-12.33-14.67-18.08-28-18.08-42.1,0-12.74,4.25-24.57,12-33.33A40.13,40.13,0,0,1,52.36,21.71c13.25,0,24.42,6.28,33.18,18.64a67.83,67.83,0,0,1,4.32,7l1.32,2.47L100,66.33l8.82-16.5,1.3-2.44a70,70,0,0,1,4.32-7c8.78-12.39,19.95-18.67,33.2-18.67m0-10c-20.78,0-34,12.45-41.36,22.89a79.7,79.7,0,0,0-5,8L100,45.12l-1.32-2.47a78.6,78.6,0,0,0-5-8c-7.4-10.44-20.59-22.89-41.36-22.89a50,50,0,0,0-38,17.14C5,39.43-.14,53.61-.14,68.78c0,16.53,6.49,32,20.43,48.53,12.59,15,30.78,30.49,51.84,48.43,7.87,6.71,16,13.65,24.67,21.23l.27.23a4.45,4.45,0,0,0,5.86,0l.26-.23c8.64-7.56,16.76-14.47,24.6-21.16l.08-.07c21.06-17.94,39.25-33.44,51.84-48.43,13.94-16.56,20.43-32,20.43-48.53,0-15.17-5.14-29.35-14.46-39.93a50,50,0,0,0-38-17.14Z"/></svg>