<svg id="Calque_1" data-name="Calque 1" xmlns="http://www.w3.org/2000/svg" viewBox="0 0 200 200"><defs><style>.cls-1{fill:#2d4e47;}</style></defs><title>leaf-stroke</title><path class="cls-1" d="M152.43,53.22l-51.3-51.3-51.3,51.3a72.54,72.54,0,0,0,0,102.59h0a72.17,72.17,0,0,0,46.22,21.05v18.06a5.08,5.08,0,1,0,10.16,0V176.86a72.2,72.2,0,0,0,46.22-21.05h0A72.54,72.54,0,0,0,152.43,53.22Zm-7.19,95.41a61.85,61.85,0,0,1-39,18.05v-5.27l35.5-45.65a5.08,5.08,0,1,0-8-6.24l-27.48,35.34v-18.5l22.55-43.83a5.08,5.08,0,0,0-9-4.65l-13.52,26.28V66.93a5.08,5.08,0,1,0-10.16,0v37.71L82.28,77.88a5.08,5.08,0,1,0-9,4.65l22.8,44.32v18L68.57,109.52a5.08,5.08,0,1,0-8,6.24l35.5,45.65v5.27A62.37,62.37,0,0,1,57,60.4l44.12-44.12L145.24,60.4A62.45,62.45,0,0,1,145.24,148.63Z"/></svg>