<svg id="Calque_1" data-name="Calque 1" xmlns="http://www.w3.org/2000/svg" viewBox="0 0 200 200"><defs><style>.cls-1{fill:#2d4e47;}</style></defs><title>leaf-full</title><path class="cls-1" d="M152.6,52.6,100,0,47.39,52.6A74.35,74.35,0,0,0,89.58,178.87v10.71a10.42,10.42,0,0,0,20.84,0V178.87A74.4,74.4,0,0,0,152.6,52.6Zm-11,64.14-36.4,46.82v26a5.21,5.21,0,0,1-10.42,0v-26L58.38,116.74a5.2,5.2,0,0,1,2.87-8.25,5.75,5.75,0,0,1,.83-.14l.42,0a5.18,5.18,0,0,1,4.11,2l28.18,36.24V128.11L71.4,82.66a5.21,5.21,0,0,1,2.25-7,5.37,5.37,0,0,1,1.79-.55,5.88,5.88,0,0,1,.6,0A5.36,5.36,0,0,1,79,76a5.9,5.9,0,0,1,.8.7,3.08,3.08,0,0,1,.24.27,4.94,4.94,0,0,1,.43.59l.19.34,14.11,27.43V66.67a5.21,5.21,0,1,1,10.42,0v38.17L119.07,77.9c.06-.12.13-.23.19-.34a5.2,5.2,0,0,1,.67-.86,5.9,5.9,0,0,1,.8-.7l.3-.19a5.2,5.2,0,0,1,.62-.32,5.38,5.38,0,0,1,2.06-.42l.6,0a5.23,5.23,0,0,1,4,7.56l-23.12,45v19l28.17-36.24a5.25,5.25,0,0,1,4.13-2l.46,0a5.21,5.21,0,0,1,3.64,8.39Z"/></svg>