<svg id="Calque_1" data-name="Calque 1" xmlns="http://www.w3.org/2000/svg" viewBox="0 0 200 200"><defs><style>.cls-1{fill:#2d4e47;}</style></defs><title>mail-stroke</title><path class="cls-1" d="M152.91,48.39h-20V35.49h15.52c11.46,0,20.77-8,20.77-17.75S159.85,0,148.39,0H127.22a5.64,5.64,0,0,0-5.64,5.65V48.39H59.17A43.5,43.5,0,0,0,15.71,91.85v59.37H9.27a5.65,5.65,0,1,0,0,11.3H91.33v31.83A5.65,5.65,0,0,0,97,200h24.19a5.65,5.65,0,0,0,5.65-5.65V162.52h63.91a5.64,5.64,0,0,0,5.65-5.65v-65A43.5,43.5,0,0,0,152.91,48.39Zm-20-37.09h15.52c5.05,0,9.47,3,9.47,6.44s-4.43,6.45-9.47,6.45H132.87ZM91.33,151.22H27V91.85a32.16,32.16,0,0,1,64.32,0Zm24.19,37.48H102.63V162.52h12.89Zm69.57-37.48H102.63V91.85A43.39,43.39,0,0,0,88.37,59.69h64.56a32.2,32.2,0,0,1,32.16,32.16Z"/></svg>