<svg id="Calque_1" data-name="Calque 1" xmlns="http://www.w3.org/2000/svg" viewBox="0 0 200 200"><defs><style>.cls-1{fill:#2d4e47;}</style></defs><title>newspaper-full</title><path class="cls-1" d="M191.67,28.46h0c-4.09,0-7.39,3.86-7.38,8.59l.32,137a2.69,2.69,0,0,0,2.47,2.85c2.73,0,4.94,2.53,5,5.69s-2.2,5.72-4.93,5.72c-6.8,0-12.36-6.36-12.37-14.23l-.4-165.21C174.33,4,170.87,0,166.62,0L8.74.49C4.21.51.55,4.77.56,10L1,183.2c0,9.45,6.69,17.1,14.86,17.07l168.85-.53c8.16,0,14.79-7.73,14.77-17.16L199.1,37C199.09,32.27,195.76,28.45,191.67,28.46ZM25.27,23.28l124.43-.4c2.72,0,4.94,2.55,4.94,5.7s-2.2,5.72-4.92,5.73L25.3,34.7c-2.72,0-4.94-2.54-4.95-5.69S22.55,23.29,25.27,23.28ZM20.43,57.55c0-3.15,2.18-5.72,4.92-5.72l49.85-.17c2.74,0,5,2.55,5,5.7L80.29,115c0,3.15-2.19,5.72-4.92,5.73l-49.87.16c-2.72,0-4.93-2.55-4.94-5.7Zm5.12,79.91,49.86-.17c2.73,0,5,2.54,5,5.71s-2.19,5.7-4.93,5.71l-49.86.16c-2.73,0-4.94-2.53-4.95-5.7S22.82,137.47,25.55,137.46Zm50,39.79-49.87.17c-2.73,0-4.94-2.55-4.95-5.7s2.2-5.71,4.92-5.73l49.87-.15c2.72,0,4.94,2.54,5,5.69S78.23,177.25,75.51,177.25ZM99.9,51.59l49.86-.15c2.73,0,5,2.54,5,5.69s-2.2,5.72-4.93,5.72L99.92,63c-2.73,0-4.94-2.54-5-5.69S97.17,51.6,99.9,51.59ZM100,80.14,149.83,80c2.72,0,4.94,2.55,4.94,5.7s-2.19,5.71-4.92,5.73L100,91.55c-2.72,0-4.93-2.54-4.94-5.69S97.24,80.14,100,80.14Zm.07,28.54,49.86-.16c2.73,0,5,2.53,5,5.7s-2.2,5.7-4.92,5.72l-49.87.15c-2.74,0-4.94-2.53-5-5.7S97.3,108.69,100,108.68Zm.06,28.53,49.87-.15c2.72,0,4.94,2.55,4.95,5.7s-2.19,5.71-4.92,5.71l-49.86.17c-2.73,0-4.95-2.54-5-5.69S97.37,137.23,100.09,137.21Zm50,39.81-49.87.16c-2.72,0-4.94-2.55-5-5.7s2.19-5.71,4.92-5.71L150,165.6c2.74,0,4.95,2.54,5,5.69S152.78,177,150.06,177Z"/><rect class="cls-1" x="30.36" y="63.16" width="40" height="46.24" transform="translate(-0.27 0.16) rotate(-0.18)"/></svg>