<svg id="Calque_1" data-name="Calque 1" xmlns="http://www.w3.org/2000/svg" viewBox="0 0 200 200"><defs><style>.cls-1{fill:#2d4e47;}</style></defs><title>newspaper-stroke</title><path class="cls-1" d="M82.13,166.31c0,2.87-2,5.2-4.5,5.2L32,171.66c-2.5,0-4.52-2.31-4.53-5.17s2-5.2,4.5-5.21l45.58-.14C80.08,161.13,82.11,163.45,82.13,166.31Z"/><path class="cls-1" d="M150.26,166.1c0,2.87-2,5.19-4.5,5.2l-45.57.14c-2.5,0-4.53-2.31-4.54-5.17s2-5.2,4.5-5.2l45.58-.15C148.23,160.92,150.25,163.23,150.26,166.1Z"/><path class="cls-1" d="M150,36.38c0,2.87-2,5.2-4.5,5.21l-113.72.35c-2.48,0-4.52-2.31-4.53-5.17s2-5.2,4.5-5.21l113.74-.36C147.92,31.2,150,33.52,150,36.38Z"/><path class="cls-1" d="M150,62.33c0,2.86-2,5.2-4.5,5.2l-45.57.15c-2.5,0-4.52-2.32-4.53-5.18s2-5.2,4.5-5.21l45.59-.13C148,57.14,150,59.47,150,62.33Z"/><path class="cls-1" d="M150.07,88.27c0,2.86-2,5.19-4.5,5.21L100,93.61c-2.5,0-4.52-2.31-4.53-5.17s2-5.2,4.5-5.2l45.59-.15C148,83.08,150.07,85.4,150.07,88.27Z"/><path class="cls-1" d="M150.14,114.22c0,2.86-2,5.18-4.5,5.2l-45.57.13c-2.5,0-4.53-2.3-4.54-5.17s2-5.19,4.5-5.2l45.58-.14C148.1,109,150.13,111.34,150.14,114.22Z"/><path class="cls-1" d="M150.2,140.16c0,2.86-2,5.19-4.5,5.19l-45.57.15c-2.5,0-4.53-2.31-4.54-5.17s2-5.2,4.5-5.21l45.58-.14C148.16,135,150.19,137.29,150.2,140.16Z"/><path class="cls-1" d="M82.06,140.38c0,2.86-2,5.18-4.5,5.19L32,145.71c-2.49,0-4.51-2.3-4.52-5.17s2-5.19,4.5-5.2l45.58-.15C80,135.19,82.06,137.5,82.06,140.38Z"/><path class="cls-1" d="M81.88,62.54c0-2.87-2-5.18-4.54-5.18l-45.57.15c-2.5,0-4.51,2.34-4.5,5.2l.12,52.41c0,2.86,2,5.18,4.52,5.17l45.59-.14c2.5,0,4.5-2.34,4.5-5.21ZM36.4,109.9l-.09-42,36.55-.11.1,42Z"/><path class="cls-1" d="M199.59,36.23c0-5.73-4.07-10.37-9.05-10.35l-13.54,0,0-15.56C177,4.63,172.89,0,167.92,0L9.07.51c-5,0-9,4.68-9,10.4L.46,177c0,14.3,10.18,25.9,22.62,25.87l154.34-.48c12.44,0,22.54-11.71,22.5-26ZM177.4,192l-154.33.49c-7.48,0-13.57-6.94-13.59-15.52l-.39-166,158.85-.5.38,158.26c0,7.15,5.09,13,11.31,12.93,2.5,0,4.51-2.33,4.5-5.2s-2-5.18-4.53-5.17a2.45,2.45,0,0,1-2.26-2.59L177,36.3l13.54,0,.33,140.1C190.92,184.93,184.86,191.93,177.4,192Z"/></svg>