<svg id="Calque_1" data-name="Calque 1" xmlns="http://www.w3.org/2000/svg" viewBox="0 0 200 200"><defs><style>.cls-1{fill:#2d4e47;}</style></defs><title>notepad-stroke</title><path class="cls-1" d="M162.91,17.58H139.6V5.13a5,5,0,1,0-10,0V17.58h-60V5.13a5,5,0,1,0-10,0V17.58H37.09A14.1,14.1,0,0,0,23,31.67V185.91A14.1,14.1,0,0,0,37.09,200H162.91A14.1,14.1,0,0,0,177,185.91V31.67A14.1,14.1,0,0,0,162.91,17.58ZM167,185.91a4.09,4.09,0,0,1-4.09,4.09H37.09A4.09,4.09,0,0,1,33,185.91V31.67a4.09,4.09,0,0,1,4.09-4.09H59.6v4.94a19.56,19.56,0,0,0,5,38.3,19.56,19.56,0,0,0,5-38.3V27.58h60v4.94a19,19,0,1,0,10,0V27.58h23.31A4.09,4.09,0,0,1,167,31.67ZM64.6,42.08a9.24,9.24,0,1,1-9,9.24A9.12,9.12,0,0,1,64.6,42.08Zm70,0a9.24,9.24,0,1,1-9,9.24A9.12,9.12,0,0,1,134.6,42.08Z"/><path class="cls-1" d="M149.5,114.57h-99a5,5,0,0,0,0,10h99a5,5,0,0,0,0-10Z"/><path class="cls-1" d="M149.5,89.42h-99a5,5,0,0,0,0,10h99a5,5,0,0,0,0-10Z"/><path class="cls-1" d="M149.5,139.71h-99a5,5,0,0,0,0,10h99a5,5,0,0,0,0-10Z"/><path class="cls-1" d="M149.5,164.86h-99a5,5,0,0,0,0,10h99a5,5,0,0,0,0-10Z"/></svg>