<svg id="Calque_1" data-name="Calque 1" xmlns="http://www.w3.org/2000/svg" viewBox="0 0 200 200"><defs><style>.cls-1{fill:#2d4e47;}</style></defs><title>notepad-full</title><path class="cls-1" d="M162.91,17.58H139.6v15a19,19,0,1,1-10,0v-15h-60v15a19.55,19.55,0,0,1-5,38.29,19.55,19.55,0,0,1-5-38.29v-15H37.09A14.1,14.1,0,0,0,23,31.67V185.91A14.1,14.1,0,0,0,37.09,200H162.91A14.1,14.1,0,0,0,177,185.91V31.67A14.1,14.1,0,0,0,162.91,17.58ZM149.5,174.86h-99a5,5,0,0,1,0-10h99a5,5,0,0,1,0,10Zm0-25.15h-99a5,5,0,0,1,0-10h99a5,5,0,0,1,0,10Zm0-25.14h-99a5,5,0,0,1,0-10h99a5,5,0,0,1,0,10Zm0-25.15h-99a5,5,0,0,1,0-10h99a5,5,0,0,1,0,10Z"/><path class="cls-1" d="M69.6,5.13a5,5,0,1,0-10,0V17.58h10Z"/><ellipse class="cls-1" cx="64.6" cy="51.32" rx="9" ry="9.24"/><path class="cls-1" d="M139.6,5.13a5,5,0,1,0-10,0V17.58h10Z"/><ellipse class="cls-1" cx="134.6" cy="51.32" rx="9" ry="9.24"/></svg>