<svg id="Calque_1" data-name="Calque 1" xmlns="http://www.w3.org/2000/svg" viewBox="0 0 200 200"><defs><style>.cls-1{fill:#2d4e47;}</style></defs><title>pad-stroke</title><path class="cls-1" d="M186.73,124.33h0c-4.56-7.52-11.57-14.17-22-20.91l.41-16.7a32.06,32.06,0,0,0-8.89-23L128.32,34.41a22.22,22.22,0,0,0-15.67-6.94L91.49,27a61.49,61.49,0,0,0-3.61-5.83C78.75,8.11,65.28-.17,50.93-1.59,37.58-2.91,24.56,1.76,14.27,11.56S-1.32,34.14-.65,47.52c.71,14.4,8.32,28.27,20.86,38a66.32,66.32,0,0,0,5.7,3.89l-.52,21.11a22.25,22.25,0,0,0,6.17,16l27.88,29.28a32,32,0,0,0,22.57,10l16.62.41c6.22,10.81,12.53,18.15,19.84,23.09,10.42,7.06,21.77,10.78,32.82,10.78a50.73,50.73,0,0,0,21.12-4.63,37.54,37.54,0,0,0,17.83-17C198.93,161.6,197.68,142.36,186.73,124.33ZM45.88,90.26c-4.8-2.53-9.34-4.92-13.16-7.18l-1-.56h-.11a61.28,61.28,0,0,1-5.95-4C15.21,70.34,8.85,58.88,8.27,47.08,7.73,36.33,12.05,26,20.43,18,27.92,10.9,37,7.12,46.53,7.12a34.58,34.58,0,0,1,3.52.18c11.76,1.17,22.89,8.07,30.53,19a65.19,65.19,0,0,1,4.26,7.19c2.06,3.91,4.23,8.55,6.52,13.47l0,.1c6,12.83,14.2,30.4,22.16,37.36,5.1,4.46,14.66,9.39,23.93,14.16,6.83,3.51,13.89,7.15,20.35,11.14C168.26,116.1,175,122.23,179.1,129c9.27,15.27,10.41,31.41,3.2,45.44a28.63,28.63,0,0,1-13.59,12.94c-14.37,6.52-30.44,4.6-45.24-5.42-5.89-4-11.11-10-16.42-19l-1.79-3.25c-3.64-6.58-6.93-13.83-10.14-20.89-4.3-9.45-8.74-19.22-12.94-24.53C75.62,106,58.45,96.9,45.88,90.26ZM156.16,86.5l-.29,11.66c-1.16-.65-2.32-1.29-3.5-1.93l-1.11-.59c-1.28-.69-2.56-1.37-3.85-2L146,92.89l-4.5-2.33c-8.76-4.51-17.82-9.18-22.1-12.92-6.53-5.71-14.93-23.69-20-34.44l-.06-.12c-.58-1.24-1.15-2.47-1.72-3.67l-.23-.51L96.1,36l16.33.4a13.39,13.39,0,0,1,9.42,4.17l27.88,29.28A23.17,23.17,0,0,1,156.16,86.5Zm-121.44,8c2.23,1.21,4.56,2.45,7,3.74,10.47,5.53,28,14.79,33.4,21.6,3.53,4.46,7.75,13.76,11.84,22.75,2,4.3,4.36,9.59,6.85,14.6l-11.59-.29a23.17,23.17,0,0,1-16.32-7.23L38,120.39a13.36,13.36,0,0,1-3.71-9.61Z"/><path class="cls-1" d="M88.84,109c4.85,6.13,9.31,15.94,14,26.35,7.21,15.86,14.66,32.25,25.38,39.5,1.41,1,2.85,1.83,4.28,2.61a39.23,39.23,0,0,0,18.84,5.1h0a33.21,33.21,0,0,0,12.14-2.29c.56-.22,1.11-.46,1.66-.71a20.08,20.08,0,0,0,9.51-9.05c4.14-8,4.82-17.19,2-26.44a48,48,0,0,0-4.86-10.67c-6.72-11.06-22.73-19.3-38.21-27.28C123.43,100.89,113.84,96,108,90.81c-9.33-8.15-17.63-25.94-24.3-40.23-3.81-8.14-7.09-15.18-10.07-19.42-6.21-8.84-15.1-14.43-24.38-15.35C40.89,15,33,17.89,26.33,24.22S16.39,38.31,16.8,46.65C17.27,56,22.42,65.13,31,71.76c4.08,3.18,11,6.8,18.9,11C63.8,90.12,81.16,99.29,88.84,109Zm51.36,62.25a40,40,0,0,1-4.2-2.08l-.08,0c-.89-.52-1.79-1.08-2.66-1.67-.52-.35-1-.75-1.58-1.18-7.91-6.54-14.4-20.82-20.68-34.66-5-10.89-9.63-21.17-15.15-28.15C87,92.27,68.71,82.62,54,74.86c-7.57-4-14.12-7.45-17.59-10.15-6.47-5-10.37-11.78-10.71-18.5-.28-5.67,2.06-11,6.77-15.52s10.24-6.54,15.83-6c6.69.66,13.24,4.89,17.95,11.6,2.53,3.6,5.66,10.3,9.28,18.06,7,15,15.77,33.78,26.52,43.17,6.7,5.87,16.76,11,27.42,16.53,14.38,7.41,29.26,15.07,34.66,24l.07.11c4.22,7,8.05,17.53,2.53,28.27a11.16,11.16,0,0,1-5.26,5c-6.5,2.95-13.47,3-20.72.06l-.18.46,0-.52Z"/></svg>