<svg id="Calque_1" data-name="Calque 1" xmlns="http://www.w3.org/2000/svg" viewBox="0 0 200 200"><defs><style>.cls-1{fill:#2d4e47;}</style></defs><title>person-full</title><path class="cls-1" d="M189.26,52.62c-1.49-6.81-7.76-10.45-15-9-14,2.92-28.06,5.94-42.17,8.47-18.53,3.32-37.2,4.36-55.84,1.14C59.35,50.34,42.52,47,25.68,43.64c-7.14-1.41-13.24,2-14.87,8.7A11.72,11.72,0,0,0,20.1,66.79c17.51,3.73,35.08,7.29,53.23,11A3.33,3.33,0,0,1,76,81.2v0c-.46,10.76-.75,21.53-1.45,32.27-1.51,23.45-5.3,46.4-15.24,68a11.63,11.63,0,0,0,6.2,16c6.33,2.71,13.06-.06,15.76-6.74a176.42,176.42,0,0,0,6.28-17.12c3-10.49,5.74-21.09,8.58-31.85a4,4,0,0,1,3.84-3h.55a4,4,0,0,1,3.93,3.31c0,.21.07.41.11.61A225.6,225.6,0,0,0,119,191.42a10.36,10.36,0,0,0,8.49,6.77c4.78.7,8.89-.52,11.9-4.44s3-8,1.3-12.6c-3.52-9.46-7.52-18.85-9.8-28.63-4.77-20.39-6.09-41.27-6.68-62.17-.1-3.61,0-7.21,0-10.75a2.22,2.22,0,0,1,1.78-2.18c7.61-1.55,37.75-7.4,53.67-10.58C186.68,65.42,190.7,59.2,189.26,52.62Z"/><path class="cls-1" d="M100,49.19A23.87,23.87,0,1,0,76.09,25.07,23.91,23.91,0,0,0,100,49.19Z"/></svg>