<svg id="Calque_1" data-name="Calque 1" xmlns="http://www.w3.org/2000/svg" viewBox="0 0 200 200"><defs><style>.cls-1{fill:#2d4e47;}</style></defs><title>tag-stroke</title><path class="cls-1" d="M1.69,12.38,18.55,29.24a17.19,17.19,0,0,0-1.18,3.27L4.43,84.88A17.43,17.43,0,0,0,9,101.36l93.41,93.56a17.36,17.36,0,0,0,24.54,0l65.47-65.46a17.39,17.39,0,0,0,0-24.55L98.86,11.5A17.47,17.47,0,0,0,82.37,6.94L30,19.88a17.42,17.42,0,0,0-3.27,1.17L9.88,4.2a5.79,5.79,0,0,0-8.19,8.18ZM27.8,38.49,41.74,52.43a17.35,17.35,0,1,0,8.18-8.19L36,30.31,85.18,18.17A5.47,5.47,0,0,1,86.57,18a5.78,5.78,0,0,1,4.1,1.7l93.56,93.4a5.79,5.79,0,0,1,0,8.19l-65.46,65.46a5.78,5.78,0,0,1-8.18,0L17.18,93.18a5.82,5.82,0,0,1-1.52-5.5ZM53.31,55.82h0a5.79,5.79,0,1,1,0,8.19A5.8,5.8,0,0,1,53.31,55.81Z"/></svg>