<svg id="Calque_1" data-name="Calque 1" xmlns="http://www.w3.org/2000/svg" viewBox="0 0 200 200"><defs><style>.cls-1{fill:#2d4e47;}</style></defs><title>tampon-stroke</title><path class="cls-1" d="M191,33.51c-19.33-5.61-41.75,5.52-49,24.3-3.83,10-3.75,22,.22,33.94,3.69,11.07,10.06,20.64,15.8,28.55l1.28,1.74c3.39,4.64,6.6,9,8.53,13.9a40,40,0,0,1,2.5,12.59c.84,14.77-4.44,28.5-13.79,35.84-11.23,8.82-26.84,6.34-33.31-1.77a19,19,0,0,1-4-9.29,43.81,43.81,0,0,1-.14-7.39,44.91,44.91,0,0,0-.53-10.77,18.66,18.66,0,0,0-8.45-12.09,13.28,13.28,0,0,0,1.76-4.24,12.94,12.94,0,0,0,13.55-19.7L57.64,14.24A31.19,31.19,0,0,0,5.26,48.12L73.1,153a12.94,12.94,0,0,0,23.52-4.28,12.93,12.93,0,0,0,4.84.11h0c1.67,1.16,3.27,2.28,3.75,2.56a9.08,9.08,0,0,1,3.91,5.73,36.09,36.09,0,0,1,.33,8.48,52.05,52.05,0,0,0,.23,9,28.75,28.75,0,0,0,6,14c5.77,7.24,15,11,24.54,11A36.28,36.28,0,0,0,162.56,192c12-9.41,18.52-25.86,17.49-44a50,50,0,0,0-3.17-15.6c-2.38-6-6.12-11.14-9.73-16.07l-1.25-1.71c-5.31-7.31-11.17-16.1-14.45-25.92s-3.39-19.51-.36-27.39c5.39-14,22.78-22.65,37.21-18.46A4.85,4.85,0,0,0,191,33.51ZM94.86,138.92,33.26,43.68A3.82,3.82,0,0,0,30,41.93a3.78,3.78,0,0,0-2.08.61,3.86,3.86,0,0,0-1.14,5.32L88.41,143.1a5.27,5.27,0,1,1-8.85,5.73L11.71,43.94A23.5,23.5,0,0,1,51.18,18.41L119,123.3a5.18,5.18,0,0,1,.73,4,5.27,5.27,0,0,1-9.58,1.76L48.57,33.78A3.85,3.85,0,0,0,42.11,38l61.61,95.24a5.28,5.28,0,0,1,.09,5.57,3.76,3.76,0,0,0-3.9,2.53A5.28,5.28,0,0,1,94.86,138.92Z"/></svg>