<svg id="Calque_1" data-name="Calque 1" xmlns="http://www.w3.org/2000/svg" viewBox="0 0 200 200"><defs><style>.cls-1{fill:#2d4e47;}</style></defs><title>trash-stroke</title><path class="cls-1" d="M156.94,42.92H46.58A11.37,11.37,0,0,0,35.22,54.28v115.1a31.13,31.13,0,0,0,31.1,31.1h68.36a31.13,31.13,0,0,0,31.1-31.1V51.76A8.85,8.85,0,0,0,156.94,42.92Zm-1.16,126.46a21.12,21.12,0,0,1-21.1,21.1H66.32a21.12,21.12,0,0,1-21.1-21.1V54.28a1.36,1.36,0,0,1,1.36-1.36h109.2Z"/><path class="cls-1" d="M164.91,15.57H123.47a10.11,10.11,0,0,0,.11-1.36V8.33A8.33,8.33,0,0,0,115.25,0H85.75a8.32,8.32,0,0,0-8.33,8.33v5.88a10.12,10.12,0,0,0,.1,1.36H36.09a9.66,9.66,0,1,0,0,19.32H164.91a9.66,9.66,0,0,0,0-19.32Z"/><path class="cls-1" d="M70.12,171.55a5,5,0,0,0,5-5V76.85a5,5,0,0,0-10,0v89.7A5,5,0,0,0,70.12,171.55Z"/><path class="cls-1" d="M101,171.55a5,5,0,0,0,5-5V76.85a5,5,0,0,0-10,0v89.7A5,5,0,0,0,101,171.55Z"/><path class="cls-1" d="M129.91,171.55a5,5,0,0,0,5-5V76.85a5,5,0,0,0-10,0v89.7A5,5,0,0,0,129.91,171.55Z"/></svg>