<svg id="Calque_1" data-name="Calque 1" xmlns="http://www.w3.org/2000/svg" viewBox="0 0 200 200"><defs><style>.cls-1{fill:#2d4e47;}</style></defs><title>trash-full</title><path class="cls-1" d="M175.82,8.26A9.66,9.66,0,0,0,163.7,2L124.18,14.39a9.32,9.32,0,0,0-.31-1.32l-1.76-5.61A8.33,8.33,0,0,0,111.66,2L83.52,10.88a8.32,8.32,0,0,0-5.44,10.45l1.76,5.61a9.9,9.9,0,0,0,.51,1.25L40.83,40.64a9.64,9.64,0,0,0-1.11,18V169.39a31.13,31.13,0,0,0,31.1,31.1h68.36a31.13,31.13,0,0,0,31.1-31.1V51.76a8.86,8.86,0,0,0-8.84-8.84H97.94L169.5,20.38a9.66,9.66,0,0,0,6.32-12.12ZM79.62,166.55a5,5,0,0,1-10,0V76.86a5,5,0,0,1,10,0Zm49.79-89.69a5,5,0,1,1,10,0v89.69a5,5,0,0,1-10,0Zm-28.93,0a5,5,0,0,1,10,0v89.69a5,5,0,0,1-10,0Z"/></svg>