<svg id="Calque_1" data-name="Calque 1" xmlns="http://www.w3.org/2000/svg" viewBox="0 0 200 200"><defs><style>.cls-1{fill:#2d4e47;}</style></defs><title>truck-stroke</title><path class="cls-1" d="M198.93,110.94,186.2,94.56l.24-.14L168,57.68a5.1,5.1,0,0,0-4.57-2.82H135.13V47.3A5.12,5.12,0,0,0,130,42.19H24.36a5.12,5.12,0,0,0,0,10.23H124.9V98a5.11,5.11,0,0,0,5.12,5.1h49.9l9.85,12.7v34.34H175.64l-.24-.93a24.13,24.13,0,0,0-46.82,0l-.23.93H89l-.23-.93a24.13,24.13,0,0,0-46.83,0l-.23.93H24.36a5.12,5.12,0,0,0,0,10.23H41.8l.25.91a24.13,24.13,0,0,0,46.62,0l.24-.91h39.53l.24.91a24.13,24.13,0,0,0,46.62,0l.25-.91h19.34a5.13,5.13,0,0,0,5.11-5.11V114.07A5.13,5.13,0,0,0,198.93,110.94Zm-63.8-18V65.09h25.12l14,27.81ZM65.36,169a13.91,13.91,0,1,1,13.9-13.9A13.92,13.92,0,0,1,65.36,169ZM152,169a13.91,13.91,0,1,1,13.9-13.9A13.91,13.91,0,0,1,152,169Z"/><path class="cls-1" d="M51,123.16a5.12,5.12,0,0,1-5.12,5.11H16.75a5.11,5.11,0,1,1,0-10.22H45.91A5.12,5.12,0,0,1,51,123.16Z"/><path class="cls-1" d="M65.61,98.23a5.13,5.13,0,0,1-5.11,5.11H6.4a5.12,5.12,0,0,1,0-10.23H60.5A5.12,5.12,0,0,1,65.61,98.23Z"/><path class="cls-1" d="M76,73.29a5.11,5.11,0,0,1-5.11,5.11H16.75a5.11,5.11,0,1,1,0-10.22h54.1A5.12,5.12,0,0,1,76,73.29Z"/></svg>